{"glyphs":{"0":{"ha":746,"x_min":113,"x_max":847,"o":"m 581 892 q 427 796 469 890 q 369 635 384 702 l 291 297 q 275 138 275 232 l 275 131 q 379 44 276 44 q 510 118 453 44 q 592 301 567 193 l 670 639 q 684 753 684 701 q 676 825 684 791 q 583 892 659 892 l 581 892 m 593 967 q 808 871 747 967 q 847 732 847 808 q 838 650 847 692 l 753 282 q 610 62 722 154 q 368 -30 497 -30 q 147 66 203 -30 q 113 199 113 125 q 123 287 113 241 l 208 654 q 341 875 238 783 q 593 967 444 967 z "},"1":{"ha":678,"x_min":210,"x_max":650,"o":"m 237 -14 q 210 9 210 -14 q 210 16 210 12 q 251 51 216 39 q 295 98 287 63 l 460 812 l 326 812 l 336 859 q 389 902 343 886 q 498 934 434 918 q 568 951 534 943 q 650 974 602 960 l 448 94 q 445 77 445 84 q 458 54 445 60 q 495 17 495 39 q 494 10 495 12 q 460 -14 488 -14 l 237 -14 z "},"2":{"ha":746,"x_min":96,"x_max":835,"o":"m 96 -14 l 112 56 q 172 160 126 116 q 309 283 216 203 q 415 372 361 325 q 519 466 469 419 q 630 599 589 532 q 667 684 659 645 q 671 718 671 702 q 667 750 671 735 q 597 831 649 809 q 528 844 566 844 q 466 837 498 844 q 323 748 389 819 q 269 654 300 723 l 278 802 q 300 836 289 821 q 400 919 340 883 q 535 967 459 956 q 593 971 564 971 q 760 924 686 971 q 835 781 835 875 q 827 716 835 751 l 827 713 q 736 538 805 621 q 584 382 668 456 q 416 241 500 308 q 299 132 333 174 l 512 132 q 703 169 593 132 l 669 20 q 570 -11 616 -9 q 485 -14 524 -14 l 96 -14 z "},"3":{"ha":746,"x_min":110,"x_max":780,"o":"m 498 32 q 299 -32 411 -21 q 264 -34 281 -34 q 110 24 172 -34 l 150 215 q 269 62 188 83 q 330 53 300 53 q 427 75 379 53 q 536 172 498 109 q 565 242 557 208 q 570 287 570 265 q 570 300 570 294 q 514 408 564 362 q 338 456 463 454 l 346 498 q 465 540 403 515 q 569 616 528 565 q 612 697 602 656 q 615 721 614 709 q 616 732 616 727 q 593 806 616 776 q 509 850 566 844 l 497 850 q 380 802 445 850 q 320 696 343 773 l 319 852 q 461 943 393 918 q 587 967 529 967 q 777 834 752 965 q 780 801 780 818 q 775 760 780 781 q 643 586 754 672 q 608 560 615 564 q 706 441 680 521 q 719 362 719 402 q 712 302 719 332 q 706 278 710 290 q 498 32 661 134 z "},"4":{"ha":746,"x_min":98,"x_max":795,"o":"m 481 260 l 98 260 l 119 355 l 643 939 l 791 939 l 662 380 l 795 380 l 767 260 l 634 260 l 596 94 q 594 81 594 87 q 618 55 594 61 q 671 16 671 40 l 671 12 q 637 -14 664 -14 l 358 -14 q 330 9 330 -14 q 330 16 330 12 q 386 53 336 41 q 444 98 435 64 l 481 260 m 509 380 l 597 764 l 256 380 l 509 380 z "},"5":{"ha":746,"x_min":74,"x_max":831,"o":"m 357 797 l 298 534 q 333 550 308 537 q 393 574 357 562 q 538 600 464 600 q 559 600 549 600 q 723 496 666 591 q 756 363 756 434 q 747 286 756 326 l 747 282 q 598 66 717 163 q 336 -29 480 -29 l 330 -29 q 196 -14 241 -27 q 106 22 150 0 q 74 62 74 35 q 75 71 74 66 q 79 100 77 87 q 111 162 90 146 q 145 178 132 178 q 163 171 156 178 q 220 100 184 138 q 321 67 250 67 l 326 67 q 449 105 389 67 q 549 203 509 144 q 585 290 575 244 q 593 356 593 322 q 534 475 593 437 q 450 501 491 501 q 412 496 431 501 q 300 444 348 477 q 254 421 274 425 q 229 418 241 418 q 218 418 222 418 q 199 419 209 418 q 178 442 178 422 q 180 455 178 448 l 282 897 q 296 932 289 926 q 336 939 304 939 l 662 939 q 744 937 699 939 q 831 903 789 934 l 800 764 q 635 797 717 797 l 357 797 z "},"6":{"ha":746,"x_min":100,"x_max":788,"o":"m 503 585 q 353 498 427 581 q 252 300 279 415 q 241 214 241 254 q 263 111 241 155 q 363 42 298 42 l 371 42 q 519 129 445 45 q 620 326 593 212 q 631 414 631 374 q 609 517 631 472 q 509 585 575 585 l 503 585 m 399 645 q 504 654 416 654 q 549 651 526 654 q 724 568 664 638 q 788 391 788 492 q 779 311 788 353 q 625 68 746 171 q 370 -31 505 -31 l 361 -31 q 145 75 215 -27 q 100 224 100 140 q 110 309 100 265 l 111 315 q 291 682 163 530 q 610 947 418 833 l 633 960 q 680 970 655 970 l 682 970 q 725 970 705 970 q 768 951 768 970 l 768 949 q 749 930 766 939 q 534 780 622 854 q 399 645 446 707 z "},"7":{"ha":746,"x_min":90,"x_max":857,"o":"m 297 94 q 233 -14 263 48 l 90 -13 q 96 20 94 11 q 127 87 104 54 q 178 159 153 127 q 452 506 298 317 q 691 797 606 694 l 460 797 q 274 762 377 797 l 307 907 q 404 937 359 935 q 486 939 448 939 l 812 939 q 854 930 844 939 q 857 919 857 924 q 852 892 857 911 q 810 803 840 844 q 554 449 682 626 q 297 94 426 271 z "},"8":{"ha":746,"x_min":77,"x_max":859,"o":"m 494 485 q 351 435 418 485 q 258 265 285 385 q 245 174 245 212 q 266 96 245 123 q 387 49 300 49 q 534 97 475 49 q 621 269 593 144 q 633 356 633 319 q 608 439 633 412 q 494 485 567 485 m 621 968 q 823 895 768 966 q 859 785 859 849 q 852 723 859 756 l 850 715 q 672 524 807 551 q 756 444 710 513 q 787 331 787 397 q 781 264 787 300 l 778 252 q 635 46 746 115 q 364 -26 520 -25 l 359 -26 q 130 50 204 -26 q 77 189 77 103 q 87 267 77 225 q 192 446 113 377 q 324 526 271 514 q 238 670 238 548 q 245 730 238 698 l 245 732 q 376 911 273 850 q 611 968 474 968 l 621 968 m 593 899 q 467 848 513 899 q 403 726 420 798 q 395 661 395 691 q 405 602 395 628 q 507 557 421 557 q 638 607 596 557 q 697 730 680 656 q 705 786 705 760 q 690 853 705 823 q 593 899 669 899 z "},"9":{"ha":746,"x_min":174,"x_max":862,"o":"m 459 355 q 608 441 534 358 q 709 638 682 524 q 720 724 720 684 q 697 829 720 783 q 599 897 663 897 l 591 897 q 442 811 515 893 q 342 615 368 728 l 341 612 q 330 526 330 566 q 353 422 330 467 q 451 355 385 355 l 459 355 m 562 294 q 458 285 545 285 q 412 288 435 285 q 237 371 298 300 q 174 546 174 446 q 183 628 174 585 l 184 632 q 336 871 216 769 q 591 970 456 970 l 600 970 q 817 864 746 966 q 862 713 862 798 q 852 628 862 673 l 851 624 q 671 257 799 408 q 352 -7 543 105 q 341 -14 346 -11 q 330 -21 336 -17 q 281 -31 307 -31 q 271 -31 272 -31 l 237 -31 q 192 -12 192 -31 l 192 -10 q 213 9 194 1 q 427 158 338 85 q 562 294 515 232 z "}," ":{"ha":373,"x_min":0,"x_max":0,"o":""},"!":{"ha":338,"x_min":92,"x_max":475,"o":"m 275 252 q 237 224 268 224 l 223 224 q 193 248 193 224 q 194 256 193 252 l 296 904 l 297 911 q 374 966 310 966 l 416 966 q 475 922 475 966 q 473 905 475 914 l 472 899 l 275 252 m 212 170 q 292 114 292 170 q 290 95 292 104 l 277 39 q 172 -31 260 -31 q 92 25 92 -31 q 94 43 92 34 l 106 99 q 212 170 123 170 z "},"\"":{"ha":566,"x_min":250,"x_max":677,"o":"m 319 654 q 288 635 314 635 l 277 635 q 250 655 250 635 l 250 658 l 283 958 l 284 961 q 342 992 292 992 l 374 992 q 424 963 424 992 q 423 956 424 960 l 422 953 l 319 654 m 571 654 q 541 635 566 635 l 530 635 q 503 655 503 635 l 503 658 l 536 958 l 537 961 q 595 992 545 992 l 627 992 q 677 962 677 992 q 675 955 677 959 l 675 952 l 571 654 z "},"#":{"ha":765,"x_min":105,"x_max":880,"o":"m 245 14 l 299 245 l 130 245 q 105 264 105 245 l 105 267 l 119 325 q 146 343 123 343 l 321 343 l 359 503 l 190 503 q 165 522 165 503 l 165 524 l 178 583 q 206 601 182 601 l 381 601 l 435 836 q 462 859 441 859 l 519 859 q 541 839 541 859 q 541 831 541 836 l 487 601 l 579 601 l 633 836 q 661 859 639 859 l 718 859 q 740 839 740 859 q 739 831 740 836 l 686 601 l 854 601 q 880 582 880 601 l 880 579 l 866 521 q 838 503 862 503 l 663 503 l 626 343 l 794 343 q 820 324 820 343 l 820 321 l 806 263 q 778 245 802 245 l 604 245 l 549 10 q 522 -14 544 -14 l 465 -14 q 443 7 443 -14 q 444 14 443 9 l 497 245 l 405 245 l 351 10 q 324 -14 345 -14 l 267 -14 q 245 6 245 -14 q 245 14 245 9 m 465 503 l 427 343 l 519 343 l 557 503 l 465 503 z "},"$":{"ha":694,"x_min":66,"x_max":825,"o":"m 552 1034 l 583 1034 q 613 1010 613 1034 q 612 1002 613 1006 l 596 934 q 825 854 720 934 l 776 713 q 747 690 768 690 q 739 691 741 690 q 713 720 720 693 q 662 810 701 773 q 575 847 623 847 l 504 532 q 558 524 521 530 q 629 507 595 517 q 720 446 692 486 q 746 385 740 417 q 749 347 749 366 q 743 288 749 319 q 574 54 709 147 q 425 -18 503 4 q 374 -31 395 -27 l 347 -146 q 311 -174 341 -174 l 280 -174 q 250 -150 250 -174 q 251 -142 250 -146 l 275 -40 q 90 -11 176 -40 l 66 167 l 72 185 q 104 207 81 207 l 108 207 q 134 178 126 203 q 192 74 152 102 q 294 45 232 45 l 378 406 q 324 417 359 409 q 259 443 290 426 q 186 530 203 473 q 177 591 177 559 q 184 648 177 619 q 317 851 212 772 q 498 928 399 914 l 516 1006 q 552 1034 522 1034 m 471 389 l 393 52 q 534 138 470 62 q 588 249 573 184 l 590 256 q 593 287 593 273 q 565 353 593 328 q 519 377 547 368 q 471 389 492 385 m 410 549 l 477 838 l 459 829 q 408 798 429 817 q 372 758 389 783 q 346 711 356 735 q 333 675 337 692 q 330 646 330 659 q 330 631 330 639 q 356 574 333 595 q 398 553 374 559 q 410 549 401 551 z "},"%":{"ha":694,"x_min":-19,"x_max":941,"o":"m 612 394 q 537 347 559 393 q 509 267 516 300 l 479 134 q 470 54 470 101 q 471 51 470 53 q 517 12 471 12 q 579 48 551 12 q 620 139 607 84 l 650 271 q 657 328 657 302 q 653 364 657 347 q 612 394 646 394 m 617 446 q 737 393 703 446 q 758 317 758 358 q 753 274 758 296 l 720 127 q 643 8 703 57 q 511 -40 582 -40 q 388 14 419 -40 q 369 85 369 45 q 374 131 369 107 l 408 278 q 480 396 425 347 q 617 446 536 446 m 393 882 q 318 834 340 881 q 290 754 297 788 l 260 622 q 251 541 251 589 q 252 538 251 541 q 298 499 252 499 q 360 535 332 499 q 401 627 388 572 l 431 758 q 438 816 438 790 q 434 852 438 836 q 393 882 427 882 m 398 934 q 519 880 484 934 q 540 805 540 847 q 535 762 540 785 l 501 614 q 424 496 485 545 q 292 447 363 447 q 170 501 201 447 q 151 573 151 534 q 156 618 151 595 l 190 766 q 261 884 206 835 q 398 934 317 934 m 840 963 l 941 963 l 82 -14 l -19 -14 l 840 963 z "},"&":{"ha":876,"x_min":92,"x_max":960,"o":"m 662 203 l 715 111 q 796 39 736 71 q 823 16 819 28 q 825 8 825 11 q 822 -1 825 4 l 822 -3 q 795 -15 808 -15 l 629 -15 q 571 39 593 -15 q 551 83 557 75 q 424 -3 496 29 q 269 -35 351 -35 q 119 26 167 -35 q 92 115 92 64 q 97 165 92 139 q 102 182 100 174 q 188 332 126 266 q 358 460 247 396 q 323 564 334 508 q 319 608 319 586 q 326 668 319 637 q 331 687 328 677 q 427 839 355 781 q 594 897 500 897 q 730 847 689 897 q 755 772 755 816 q 750 730 755 752 l 747 718 q 669 585 725 643 q 515 474 609 525 l 624 270 l 715 389 q 726 408 722 399 q 727 414 726 412 q 728 422 728 419 l 728 425 q 724 435 728 430 q 720 450 721 441 q 722 459 720 454 l 722 458 q 725 467 722 460 q 758 488 739 488 l 933 488 q 954 484 951 488 q 960 470 960 484 q 959 465 960 467 q 956 456 958 460 q 920 433 947 444 q 897 423 909 428 q 871 411 884 418 q 770 328 817 380 q 662 203 723 276 m 484 534 q 571 605 534 562 q 628 715 608 648 l 630 725 q 636 768 636 749 q 632 800 636 785 q 578 825 624 825 q 512 799 540 825 q 465 718 480 769 q 462 703 463 710 q 456 650 456 677 q 484 534 456 585 m 516 147 l 387 395 q 254 225 284 332 q 251 212 252 219 q 245 165 245 187 q 260 102 245 130 q 338 56 285 56 q 434 83 387 56 q 516 147 481 111 z "},"'":{"ha":289,"x_min":250,"x_max":424,"o":"m 319 654 q 288 635 314 635 l 277 635 q 250 655 250 635 l 250 658 l 283 958 l 284 961 q 342 992 292 992 l 374 992 q 424 963 424 992 q 423 956 424 960 l 422 953 l 319 654 z "},"(":{"ha":463,"x_min":106,"x_max":652,"o":"m 196 515 q 251 697 218 610 q 342 850 283 784 q 400 913 372 885 q 470 964 429 942 q 623 1008 553 1008 q 652 983 652 1008 q 650 972 652 978 q 642 951 646 956 q 594 933 634 943 q 505 884 555 924 q 410 752 450 839 q 317 432 371 666 l 295 335 q 239 13 240 99 q 273 -115 239 -72 q 307 -149 291 -138 q 353 -170 324 -160 q 380 -189 377 -178 q 378 -205 380 -191 l 378 -209 q 366 -231 374 -223 q 338 -239 355 -239 q 235 -211 285 -239 q 147 -118 183 -182 q 106 15 111 -53 q 106 40 106 27 q 136 258 106 125 l 196 515 z "},")":{"ha":463,"x_min":28,"x_max":574,"o":"m 544 511 l 484 254 q 401 10 448 96 q 301 -120 366 -56 q 174 -212 237 -184 q 60 -239 112 -239 q 33 -229 40 -239 q 28 -214 28 -223 q 30 -203 28 -209 l 30 -201 q 39 -180 35 -182 q 66 -169 41 -177 q 125 -146 99 -160 q 176 -112 149 -134 q 270 18 231 -68 q 364 339 311 107 l 387 436 q 441 757 440 668 l 441 760 q 408 887 441 843 q 341 935 378 925 q 300 958 304 944 l 300 961 q 302 977 300 966 q 339 1008 310 1008 q 473 963 410 1008 q 523 911 507 940 q 553 847 538 882 q 574 728 574 794 q 573 692 574 710 q 544 511 566 606 z "},"*":{"ha":694,"x_min":191,"x_max":728,"o":"m 326 583 l 427 515 l 458 656 q 500 692 467 692 l 535 692 q 566 664 566 692 q 564 651 566 658 l 534 518 l 661 583 q 688 591 675 591 q 716 573 709 591 l 727 541 q 728 534 728 537 q 728 527 728 530 q 701 498 724 511 l 559 427 l 665 357 q 682 330 682 345 q 681 324 682 328 q 675 312 680 319 l 649 280 q 619 266 637 266 q 594 273 606 266 l 493 341 l 460 201 q 420 165 452 165 l 385 165 q 353 193 353 165 q 355 206 353 199 l 386 338 l 259 273 q 231 265 244 265 q 203 284 209 265 l 193 315 q 191 324 191 319 q 193 331 191 329 q 219 358 195 346 l 360 430 l 256 499 q 237 525 237 510 q 239 532 237 530 q 245 545 239 538 l 271 576 q 300 591 281 591 q 326 583 313 591 z "},"+":{"ha":694,"x_min":188,"x_max":732,"o":"m 243 477 l 418 477 l 458 656 q 500 692 467 692 l 535 692 q 566 664 566 692 q 564 651 566 658 l 524 477 l 693 477 q 732 451 732 477 q 731 444 732 448 l 723 408 q 677 379 716 379 l 502 379 l 460 201 q 420 165 452 165 l 385 165 q 353 193 353 165 q 355 206 353 199 l 395 379 l 227 379 q 188 406 188 379 q 189 413 188 409 l 197 448 q 243 477 203 477 z "},",":{"ha":326,"x_min":10,"x_max":286,"o":"m 206 170 q 286 114 286 170 q 284 95 286 104 l 271 39 q 256 3 267 23 q 238 -30 245 -16 q 98 -163 191 -109 q 45 -182 66 -182 q 16 -169 25 -182 q 10 -155 10 -163 l 10 -151 q 23 -131 13 -140 q 60 -106 39 -117 q 143 -31 126 -71 q 86 25 86 -31 q 88 43 86 34 l 101 99 q 206 170 117 170 z "},"-":{"ha":694,"x_min":188,"x_max":732,"o":"m 243 477 l 693 477 q 732 451 732 477 q 731 444 732 448 l 723 408 q 677 379 716 379 l 227 379 q 188 406 188 379 q 189 413 188 409 l 197 448 q 243 477 203 477 z "},".":{"ha":326,"x_min":90,"x_max":290,"o":"m 210 170 q 290 114 290 170 q 288 95 290 104 l 275 39 q 170 -31 259 -31 q 90 25 90 -31 q 92 43 90 34 l 105 99 q 210 170 121 170 z "},"/":{"ha":694,"x_min":-41,"x_max":928,"o":"m -41 -61 l 793 1013 l 928 1013 l 94 -61 l -41 -61 z "},":":{"ha":347,"x_min":90,"x_max":403,"o":"m 323 656 q 403 601 403 656 q 401 582 403 591 l 388 526 q 283 456 372 456 q 203 511 203 456 q 205 530 203 521 l 218 586 q 323 656 234 656 m 210 170 q 290 114 290 170 q 288 95 290 104 l 275 39 q 170 -31 259 -31 q 90 25 90 -31 q 92 43 90 34 l 105 99 q 210 170 121 170 z "},";":{"ha":347,"x_min":14,"x_max":403,"o":"m 323 656 q 403 601 403 656 q 401 582 403 591 l 388 526 q 283 456 372 456 q 203 511 203 456 q 205 530 203 521 l 218 586 q 323 656 234 656 m 210 170 q 290 114 290 170 q 288 95 290 104 l 275 39 q 260 3 271 23 q 241 -30 249 -16 q 102 -163 195 -109 q 49 -182 70 -182 q 20 -169 28 -182 q 14 -155 14 -163 l 14 -151 q 27 -131 17 -140 q 64 -106 43 -117 q 147 -31 130 -71 l 170 -31 q 90 26 90 -28 q 92 44 90 35 l 105 99 q 210 170 121 170 z "},"<":{"ha":694,"x_min":201,"x_max":838,"o":"m 208 404 q 201 422 201 412 q 203 429 201 426 q 228 460 206 444 l 741 869 q 779 886 762 886 q 807 873 797 886 l 833 839 q 838 823 838 831 q 837 816 838 819 q 813 784 834 800 l 366 426 l 647 70 q 658 43 658 56 q 656 35 658 39 q 643 14 654 24 l 603 -18 q 574 -29 589 -29 q 538 -10 555 -29 l 208 404 z "},"=":{"ha":694,"x_min":168,"x_max":757,"o":"m 222 378 l 672 378 q 711 351 711 378 q 710 343 711 347 l 702 309 q 656 279 695 279 l 206 279 q 168 306 168 279 q 168 313 168 309 l 176 348 q 222 378 183 378 m 269 578 l 718 578 q 757 551 757 578 q 756 543 757 547 l 748 509 q 702 479 741 479 l 252 479 q 214 506 214 479 q 214 513 214 509 l 222 548 q 269 578 229 578 z "},">":{"ha":694,"x_min":112,"x_max":749,"o":"m 742 452 q 749 434 749 444 q 748 427 749 431 q 724 396 745 413 l 210 -12 q 171 -29 189 -29 q 144 -16 154 -29 l 119 16 q 112 35 112 24 q 113 41 112 38 q 137 73 117 56 l 586 431 l 304 786 q 292 814 292 800 l 292 819 q 308 842 296 832 l 348 876 q 376 886 361 886 q 412 867 396 886 l 742 452 z "},"?":{"ha":532,"x_min":176,"x_max":689,"o":"m 370 296 q 349 237 361 259 q 309 212 332 212 q 279 244 282 212 q 278 258 278 251 q 283 302 278 277 l 333 515 q 475 624 434 577 q 531 736 516 672 q 538 792 538 768 q 528 841 538 823 q 460 869 511 869 q 387 841 415 869 q 330 722 356 808 q 304 690 323 701 q 258 679 286 679 q 212 692 227 679 q 203 717 203 702 q 205 733 203 724 q 302 884 227 827 q 486 939 378 939 q 652 883 598 939 q 689 786 689 844 q 682 732 689 761 q 519 542 655 616 q 486 524 506 534 q 428 480 442 500 q 399 413 413 460 l 370 296 m 292 165 q 370 110 370 165 q 368 92 370 102 l 356 38 q 253 -30 340 -30 q 176 24 176 -30 q 178 42 176 33 l 190 96 q 292 165 205 165 z "},"@":{"ha":1437,"x_min":58,"x_max":1511,"o":"m 1288 113 q 1187 27 1242 66 q 1072 -33 1132 -12 q 941 -60 1003 -60 q 852 -45 894 -60 q 795 32 795 -24 q 798 62 795 46 l 793 40 l 597 -22 q 551 -31 569 -31 l 523 -31 q 378 57 416 -25 q 361 140 361 94 q 368 205 361 171 q 436 360 387 283 q 542 491 485 438 q 635 556 575 522 q 680 575 655 567 q 808 616 745 596 q 936 657 871 637 q 966 662 953 662 l 970 662 q 1071 639 1016 660 q 1081 634 1078 637 q 1107 623 1090 630 q 1115 621 1112 621 q 1127 625 1120 621 q 1154 643 1145 636 q 1177 652 1163 652 q 1192 650 1184 652 q 1210 627 1210 640 l 1210 623 l 1208 619 l 983 130 q 966 85 970 104 q 963 61 963 71 q 987 28 963 34 q 1006 25 996 25 q 1057 36 1028 25 q 1148 85 1105 53 q 1284 243 1220 140 q 1377 476 1348 349 q 1394 608 1394 549 q 1316 809 1394 736 q 1005 916 1204 916 q 692 841 855 916 q 401 611 528 766 q 228 260 273 457 q 209 109 209 180 q 224 -17 209 43 q 356 -207 256 -138 q 615 -274 454 -274 q 886 -226 753 -274 q 1111 -109 1008 -181 q 1129 -103 1119 -103 q 1152 -114 1142 -103 q 1157 -129 1157 -121 q 1156 -136 1157 -132 q 1147 -153 1154 -144 q 1122 -180 1135 -170 q 858 -316 998 -275 q 572 -357 719 -357 q 152 -180 291 -357 q 58 106 58 -58 q 77 265 58 182 q 417 781 147 571 q 1010 991 687 991 q 1411 849 1272 991 q 1511 596 1511 746 q 1496 474 1511 538 q 1288 113 1449 275 m 814 109 l 1004 521 q 961 558 993 538 q 901 579 930 578 l 899 579 q 876 574 888 579 q 819 556 847 566 q 762 538 790 547 q 731 524 745 534 q 628 418 671 480 q 562 295 585 356 q 543 237 549 264 q 536 184 536 208 q 541 143 536 161 q 607 71 557 87 q 650 64 627 64 q 666 65 657 64 q 701 73 679 66 q 756 91 717 78 q 814 109 795 103 z "},"A":{"ha":1080,"x_min":21,"x_max":1068,"o":"m 806 981 q 847 774 824 890 q 895 535 870 658 q 943 296 920 412 q 983 101 966 180 q 1006 63 986 80 q 1032 47 1019 54 q 1056 33 1046 41 q 1067 18 1065 25 q 1068 12 1068 16 q 1067 5 1068 7 q 1063 -3 1065 1 q 1039 -14 1055 -14 l 810 -14 q 786 -5 797 -14 q 776 13 776 3 q 775 20 775 15 q 792 41 778 32 q 809 53 800 47 q 823 68 818 59 q 826 77 825 72 q 827 88 827 82 q 827 98 827 93 l 783 318 l 412 318 q 341 209 378 267 q 266 94 304 151 q 255 72 258 81 q 252 64 253 67 q 252 57 252 60 l 252 53 q 255 41 252 47 q 259 26 258 36 q 258 18 258 19 q 254 8 258 14 q 220 -14 241 -14 l 45 -14 q 21 2 27 -14 l 21 7 q 24 20 21 14 q 58 44 33 33 q 82 54 69 49 q 108 67 95 60 q 150 105 134 83 l 739 981 l 806 981 m 766 400 l 695 757 q 585 587 652 690 q 465 400 518 484 l 766 400 z "},"B":{"ha":841,"x_min":62,"x_max":947,"o":"m 697 966 q 839 940 767 966 q 937 841 911 915 q 947 777 947 812 q 938 703 947 743 q 863 568 918 627 q 782 506 821 522 q 875 401 846 484 q 886 330 886 368 q 876 250 886 292 q 793 100 854 166 q 659 15 739 43 q 516 -14 578 -14 l 91 -14 q 62 9 62 -14 q 63 17 62 13 q 106 53 69 41 q 151 101 142 65 l 324 856 q 327 872 327 865 q 313 896 327 890 q 275 934 275 911 q 277 941 275 937 q 311 966 282 966 l 697 966 m 389 452 l 298 63 l 431 63 q 529 77 478 63 q 621 124 580 90 q 706 262 687 176 q 712 311 712 288 q 684 397 712 361 q 542 452 640 452 l 389 452 m 408 538 l 574 538 q 705 590 650 547 q 781 715 763 637 q 787 759 787 739 q 760 836 787 804 q 634 885 721 885 l 488 885 l 408 538 z "},"C":{"ha":949,"x_min":122,"x_max":1134,"o":"m 569 -39 q 218 100 353 -39 q 122 346 122 197 q 138 477 122 408 q 385 852 193 711 q 802 994 578 994 q 968 976 882 994 q 1134 899 1055 958 l 1082 748 q 1049 726 1072 726 l 1046 726 q 1017 756 1025 728 q 943 873 996 845 q 787 902 890 902 q 504 800 642 902 q 315 473 366 699 q 304 387 304 429 q 358 195 304 289 q 586 58 431 65 q 616 57 602 57 q 758 82 699 57 q 888 202 825 111 q 924 228 907 225 l 929 228 q 956 203 956 228 l 956 201 l 953 182 l 852 11 q 702 -29 773 -19 q 569 -39 631 -39 z "},"D":{"ha":1075,"x_min":58,"x_max":1168,"o":"m 1158 534 q 1149 491 1154 512 q 1059 284 1123 376 q 875 104 983 175 q 466 -18 691 -16 l 412 -18 q 338 -18 372 -18 l 259 -18 q 173 -16 202 -18 l 157 -16 q 87 -20 131 -16 q 58 3 58 -20 q 58 12 58 7 q 101 47 64 35 q 146 97 138 60 l 321 859 q 324 876 324 868 q 311 899 324 894 q 273 937 273 913 q 274 943 273 940 q 308 968 279 968 q 366 968 336 968 q 423 968 394 968 q 538 972 482 970 l 578 972 q 787 966 683 972 q 1007 914 914 959 q 1140 781 1096 870 q 1168 642 1168 724 q 1158 534 1168 593 m 490 879 l 306 78 q 444 66 369 66 q 501 68 473 66 q 690 116 603 76 q 870 264 793 165 q 973 502 940 357 l 979 524 q 991 629 991 582 q 982 703 991 670 q 918 816 964 774 q 734 888 850 877 q 650 891 693 891 q 490 879 568 891 z "},"E":{"ha":848,"x_min":91,"x_max":989,"o":"m 331 77 l 600 77 q 708 123 656 77 q 789 197 760 170 q 824 216 810 216 q 852 193 852 216 q 852 186 852 190 q 846 170 849 176 l 752 -14 l 117 -14 q 91 9 91 -14 q 92 16 91 12 q 134 53 98 41 q 179 101 171 64 l 353 855 q 355 872 355 865 q 342 897 355 891 q 304 934 304 910 q 305 941 304 937 q 339 966 311 966 l 989 966 l 945 776 q 911 750 939 750 q 876 786 892 750 q 838 854 853 832 q 791 876 822 876 l 515 876 l 436 534 l 571 534 q 626 569 604 534 q 675 604 648 604 q 703 582 703 604 q 703 574 703 578 l 663 402 q 629 376 657 376 q 590 411 597 376 q 553 446 582 446 l 416 446 l 331 77 z "},"F":{"ha":772,"x_min":91,"x_max":989,"o":"m 118 -14 q 91 9 91 -14 q 92 18 91 13 q 117 42 95 31 q 143 57 129 49 q 168 77 158 65 q 179 101 176 89 l 353 855 q 355 872 355 865 q 342 897 355 891 q 304 934 304 910 q 305 941 304 937 q 339 966 311 966 l 989 966 l 945 776 q 911 750 939 750 q 876 786 892 750 q 838 854 853 832 q 791 876 822 876 l 515 876 l 436 534 l 571 534 q 614 555 592 534 q 642 586 629 568 q 675 604 655 604 q 703 582 703 604 q 703 574 703 578 l 663 402 q 629 376 657 376 q 598 398 604 376 q 583 434 592 420 q 557 446 574 446 l 416 446 l 336 97 q 334 82 334 89 q 336 70 334 75 q 348 55 339 61 q 366 42 357 48 q 383 16 383 30 l 383 13 q 380 3 381 6 q 349 -14 366 -14 l 118 -14 z "},"G":{"ha":1060,"x_min":122,"x_max":1137,"o":"m 569 -39 q 218 100 353 -39 q 122 346 122 197 q 138 477 122 408 q 385 852 193 711 q 802 994 578 994 q 968 976 882 994 q 1134 899 1055 958 l 1082 748 q 1049 726 1072 726 l 1046 726 q 1017 756 1025 728 q 943 873 996 845 q 787 902 890 902 q 504 800 642 902 q 315 473 366 699 q 304 387 304 429 q 358 195 304 289 q 586 58 431 65 q 616 57 602 57 q 745 76 690 57 q 863 168 808 99 l 892 292 q 893 297 893 294 q 885 312 893 307 q 839 336 870 321 q 802 373 802 352 l 802 377 q 836 404 808 404 l 1108 404 q 1137 380 1137 404 q 1136 373 1137 377 q 1093 336 1130 349 q 1048 288 1057 324 l 985 14 q 767 -16 867 8 q 664 -34 714 -29 q 569 -39 614 -39 z "},"H":{"ha":1111,"x_min":91,"x_max":1293,"o":"m 509 850 l 439 549 l 977 549 l 1048 855 q 1050 872 1050 865 q 1036 896 1050 890 q 999 934 999 911 q 1000 941 999 937 q 1034 966 1006 966 l 1264 966 q 1293 943 1293 966 q 1292 935 1293 939 q 1249 899 1286 911 q 1204 850 1212 886 l 1030 96 q 1027 79 1027 87 q 1042 56 1027 61 q 1080 18 1080 41 q 1078 12 1080 15 q 1044 -14 1073 -14 l 814 -14 q 786 9 786 -14 q 787 17 786 13 q 829 53 793 41 q 874 101 866 64 l 957 459 l 418 459 l 335 96 q 332 79 332 87 q 346 56 332 61 q 384 18 384 41 q 382 12 384 15 q 349 -14 377 -14 l 119 -14 q 91 9 91 -14 q 92 17 91 13 q 134 53 98 41 q 179 101 171 64 l 353 855 q 355 872 355 865 q 341 896 355 890 q 304 934 304 911 q 305 941 304 937 q 339 966 311 966 l 569 966 q 597 943 597 966 q 596 935 597 939 q 553 899 590 911 q 509 850 517 886 z "},"I":{"ha":468,"x_min":91,"x_max":597,"o":"m 508 850 l 335 97 q 332 79 332 87 q 346 56 332 61 q 384 18 384 41 q 382 12 384 15 q 349 -14 377 -14 l 119 -14 q 91 9 91 -14 q 92 17 91 13 q 134 53 98 41 q 179 101 171 64 l 353 855 q 355 872 355 865 q 342 897 355 891 q 304 934 304 910 q 305 941 304 937 q 339 966 311 966 l 568 966 q 597 943 597 966 q 596 935 597 939 q 553 899 590 911 q 508 850 517 887 z "},"J":{"ha":463,"x_min":-9,"x_max":594,"o":"m 337 120 q 271 -82 305 -15 q 180 -197 237 -149 q -9 -290 102 -262 l 4 -229 q 66 -186 39 -210 q 115 -123 94 -162 q 140 -47 129 -96 q 179 120 152 2 l 349 856 q 351 873 351 865 q 338 897 351 891 q 300 935 300 911 q 301 941 300 938 q 335 966 307 966 l 565 966 q 594 943 594 966 q 593 936 594 939 q 550 899 587 911 q 505 851 513 887 l 337 120 z "},"K":{"ha":1008,"x_min":91,"x_max":1120,"o":"m 438 545 l 833 851 q 941 937 897 901 q 1008 965 977 965 q 1040 956 1025 965 l 1105 921 q 1120 898 1120 911 q 1119 891 1120 895 q 1113 879 1118 886 l 1048 767 l 989 794 q 951 803 970 803 q 896 781 923 803 l 570 522 l 964 60 q 984 43 973 49 q 1004 17 1004 32 l 1004 13 q 970 -14 998 -14 l 741 -14 q 712 9 712 -14 q 713 18 712 13 q 728 37 715 26 q 741 47 739 44 l 741 47 q 727 68 741 52 l 413 435 l 335 96 q 332 79 332 87 q 346 56 332 61 q 384 18 384 41 q 382 12 384 15 q 349 -14 377 -14 l 119 -14 q 91 9 91 -14 q 92 17 91 13 q 134 53 98 41 q 179 101 171 64 l 353 855 q 355 872 355 865 q 341 896 355 890 q 304 934 304 911 q 305 941 304 937 q 339 966 311 966 l 569 966 q 597 943 597 966 q 596 935 597 939 q 553 899 590 911 q 509 850 517 886 l 438 545 z "},"L":{"ha":848,"x_min":91,"x_max":852,"o":"m 331 77 l 600 77 q 708 123 656 77 q 789 197 760 170 q 824 216 810 216 q 852 193 852 216 q 852 186 852 190 q 846 170 849 176 l 752 -14 l 119 -14 q 91 9 91 -14 q 92 17 91 13 q 134 53 98 41 q 179 101 171 64 l 353 855 q 355 872 355 865 q 341 896 355 890 q 304 934 304 911 q 305 941 304 937 q 339 966 311 966 l 569 966 q 597 943 597 966 q 596 935 597 939 q 553 899 590 911 q 509 850 517 886 l 331 77 z "},"M":{"ha":1294,"x_min":77,"x_max":1453,"o":"m 1364 850 l 1191 96 q 1188 79 1188 87 q 1202 56 1188 61 q 1240 18 1240 41 q 1239 12 1240 15 q 1205 -14 1234 -14 l 975 -14 q 947 9 947 -14 q 947 17 947 13 q 990 53 954 41 q 1036 102 1027 64 l 1184 747 l 643 -34 l 592 -34 l 408 721 l 264 96 q 261 79 261 87 q 275 56 261 61 q 313 18 313 41 q 311 12 313 15 q 277 -14 306 -14 l 105 -14 q 77 9 77 -14 q 77 17 77 13 q 120 53 83 41 q 165 101 157 64 l 338 855 q 341 872 341 865 q 327 896 341 890 q 290 934 290 911 q 291 941 290 937 q 325 966 296 966 l 519 966 l 708 229 l 1226 966 l 1425 966 q 1453 943 1453 966 q 1453 935 1453 939 q 1410 899 1447 911 q 1364 850 1373 886 z "},"N":{"ha":1115,"x_min":77,"x_max":1296,"o":"m 954 182 l 1108 855 q 1111 872 1111 865 q 1097 896 1111 890 q 1060 934 1060 911 q 1061 941 1060 937 q 1095 966 1067 966 l 1267 966 q 1296 943 1296 966 q 1295 935 1296 939 q 1253 899 1289 911 q 1208 850 1216 886 l 1000 -47 l 861 -11 l 417 762 l 264 96 q 261 79 261 87 q 275 56 261 61 q 313 18 313 41 q 311 12 313 15 q 277 -14 306 -14 l 105 -14 q 77 9 77 -14 q 77 17 77 13 q 120 53 83 41 q 165 101 157 64 l 338 855 q 341 872 341 865 q 327 896 341 890 q 290 934 290 911 q 291 941 290 937 q 325 966 296 966 l 510 966 l 954 182 z "},"O":{"ha":1092,"x_min":106,"x_max":1215,"o":"m 761 907 q 452 780 561 907 q 301 474 342 654 q 286 349 286 408 q 332 168 286 248 q 555 45 400 46 l 559 45 q 844 178 713 45 q 1013 474 976 312 l 1014 478 q 1029 609 1029 547 q 998 779 1029 699 q 761 907 947 907 m 774 994 l 781 994 q 1133 854 1009 994 q 1215 631 1215 762 q 1200 513 1215 576 q 1190 475 1196 494 q 940 106 1121 238 q 542 -37 758 -25 q 510 -38 526 -38 q 193 98 313 -38 q 106 334 106 195 q 120 456 106 392 q 127 481 124 469 q 366 854 189 716 q 774 994 543 991 z "},"P":{"ha":839,"x_min":77,"x_max":987,"o":"m 321 96 q 318 79 318 87 q 332 56 318 61 q 370 18 370 41 q 368 12 370 15 q 335 -14 363 -14 l 105 -14 q 77 9 77 -14 q 77 17 77 13 q 119 53 83 41 q 163 101 155 64 l 338 855 q 341 872 341 865 q 327 896 341 890 q 290 934 290 911 q 291 941 290 937 q 325 966 296 966 l 725 966 q 874 939 798 966 q 977 835 949 912 q 987 767 987 804 q 978 690 987 731 q 899 547 958 611 q 770 466 847 492 q 634 439 693 439 l 399 439 l 321 96 m 502 882 l 416 513 l 553 513 q 646 526 597 513 q 734 571 694 539 q 814 703 796 621 q 821 748 821 726 q 793 831 821 795 q 659 882 751 882 l 502 882 z "},"Q":{"ha":1092,"x_min":106,"x_max":1215,"o":"m 761 907 q 452 780 561 907 q 301 474 342 654 q 286 349 286 408 q 332 168 286 248 q 555 45 400 46 l 559 45 q 844 178 713 45 q 1013 474 976 312 l 1014 478 q 1029 609 1029 547 q 998 779 1029 699 q 761 907 947 907 m 416 -31 q 171 125 274 -17 q 106 336 106 216 q 120 456 106 393 q 127 481 124 469 q 366 854 189 716 q 774 994 543 991 l 781 994 q 1133 854 1009 994 q 1215 631 1215 762 q 1200 513 1215 576 q 1190 475 1196 494 q 955 117 1124 248 q 635 -29 785 -14 q 633 -28 634 -28 l 633 -29 l 663 -45 q 856 -111 791 -111 q 949 -92 876 -111 l 934 -154 q 812 -231 854 -194 q 713 -211 755 -224 q 598 -163 670 -197 q 435 -109 477 -109 q 412 -115 427 -109 q 298 -176 393 -121 l 317 -96 q 416 -31 407 -37 z "},"R":{"ha":928,"x_min":77,"x_max":987,"o":"m 883 56 q 915 44 892 46 q 947 19 947 40 q 945 12 947 15 l 945 11 q 911 -14 935 -14 l 730 -14 q 682 44 712 -14 q 616 174 652 101 q 543 324 581 248 q 483 439 505 400 l 399 439 l 321 96 q 318 79 318 87 q 332 56 318 61 q 370 18 370 41 q 368 12 370 15 q 335 -14 363 -14 l 105 -14 q 77 9 77 -14 q 77 17 77 13 q 120 53 83 41 q 165 101 157 64 l 338 855 q 341 872 341 865 q 327 896 341 890 q 290 934 290 911 q 291 941 290 937 q 325 966 296 966 l 725 966 q 874 939 798 966 q 977 835 949 912 q 987 767 987 804 q 978 690 987 731 q 899 547 958 611 q 781 470 851 496 q 677 441 711 443 l 883 56 m 502 882 l 416 513 l 553 513 q 646 526 597 513 q 734 571 694 539 q 814 703 796 621 q 821 748 821 726 q 793 831 821 795 q 659 882 751 882 l 502 882 z "},"S":{"ha":729,"x_min":69,"x_max":876,"o":"m 370 51 q 475 78 422 54 q 568 148 528 102 q 625 265 609 197 l 627 273 q 631 307 631 291 q 600 379 631 352 q 551 405 582 395 q 411 432 486 424 q 275 475 337 441 q 197 568 215 507 q 187 631 187 598 q 194 692 187 661 q 336 909 224 825 q 597 996 452 996 l 618 996 q 876 911 773 989 l 823 762 q 791 739 816 739 l 788 739 q 760 770 765 741 q 704 866 746 827 q 606 908 662 905 l 595 908 q 487 887 537 908 q 432 854 454 872 q 393 810 411 836 q 365 760 377 789 q 351 721 355 739 q 347 688 347 703 q 348 675 347 682 q 376 613 351 634 q 420 590 395 596 q 459 581 436 585 q 507 573 481 577 q 586 560 544 567 q 668 541 629 553 q 764 477 736 517 q 792 412 784 447 q 795 372 795 393 q 788 309 795 342 q 608 60 753 159 q 451 -17 534 7 q 313 -39 385 -37 q 283 -40 298 -40 q 94 -9 186 -40 l 69 178 l 69 187 q 81 207 73 198 q 113 222 93 222 q 140 191 132 216 q 212 74 160 102 q 334 50 256 50 q 370 51 351 50 z "},"T":{"ha":851,"x_min":191,"x_max":1054,"o":"m 1021 776 q 986 750 1015 750 q 951 786 968 750 q 911 853 927 831 q 865 876 896 876 l 709 876 l 529 96 q 526 79 526 87 q 539 56 526 60 q 577 17 577 40 l 577 12 q 543 -14 570 -14 l 313 -14 q 285 9 285 -14 q 286 16 285 12 q 328 52 291 40 q 374 102 365 64 l 552 876 l 399 876 q 337 852 366 876 q 264 783 309 829 q 220 750 234 750 q 191 773 191 750 q 192 781 191 777 l 221 905 q 250 959 231 948 q 327 969 269 969 l 967 969 q 1044 958 1029 969 q 1054 934 1054 951 q 1050 901 1054 921 l 1021 776 z "},"U":{"ha":1054,"x_min":210,"x_max":1224,"o":"m 234 401 l 338 856 q 341 873 341 865 q 328 897 341 891 q 290 934 290 910 q 291 941 290 937 q 325 966 296 966 l 555 966 q 583 943 583 966 q 582 935 583 939 q 540 899 576 910 q 496 852 505 888 l 412 487 q 376 304 388 383 q 372 241 372 271 q 380 173 372 203 q 440 98 393 123 q 583 72 486 72 q 843 205 751 72 q 953 491 910 303 l 1037 855 q 1040 872 1040 865 q 1025 896 1040 890 q 988 934 988 911 q 989 941 988 937 q 1023 966 995 966 l 1196 966 q 1224 943 1224 966 q 1223 935 1224 939 q 1181 899 1217 911 q 1137 850 1145 886 l 1032 396 q 969 209 1007 294 q 868 64 931 123 q 563 -40 753 -40 q 363 -17 444 -40 q 243 68 282 6 q 210 214 210 121 q 234 401 210 293 z "},"V":{"ha":1003,"x_min":239,"x_max":1191,"o":"m 481 859 l 591 161 l 1020 758 q 1034 785 1031 773 q 1035 793 1035 789 q 1034 800 1035 797 q 1007 851 1026 820 l 977 899 l 1086 970 q 1109 978 1096 978 q 1137 965 1124 978 l 1180 907 q 1191 872 1191 892 q 1189 854 1191 863 q 1175 819 1185 838 q 1100 704 1147 770 l 608 16 q 592 -5 600 3 q 568 -14 580 -14 l 466 -14 q 441 0 448 -14 q 436 18 439 3 q 433 39 434 33 l 341 751 q 325 851 331 823 q 301 889 320 872 q 275 904 288 898 q 252 918 261 911 q 240 936 241 925 q 239 942 239 939 l 239 945 q 245 956 241 952 q 268 966 254 966 l 498 966 q 522 957 511 966 q 531 943 530 947 q 532 936 532 942 q 531 929 532 930 q 516 911 529 921 q 498 899 507 905 q 484 884 490 892 q 480 874 481 880 q 479 868 479 871 q 481 859 479 864 z "},"W":{"ha":1389,"x_min":211,"x_max":1591,"o":"m 452 859 l 563 161 l 779 461 l 741 751 q 732 810 736 786 q 725 851 728 834 q 701 889 720 872 q 675 904 688 898 q 652 919 661 911 q 640 937 644 924 q 641 946 640 943 q 645 956 642 951 q 668 966 652 966 l 898 966 q 921 957 911 966 q 931 943 930 949 q 932 936 932 942 q 931 929 932 930 q 916 911 929 921 q 898 899 907 905 q 884 884 890 892 q 880 874 882 880 q 880 868 880 871 q 881 859 880 864 l 914 650 l 991 758 q 1004 785 1002 772 q 1006 794 1006 790 q 1005 800 1006 798 q 979 851 997 820 l 947 899 l 1057 970 q 1080 978 1067 978 q 1108 965 1095 978 l 1152 907 q 1162 872 1162 892 q 1160 854 1162 863 q 1147 819 1156 838 q 1072 704 1118 770 l 936 514 l 991 161 l 1420 758 q 1433 785 1431 772 q 1435 794 1435 790 q 1434 800 1435 798 q 1407 851 1426 820 l 1376 899 l 1485 970 q 1508 978 1495 978 q 1537 965 1524 978 l 1580 907 q 1591 872 1591 892 q 1589 854 1591 863 q 1575 819 1585 838 q 1500 704 1547 770 l 1008 16 q 991 -5 1000 1 q 968 -14 982 -14 l 866 -14 q 841 -1 846 -14 q 836 18 838 2 q 833 39 834 33 l 798 319 l 580 16 q 563 -5 572 1 q 539 -14 553 -14 l 437 -14 q 412 -1 417 -14 q 408 18 410 2 q 405 39 406 33 l 296 852 q 273 889 294 871 q 246 904 260 898 q 223 919 233 911 q 211 937 215 924 q 212 946 211 943 q 216 956 213 951 q 239 966 223 966 l 469 966 q 494 957 482 966 q 503 943 502 947 q 504 936 504 942 q 503 929 504 930 q 488 911 500 921 q 470 899 478 905 q 456 884 461 892 q 452 874 453 880 q 451 868 451 871 q 452 859 451 864 z "},"X":{"ha":926,"x_min":8,"x_max":1133,"o":"m 254 52 l 254 25 q 238 0 251 13 q 208 -14 226 -14 l 33 -14 q 8 6 8 -14 l 10 10 q 45 40 13 27 l 84 54 q 168 107 136 75 l 515 476 l 359 849 q 296 903 345 883 q 267 916 278 909 q 250 943 250 928 l 250 947 l 251 951 q 275 966 256 966 l 505 966 q 536 949 526 966 q 543 932 543 939 l 543 929 q 533 913 541 920 q 519 900 526 906 q 510 888 512 894 l 509 884 q 508 878 508 881 q 512 861 508 869 l 625 592 l 845 825 q 951 930 907 890 q 1031 970 996 970 q 1050 966 1042 970 l 1114 945 q 1133 923 1133 937 l 1133 920 q 1128 905 1130 911 l 1066 777 l 1010 791 q 957 800 977 799 l 956 800 q 918 774 942 800 l 663 501 l 830 103 q 895 48 842 73 q 920 36 911 41 q 941 9 941 21 l 941 6 q 915 -14 936 -14 l 685 -14 q 662 -7 673 -14 q 646 16 646 4 q 647 24 646 22 q 663 45 648 31 q 680 65 678 60 l 681 68 q 682 77 682 72 q 680 92 682 84 l 555 385 l 281 92 q 254 52 258 66 z "},"Y":{"ha":926,"x_min":233,"x_max":1057,"o":"m 489 455 l 343 849 q 307 888 335 869 q 276 904 292 897 q 250 918 260 910 q 235 935 239 924 q 233 943 233 939 l 233 947 l 235 951 q 258 966 239 966 l 488 966 q 512 958 502 966 q 526 942 521 951 q 527 933 527 937 l 527 930 q 516 912 524 920 q 502 900 509 906 q 494 888 496 894 l 493 884 q 492 878 492 881 q 496 861 492 870 l 631 524 l 848 770 q 881 818 873 798 q 882 823 882 820 q 884 836 884 829 q 879 871 884 851 l 864 927 l 982 974 q 999 977 991 977 q 1029 957 1020 977 l 1054 888 q 1057 869 1057 879 q 1056 856 1057 863 q 1017 802 1049 829 q 920 707 973 765 l 679 444 q 653 396 665 428 q 636 335 642 364 l 581 96 q 578 79 578 87 q 592 56 578 61 q 630 18 630 41 q 629 12 630 15 q 595 -14 623 -14 l 365 -14 q 336 9 336 -14 q 337 17 336 13 q 380 53 343 41 q 425 101 416 64 l 491 391 q 495 421 495 407 q 489 455 495 439 z "},"Z":{"ha":926,"x_min":7,"x_max":1124,"o":"m 29 50 l 862 876 l 485 876 q 423 852 451 876 q 351 783 395 829 q 305 750 320 750 q 277 773 277 750 q 277 781 277 777 l 307 905 q 336 959 316 948 q 412 969 356 969 l 1039 969 q 1118 951 1103 969 q 1124 937 1124 945 q 1123 929 1124 933 q 1103 895 1120 916 l 267 80 l 760 81 q 822 104 794 81 q 895 174 850 127 q 939 205 925 205 q 968 182 968 205 q 967 175 968 179 l 939 50 q 910 -4 928 5 q 833 -14 893 -14 l 106 -14 q 25 -7 46 -14 q 7 14 7 -1 q 8 20 7 18 q 29 50 11 31 z "},"[":{"ha":463,"x_min":69,"x_max":583,"o":"m 270 -235 q 296 -259 296 -235 q 294 -270 296 -264 q 265 -298 288 -298 l 98 -298 q 69 -276 69 -298 q 70 -269 69 -273 l 357 976 q 393 1008 364 1008 l 560 1008 q 583 986 583 1008 q 581 973 583 980 q 548 942 574 942 l 464 942 l 192 -235 l 270 -235 z "},"\\":{"ha":694,"x_min":212,"x_max":682,"o":"m 682 -61 l 551 -61 l 212 1013 l 342 1013 l 682 -61 z "},"]":{"ha":463,"x_min":69,"x_max":583,"o":"m 103 -235 l 188 -235 l 460 942 l 381 942 q 356 965 356 942 q 357 977 356 971 q 387 1008 364 1008 l 555 1008 q 583 982 583 1008 q 582 972 583 978 q 516 691 555 857 q 437 349 477 525 l 358 7 q 294 -274 320 -159 q 260 -298 288 -298 l 92 -298 q 69 -277 69 -298 q 71 -264 69 -271 q 103 -235 77 -235 z "},"^":{"ha":694,"x_min":224,"x_max":776,"o":"m 540 983 l 634 983 l 776 605 l 704 605 l 562 864 l 300 605 l 224 605 l 540 983 z "},"_":{"ha":694,"x_min":-73,"x_max":679,"o":"m -48 -134 l 679 -134 l 654 -241 l -73 -241 l -48 -134 z "},"`":{"ha":694,"x_min":351,"x_max":645,"o":"m 563 739 l 388 867 q 362 892 374 877 q 351 922 351 905 q 353 936 351 928 q 399 989 363 974 q 431 995 416 995 q 468 983 451 995 q 518 925 485 972 q 564 862 552 879 l 627 778 q 645 739 645 752 l 645 736 q 625 719 640 720 q 616 718 622 718 q 563 739 593 718 z "},"a":{"ha":783,"x_min":81,"x_max":824,"o":"m 532 37 l 358 -22 q 314 -31 332 -31 l 286 -31 q 123 55 181 -25 q 81 196 81 115 q 84 245 81 220 q 95 301 88 274 q 115 370 103 336 q 189 490 138 431 q 267 555 214 521 q 309 575 286 566 q 427 616 369 596 q 546 657 486 636 q 575 662 562 662 l 579 662 q 685 639 625 660 q 695 635 694 635 q 725 623 705 630 q 734 621 730 621 q 743 624 739 621 q 766 642 759 635 q 789 652 774 652 q 803 650 796 652 q 824 626 824 641 l 824 623 l 703 96 q 701 79 701 87 q 714 56 701 61 q 752 18 752 41 q 751 12 752 15 q 717 -14 745 -14 l 552 -14 q 526 6 526 -14 l 526 10 l 532 37 m 644 519 q 590 558 627 538 q 523 579 553 578 l 521 579 q 499 575 511 579 q 447 557 473 566 q 394 539 420 548 q 368 525 378 533 q 290 420 318 481 q 258 328 268 374 q 252 298 254 313 q 248 240 248 267 q 267 145 248 184 q 353 71 295 88 q 397 64 374 64 q 413 65 404 64 q 446 73 425 66 q 498 91 462 78 q 549 109 534 103 l 644 519 z "},"b":{"ha":772,"x_min":95,"x_max":838,"o":"m 275 112 q 328 72 291 92 q 395 52 364 52 l 399 52 q 419 56 407 52 q 473 74 447 65 q 525 92 498 82 q 551 106 538 96 q 628 210 600 149 q 661 306 650 258 q 667 334 664 320 q 671 391 671 363 q 652 486 671 446 q 566 559 623 542 q 519 566 543 566 q 506 566 512 566 q 473 558 492 564 q 420 540 456 552 q 370 523 384 528 l 275 112 m 224 -5 q 193 8 212 1 q 184 9 189 9 q 176 7 180 9 q 152 -12 159 -5 q 130 -21 143 -21 q 115 -18 121 -21 q 95 5 95 -9 l 95 9 l 290 855 q 292 872 292 865 q 278 896 292 890 q 241 934 241 911 q 242 941 241 937 q 275 966 248 966 q 364 979 319 968 q 484 1014 409 990 l 387 594 l 561 654 q 604 663 584 661 q 618 662 611 663 q 633 662 625 662 q 795 576 738 656 q 838 432 838 514 q 834 386 838 410 q 824 330 830 357 q 803 260 815 294 q 730 141 781 199 q 651 75 701 107 q 610 56 631 63 q 491 15 550 35 q 373 -26 432 -5 q 342 -31 355 -31 l 339 -31 q 233 -8 294 -28 q 224 -5 227 -6 z "},"c":{"ha":627,"x_min":94,"x_max":749,"o":"m 526 662 l 541 662 q 749 593 658 662 l 708 471 q 681 452 701 452 l 677 452 q 653 477 658 454 q 608 554 641 531 q 519 576 575 576 l 503 576 q 389 538 435 573 q 320 456 348 505 q 279 349 293 409 q 272 309 275 330 q 267 246 267 276 q 287 150 267 191 q 394 62 328 73 q 416 60 404 60 q 552 99 473 60 q 618 122 600 122 q 635 117 629 122 q 640 104 640 111 l 640 100 q 624 69 637 89 q 589 33 608 47 q 477 -17 540 -3 q 362 -31 415 -31 q 154 45 228 -30 q 94 201 94 104 q 98 254 94 226 q 109 313 102 284 q 131 385 118 350 q 207 509 154 448 q 345 616 262 574 q 526 662 428 658 z "},"d":{"ha":835,"x_min":94,"x_max":928,"o":"m 545 37 l 372 -22 q 328 -31 345 -31 l 299 -31 q 137 55 195 -25 q 94 196 94 115 q 98 245 94 220 q 109 301 102 274 q 129 370 117 336 q 202 490 151 431 q 281 555 228 521 q 322 575 300 566 q 441 616 382 596 q 559 657 499 636 q 589 662 575 662 l 593 662 q 699 639 639 660 q 701 638 700 638 q 701 639 701 638 q 688 655 701 642 l 734 855 q 736 872 736 865 q 722 896 736 890 q 685 934 685 911 q 686 941 685 937 q 720 966 692 966 q 808 979 763 968 q 928 1014 853 990 l 717 96 q 714 79 714 87 q 728 56 714 61 q 766 18 766 41 q 764 12 766 15 q 730 -14 759 -14 l 566 -14 q 539 6 539 -14 l 539 10 l 545 37 m 657 519 q 602 559 638 540 q 536 579 566 578 l 534 579 q 513 575 524 579 q 460 557 486 566 q 408 539 434 548 q 382 525 392 533 q 304 420 332 481 q 271 328 281 374 q 266 298 268 313 q 261 240 261 267 q 281 145 261 184 q 366 71 309 88 q 410 64 387 64 q 427 65 418 64 q 460 73 439 66 q 511 91 475 78 q 562 109 547 103 l 657 519 z "},"e":{"ha":678,"x_min":77,"x_max":747,"o":"m 347 -31 q 100 98 151 -31 q 77 214 77 153 q 87 302 77 257 q 111 378 96 339 q 262 587 163 511 q 500 662 361 662 q 747 466 747 662 q 735 371 747 423 q 722 327 728 343 q 677 311 716 311 l 262 311 q 254 235 254 275 q 277 130 254 174 q 414 60 315 60 q 471 67 439 60 q 554 97 504 74 q 619 120 601 120 q 639 113 629 120 q 642 102 642 106 l 642 98 q 625 67 640 85 q 605 43 612 50 q 593 33 598 37 q 470 -19 534 -8 q 347 -31 405 -31 m 279 387 l 600 387 q 609 466 609 428 q 594 534 609 509 q 487 576 568 576 q 350 519 404 576 q 279 387 297 461 z "},"f":{"ha":463,"x_min":58,"x_max":698,"o":"m 441 694 l 432 657 l 574 660 l 574 660 q 599 637 599 660 q 597 626 599 632 q 589 602 595 616 q 534 560 570 560 l 410 561 l 303 96 q 300 79 300 87 q 314 56 300 61 q 352 18 352 41 q 351 12 352 15 q 317 -14 345 -14 l 87 -14 q 58 9 58 -14 q 59 17 58 13 q 102 53 65 41 q 146 101 138 64 l 252 559 q 195 556 248 559 l 191 556 q 163 579 163 556 q 164 585 163 583 l 164 586 q 191 614 169 604 q 253 642 205 620 q 276 652 264 648 q 278 654 278 653 q 274 654 278 654 l 284 699 q 334 842 304 786 q 379 903 353 878 q 416 925 392 917 l 603 989 q 633 994 612 992 l 636 994 q 674 981 658 994 q 696 952 692 966 q 698 941 698 947 q 696 926 698 935 q 692 913 694 920 q 662 869 682 873 l 657 869 q 626 883 642 869 q 578 900 604 900 q 546 894 563 900 q 471 810 491 872 q 455 755 462 785 q 441 694 448 725 z "},"g":{"ha":748,"x_min":-2,"x_max":824,"o":"m 557 149 l 644 519 q 590 558 627 538 q 523 579 553 578 l 521 579 q 499 575 511 579 q 447 557 473 566 q 394 539 420 548 q 368 525 378 533 q 290 420 318 481 q 258 328 268 374 q 252 298 254 313 q 248 240 248 267 q 267 145 248 184 q 353 71 295 88 q 397 64 374 64 q 413 65 404 64 q 446 73 425 66 q 497 90 462 78 q 547 108 533 102 l 557 149 l 557 149 m 531 37 l 358 -22 q 314 -31 332 -31 l 286 -31 q 123 55 181 -25 q 81 196 81 115 q 84 245 81 220 q 95 301 88 274 q 115 370 103 336 q 189 490 138 431 q 267 555 214 521 q 309 575 286 566 q 427 616 369 596 q 546 657 486 636 q 575 662 562 662 l 579 662 q 685 639 625 660 q 695 635 694 635 q 725 623 705 630 q 734 621 730 621 q 743 624 739 621 q 766 642 759 635 q 789 652 774 652 q 803 650 796 652 q 824 626 824 641 l 824 623 l 652 -124 q 583 -271 625 -241 q 475 -323 541 -301 l 272 -393 q 229 -402 246 -402 q 199 -401 210 -402 q 38 -316 96 -397 q -2 -205 9 -273 q 163 -149 74 -178 q 182 -226 169 -199 q 267 -300 210 -283 q 310 -306 288 -306 q 327 -305 319 -306 q 359 -298 340 -304 q 382 -290 368 -295 q 411 -280 396 -286 q 463 -220 441 -267 q 486 -159 484 -174 l 531 37 z "},"h":{"ha":819,"x_min":41,"x_max":819,"o":"m 286 96 q 283 79 283 87 q 296 56 283 61 q 334 18 334 41 q 333 12 334 15 q 300 -14 328 -14 l 70 -14 q 41 9 41 -14 q 42 17 41 13 q 85 53 48 41 q 130 101 121 64 l 303 855 q 306 872 306 865 q 292 896 306 890 q 254 934 254 911 q 256 941 254 937 q 289 966 261 966 q 377 979 332 968 q 497 1014 422 990 l 401 601 q 444 616 413 605 q 503 636 475 627 q 644 665 573 659 q 663 666 653 666 q 775 623 727 666 q 819 490 819 582 q 799 341 819 428 l 743 96 q 740 79 740 87 q 753 56 740 61 q 791 18 791 41 q 790 12 791 15 q 757 -14 785 -14 l 592 -14 q 566 6 566 -14 l 566 10 l 643 345 q 657 452 657 406 q 632 545 657 513 q 559 577 606 577 q 491 565 530 577 q 450 552 475 560 q 407 536 426 543 q 385 529 390 531 l 286 96 z "},"i":{"ha":402,"x_min":62,"x_max":501,"o":"m 424 963 q 501 900 501 963 q 498 872 501 888 q 389 786 477 786 q 313 848 313 786 q 316 877 313 862 q 424 963 336 963 m 306 96 q 303 79 303 87 q 317 56 303 61 q 355 18 355 41 q 353 12 355 15 q 320 -14 348 -14 l 90 -14 q 62 9 62 -14 q 62 17 62 13 q 105 53 68 41 q 150 101 142 64 l 250 536 q 252 552 252 545 q 238 576 252 570 q 201 614 201 591 q 202 621 201 617 q 235 646 208 646 q 324 659 279 648 q 444 694 369 671 l 306 96 z "},"j":{"ha":330,"x_min":-96,"x_max":468,"o":"m 390 963 q 468 900 468 963 q 465 872 468 887 q 355 786 444 786 q 279 848 279 786 q 282 877 279 862 q 390 963 302 963 m 252 6 q 185 -196 219 -129 q 95 -311 152 -263 q -96 -404 14 -378 l -81 -342 q 30 -237 -6 -303 q 55 -161 43 -211 q 94 6 66 -112 l 216 536 q 218 552 218 545 q 204 576 218 570 q 167 614 167 591 q 168 621 167 617 q 201 646 174 646 q 290 659 245 648 q 410 694 335 671 l 252 6 z "},"k":{"ha":789,"x_min":55,"x_max":840,"o":"m 344 293 l 299 96 q 296 79 296 87 q 310 56 296 61 q 348 18 348 41 q 347 12 348 15 q 313 -14 341 -14 l 83 -14 q 55 9 55 -14 q 56 17 55 13 q 98 53 62 41 q 143 101 135 64 l 317 855 q 319 872 319 865 q 305 896 319 890 q 268 934 268 911 q 269 941 268 937 q 302 966 275 966 q 391 979 346 968 q 511 1014 436 990 l 370 408 l 619 576 q 706 631 669 610 q 752 644 731 644 q 785 634 770 644 l 829 602 q 840 583 840 593 l 840 578 q 834 567 838 572 l 777 482 l 732 509 q 705 517 718 517 q 667 505 687 517 q 475 380 553 431 l 650 160 q 721 83 705 92 q 743 78 731 78 q 753 79 747 78 q 768 81 761 81 q 800 60 795 81 q 801 54 801 56 q 800 47 801 49 q 782 28 798 34 l 734 7 q 656 -9 691 -9 q 613 0 632 -9 q 538 58 569 19 l 350 295 q 352 298 352 297 q 344 293 351 298 z "},"l":{"ha":405,"x_min":55,"x_max":511,"o":"m 299 96 q 296 79 296 87 q 310 56 296 61 q 348 18 348 41 q 347 12 348 15 q 313 -14 341 -14 l 83 -14 q 55 9 55 -14 q 56 17 55 13 q 98 53 62 41 q 143 101 135 64 l 317 855 q 319 872 319 865 q 305 896 319 890 q 268 934 268 911 q 269 941 268 937 q 302 966 275 966 q 391 979 346 968 q 511 1014 436 990 l 299 96 z "},"m":{"ha":1219,"x_min":52,"x_max":1200,"o":"m 413 605 q 446 616 418 607 q 499 635 474 626 q 640 664 569 657 q 659 665 649 665 q 771 621 723 665 q 789 602 787 605 q 833 617 806 608 q 885 635 861 626 q 1025 664 955 657 q 1044 665 1035 665 q 1156 621 1108 665 q 1200 488 1200 580 q 1181 340 1200 426 l 1124 95 q 1122 78 1122 85 q 1135 54 1122 60 q 1173 17 1173 39 q 1172 10 1173 14 q 1138 -15 1166 -15 l 973 -15 q 947 5 947 -15 l 947 9 l 1025 344 q 1039 450 1039 405 q 1014 544 1039 511 q 941 576 988 576 q 873 564 911 576 q 837 552 858 559 q 811 543 817 545 q 815 493 815 528 q 795 340 815 431 l 739 95 q 736 78 736 85 q 749 54 736 60 q 787 17 787 39 q 786 10 787 14 q 753 -15 781 -15 l 523 -15 q 494 8 494 -15 q 495 16 494 12 q 538 51 501 39 q 583 100 574 63 l 639 344 q 653 450 653 405 q 628 544 653 511 q 555 576 602 576 q 487 564 526 576 q 437 547 461 556 q 396 533 412 538 l 296 95 q 293 78 293 85 q 307 54 293 60 q 345 17 345 39 q 343 10 345 14 q 310 -15 338 -15 l 80 -15 q 52 8 52 -15 q 52 16 52 12 q 95 51 58 39 q 140 100 132 63 l 239 534 q 242 551 242 543 q 228 574 242 569 q 191 612 191 589 q 192 619 191 616 q 225 644 197 644 q 314 658 269 646 q 433 693 359 669 l 413 605 z "},"n":{"ha":808,"x_min":41,"x_max":819,"o":"m 401 601 q 444 616 413 605 q 503 636 475 627 q 644 665 573 659 q 663 666 653 666 q 775 623 727 666 q 819 490 819 582 q 799 341 819 428 l 743 96 q 740 79 740 87 q 753 56 740 61 q 791 18 791 41 q 790 12 791 15 q 757 -14 785 -14 l 592 -14 q 566 6 566 -14 l 566 10 l 643 345 q 657 452 657 406 q 632 545 657 513 q 559 577 606 577 q 491 565 530 577 q 450 552 475 560 q 407 536 426 543 q 385 529 390 531 l 286 96 q 283 79 283 87 q 296 56 283 61 q 334 18 334 41 q 333 12 334 15 q 300 -14 328 -14 l 70 -14 q 41 9 41 -14 q 42 17 41 13 q 85 53 48 41 q 130 101 121 64 l 229 536 q 232 552 232 545 q 218 576 232 570 q 180 614 180 591 q 182 621 180 617 q 215 646 187 646 q 303 659 258 648 q 423 694 349 671 l 401 601 z "},"o":{"ha":751,"x_min":88,"x_max":807,"o":"m 542 662 q 756 553 682 656 q 807 391 807 481 q 798 313 807 354 l 798 309 q 644 73 765 169 q 371 -31 519 -26 l 360 -31 q 144 73 220 -31 q 88 237 88 146 q 98 315 88 275 l 98 317 q 273 574 134 471 q 319 598 290 589 q 404 625 349 608 q 475 650 435 636 q 539 662 514 662 l 542 662 m 515 589 l 508 589 q 368 518 437 589 q 264 324 291 439 q 254 234 254 276 q 276 125 254 174 q 383 43 311 46 l 392 43 q 532 114 463 43 q 634 307 608 192 q 645 397 645 355 q 623 507 645 457 q 515 589 587 585 z "},"p":{"ha":812,"x_min":-29,"x_max":863,"o":"m 420 596 l 588 653 q 632 663 612 661 q 646 662 640 663 q 661 662 652 662 q 821 578 764 657 q 863 435 863 516 q 859 388 863 412 q 849 333 856 360 q 828 262 841 296 q 754 142 805 201 q 675 76 726 110 q 633 56 655 64 q 395 -25 503 11 q 365 -31 379 -31 l 361 -31 q 279 -16 319 -28 l 215 -292 q 214 -305 214 -299 q 239 -339 214 -330 q 264 -370 264 -349 q 263 -378 264 -374 q 227 -405 257 -405 l -3 -405 q -29 -386 -29 -405 q -28 -378 -29 -382 q 15 -339 -22 -351 q 59 -292 52 -327 l 250 533 q 251 546 251 540 q 227 579 251 570 q 201 610 201 589 q 201 618 201 614 q 239 646 208 646 q 326 659 281 648 q 443 693 371 671 l 420 596 m 307 107 q 360 70 326 88 q 424 52 395 52 l 428 52 q 447 56 435 52 q 499 73 473 64 q 552 92 526 82 q 576 105 566 96 q 652 208 624 146 q 686 301 675 254 q 691 331 689 316 q 696 388 696 361 q 675 484 696 444 q 588 559 646 542 q 542 566 566 566 q 528 566 534 566 q 496 558 515 564 q 449 542 480 553 q 404 527 418 532 l 307 107 z "},"q":{"ha":795,"x_min":94,"x_max":836,"o":"m 543 37 l 369 -22 q 325 -31 343 -31 l 296 -31 q 136 54 191 -25 q 94 195 94 114 q 98 243 94 218 q 108 300 102 272 q 128 368 116 335 q 202 488 151 429 q 281 555 231 522 q 324 575 301 567 q 443 616 385 596 q 561 656 502 636 q 592 662 578 662 l 595 662 q 702 639 642 660 q 704 638 703 638 q 719 637 705 637 l 718 631 q 741 623 722 629 q 748 621 745 621 q 755 623 752 621 q 777 641 770 634 q 803 652 788 652 q 816 650 810 652 q 836 629 836 642 q 835 624 836 627 l 623 -292 q 622 -305 622 -299 q 647 -339 622 -330 q 672 -370 672 -349 q 671 -378 672 -374 q 634 -405 665 -405 l 404 -405 q 378 -386 378 -405 q 379 -378 378 -382 q 422 -339 385 -351 q 467 -292 459 -327 l 543 37 m 654 518 q 600 558 636 538 q 532 579 563 578 l 530 579 q 511 575 521 579 q 457 557 484 566 q 404 539 431 548 q 380 526 391 534 q 304 423 332 484 q 271 330 281 376 q 265 300 267 315 q 260 243 260 269 q 281 147 260 186 q 368 71 309 89 q 413 64 390 64 q 428 65 421 64 q 461 73 441 66 q 512 90 477 78 q 559 106 547 102 l 654 518 z "},"r":{"ha":564,"x_min":68,"x_max":701,"o":"m 383 401 l 313 96 q 311 79 311 87 q 325 56 311 61 q 361 18 361 41 q 360 12 361 15 q 327 -14 355 -14 l 97 -14 q 68 9 68 -14 q 69 17 68 13 q 112 53 75 41 q 157 101 149 64 l 256 536 q 259 552 259 545 q 245 576 259 570 q 208 614 208 591 q 209 621 208 617 q 242 646 214 646 q 331 659 286 648 q 451 694 376 671 l 431 606 l 504 631 q 593 661 561 652 q 621 665 606 665 q 701 645 650 665 l 640 454 l 579 454 q 517 553 576 553 q 504 552 510 553 q 429 505 459 547 q 383 401 399 462 z "},"s":{"ha":600,"x_min":71,"x_max":676,"o":"m 484 663 q 676 593 587 657 l 631 467 q 602 447 625 447 l 600 447 q 572 475 578 449 q 526 552 561 522 q 444 585 491 583 l 442 585 q 363 566 405 585 q 304 507 321 546 q 296 481 298 492 q 294 465 294 473 q 312 433 294 444 q 410 397 353 410 q 561 342 495 376 q 619 235 619 313 q 615 190 619 214 l 614 183 q 548 77 601 130 q 401 -10 490 19 q 281 -29 345 -27 l 262 -29 q 92 -3 176 -29 l 71 157 l 76 172 q 107 193 83 193 l 111 193 q 136 165 129 189 q 184 78 151 102 q 281 51 218 53 l 289 51 q 393 72 334 51 q 469 151 453 94 l 470 155 q 473 180 473 168 q 432 232 473 220 q 315 268 365 252 q 195 330 249 288 q 155 417 155 363 q 159 458 155 437 l 160 461 q 284 621 187 572 q 466 664 372 664 q 484 663 475 664 z "},"t":{"ha":463,"x_min":153,"x_max":599,"o":"m 252 559 q 195 556 248 559 l 191 556 q 163 579 163 556 q 164 585 163 583 l 164 586 q 191 614 169 604 q 253 642 205 620 q 276 652 264 648 q 278 654 278 653 q 274 654 278 654 l 298 759 q 327 813 307 798 q 404 853 347 828 q 444 863 429 863 q 473 839 473 863 q 472 830 473 835 l 432 657 l 574 660 l 574 660 q 599 637 599 660 q 597 626 599 632 q 589 602 595 616 q 534 560 570 560 l 410 561 l 315 147 q 311 117 311 130 q 332 66 311 84 q 406 33 363 39 l 393 -13 q 209 7 276 -13 q 153 97 153 23 q 163 172 153 129 l 252 559 z "},"u":{"ha":840,"x_min":155,"x_max":883,"o":"m 745 96 q 743 79 743 87 q 756 56 743 61 q 794 18 794 41 q 793 12 794 15 q 759 -14 787 -14 l 594 -14 q 568 6 568 -14 l 568 10 l 572 31 q 529 15 561 26 q 471 -5 498 3 q 331 -33 401 -26 q 311 -34 320 -34 q 199 9 247 -34 q 155 141 155 50 q 175 290 155 203 l 231 536 q 234 552 234 545 q 220 576 234 570 q 182 614 182 591 q 184 621 182 617 q 217 646 189 646 q 306 659 260 648 q 426 694 351 671 l 332 286 q 317 179 317 224 q 342 87 317 118 q 416 54 368 54 q 484 66 445 54 q 524 80 499 71 q 566 94 549 88 q 578 98 570 96 q 589 102 587 101 l 688 536 q 691 552 691 545 q 677 576 691 570 q 640 614 640 591 q 641 621 640 617 q 674 646 646 646 q 763 659 718 648 q 883 694 808 671 l 745 96 z "},"v":{"ha":703,"x_min":148,"x_max":816,"o":"m 384 547 l 454 156 l 672 492 q 682 516 680 505 q 684 528 684 522 q 675 555 684 541 l 654 590 l 735 645 q 755 652 744 652 q 779 641 768 652 l 807 602 q 816 576 816 590 q 814 563 816 569 q 804 537 812 551 q 754 460 785 504 l 438 -5 q 427 -18 433 -13 q 406 -26 417 -26 l 349 -26 q 327 -14 333 -26 q 323 -1 325 -11 q 321 14 321 9 l 222 541 q 203 574 217 562 q 180 587 193 581 q 159 601 167 593 q 148 618 152 606 l 148 625 q 152 635 150 631 q 175 645 160 645 l 397 645 q 420 637 408 645 q 430 621 427 629 l 430 614 q 414 593 427 603 q 387 570 389 575 q 384 561 385 566 q 383 555 383 558 q 384 547 383 551 z "},"w":{"ha":1117,"x_min":148,"x_max":1230,"o":"m 798 547 l 868 156 l 1086 492 q 1097 516 1094 505 q 1098 528 1098 522 q 1090 555 1098 541 l 1068 590 l 1149 645 q 1169 652 1158 652 q 1193 641 1182 652 l 1221 602 q 1230 576 1230 590 q 1229 563 1230 569 q 1219 537 1226 551 q 1168 460 1200 504 l 852 -5 q 842 -18 847 -13 q 821 -26 831 -26 l 764 -26 q 741 -14 747 -26 q 738 -1 739 -11 q 735 12 736 9 l 673 341 l 438 -5 q 427 -18 433 -13 q 406 -26 417 -26 l 349 -26 q 327 -14 333 -26 q 323 -1 325 -11 q 321 14 321 9 l 222 541 q 203 574 217 562 q 180 587 193 581 q 159 601 167 593 q 148 618 152 606 l 148 625 q 152 635 150 631 q 175 645 160 645 l 397 645 q 420 637 408 645 q 430 621 427 629 l 430 614 q 414 593 427 603 q 387 570 389 575 q 384 561 385 566 q 383 555 383 558 q 384 547 383 551 l 454 156 l 651 460 l 636 541 q 618 574 631 562 q 594 587 607 581 q 574 601 581 593 q 562 619 562 608 l 562 625 q 566 635 564 631 q 589 645 574 645 l 812 645 q 834 637 822 645 q 844 621 842 629 l 844 614 q 829 593 842 603 q 802 570 804 575 q 798 561 799 566 q 798 555 798 558 q 798 547 798 551 z "},"x":{"ha":745,"x_min":0,"x_max":838,"o":"m 113 75 l 355 306 l 239 560 q 215 583 234 572 q 194 594 205 589 q 174 604 182 598 q 155 627 155 616 q 183 644 159 644 l 401 644 q 433 625 423 644 q 434 616 434 620 l 434 614 q 418 595 432 602 q 410 586 413 593 l 410 583 q 413 572 410 578 l 481 425 l 610 549 q 710 640 689 625 q 740 649 723 649 q 789 633 762 649 l 827 610 q 838 591 838 602 l 838 587 q 832 576 836 581 l 771 491 q 716 524 735 514 l 715 524 q 688 505 707 524 l 517 343 l 643 70 q 669 46 649 55 q 687 37 677 41 q 707 26 697 33 q 726 3 726 14 q 699 -14 723 -14 l 480 -14 q 449 5 459 -14 q 448 13 448 9 l 448 16 q 464 35 450 26 q 471 42 469 37 l 471 43 q 471 48 471 46 q 469 58 471 52 l 393 224 l 217 58 q 202 35 203 43 q 201 28 201 31 q 202 20 202 26 q 201 14 202 16 q 192 1 198 9 q 164 -14 180 -14 l 23 -14 q 0 3 0 -14 l 0 5 q 8 18 2 12 q 54 39 23 32 q 113 75 85 47 z "},"y":{"ha":703,"x_min":46,"x_max":816,"o":"m 222 541 q 203 574 217 562 q 170 592 190 583 q 148 618 151 601 l 148 627 q 175 645 152 645 l 397 645 q 429 623 425 645 q 431 616 431 621 q 429 610 431 612 q 406 589 426 597 q 387 570 395 583 q 384 561 385 566 q 383 555 383 558 q 384 547 383 551 l 454 156 l 672 492 q 682 516 680 505 q 684 528 684 522 q 675 555 684 541 l 654 590 l 735 645 q 755 652 744 652 q 779 641 768 652 l 807 602 q 816 576 816 590 q 814 563 816 569 q 804 537 812 551 q 754 460 785 504 l 245 -287 q 191 -363 215 -332 q 129 -397 163 -397 l 126 -397 l 71 -395 q 46 -372 46 -391 l 46 -368 l 62 -278 l 111 -277 q 171 -244 148 -276 l 326 -26 q 331 -23 331 -26 q 328 -16 331 -21 q 323 -1 325 -11 q 321 14 321 9 l 222 541 z "},"z":{"ha":691,"x_min":21,"x_max":803,"o":"m 783 588 l 248 67 l 505 67 q 560 89 534 68 q 624 149 586 109 q 665 177 652 177 q 691 156 691 177 q 690 149 691 153 l 666 42 q 642 -5 657 3 q 573 -14 626 -14 l 109 -14 q 37 -7 56 -14 q 21 12 21 -1 l 21 15 q 41 43 23 28 l 574 570 l 370 570 q 318 550 342 570 q 257 491 294 530 q 216 463 229 463 q 189 485 189 463 q 190 491 189 488 l 214 598 q 240 644 222 634 q 308 654 258 654 l 730 654 q 803 623 803 654 q 802 616 803 618 q 783 588 800 604 z "},"{":{"ha":694,"x_min":171,"x_max":800,"o":"m 202 402 q 174 418 180 404 q 171 431 171 424 q 172 439 171 435 q 176 447 173 443 q 210 470 183 467 q 354 516 309 478 q 394 577 378 537 q 418 654 410 616 l 452 798 q 486 902 463 848 q 551 988 509 956 q 762 1042 617 1042 q 795 1027 786 1042 q 800 1008 800 1017 q 799 1002 800 1006 q 760 981 793 981 q 642 948 677 979 q 603 889 618 928 q 581 814 589 850 l 559 718 q 525 603 546 665 q 469 504 503 541 q 363 435 413 444 q 435 363 406 426 q 448 297 448 336 q 446 262 448 281 q 427 149 439 202 l 405 52 q 393 -32 393 2 q 404 -79 393 -64 q 502 -109 423 -107 q 532 -132 527 -109 l 532 -135 q 530 -144 532 -139 q 522 -159 529 -151 q 489 -170 509 -170 q 298 -115 343 -170 q 272 -33 272 -83 l 272 -25 q 286 78 274 28 l 319 221 q 330 300 328 259 l 330 309 q 317 361 330 341 q 270 390 302 380 q 202 402 237 399 z "},"|":{"ha":694,"x_min":250,"x_max":654,"o":"m 524 1024 l 654 1024 l 380 -168 l 250 -168 l 524 1024 z "},"}":{"ha":694,"x_min":38,"x_max":666,"o":"m 626 402 q 550 389 589 399 q 484 358 510 379 q 442 294 458 334 q 418 217 426 254 l 385 74 q 350 -31 372 23 q 286 -117 327 -84 q 74 -170 217 -170 q 43 -157 51 -170 q 38 -142 38 -151 l 38 -138 q 43 -127 40 -132 q 76 -109 54 -109 q 195 -77 159 -107 q 255 56 233 -43 l 278 154 q 312 268 290 207 q 368 367 333 330 q 471 436 423 427 q 401 507 429 445 q 387 574 387 534 q 390 609 387 590 q 409 722 397 669 l 431 819 q 443 895 439 854 l 443 907 q 433 951 443 935 q 334 981 413 979 q 299 1002 299 981 l 299 1006 q 314 1030 301 1017 q 347 1042 324 1042 q 539 986 494 1042 q 564 905 564 955 l 564 897 q 551 793 562 843 l 517 650 q 507 571 509 612 q 506 562 506 566 q 518 512 506 530 q 635 470 541 478 q 666 441 666 466 l 664 433 q 653 414 662 422 q 626 402 643 404 z "},"~":{"ha":694,"x_min":101,"x_max":790,"o":"m 782 488 q 674 374 722 409 q 570 332 621 332 q 403 393 487 332 q 326 420 365 420 q 263 404 295 420 q 241 391 254 398 q 213 373 228 384 q 161 324 186 351 q 136 313 151 313 q 114 319 124 313 q 101 340 101 327 q 102 346 101 342 q 113 366 104 355 q 204 470 157 415 q 330 524 252 524 q 501 461 422 524 q 574 433 535 433 q 650 455 610 433 q 727 523 689 475 q 757 538 738 538 q 766 536 762 538 q 789 511 789 532 l 789 514 q 790 507 790 513 q 789 501 790 504 q 782 488 787 496 z "},"":{"ha":373,"x_min":0,"x_max":0,"o":""},"":{"ha":386,"x_min":16,"x_max":399,"o":"m 298 349 l 195 -298 l 194 -304 q 117 -359 181 -359 l 74 -359 q 16 -316 16 -359 q 18 -300 16 -309 l 19 -293 l 216 354 q 253 382 222 382 l 267 382 q 298 357 298 382 q 298 349 298 353 m 279 437 q 199 492 199 437 q 201 511 199 502 l 214 567 q 319 637 231 637 q 399 582 399 637 q 397 563 399 572 l 385 507 q 279 437 368 437 z "},"":{"ha":694,"x_min":128,"x_max":783,"o":"m 592 662 l 574 662 q 783 593 692 662 l 743 471 q 715 452 735 452 l 713 452 q 687 477 692 454 q 642 555 675 530 q 572 576 612 574 l 454 60 q 586 100 507 62 q 653 124 635 124 q 673 113 668 124 q 675 105 675 109 l 675 101 q 657 71 672 89 q 624 35 641 47 q 525 -12 580 2 q 433 -28 469 -26 l 403 -157 l 311 -157 l 342 -25 q 178 58 242 -16 q 128 203 128 115 q 132 255 128 228 q 143 314 137 286 q 165 386 153 351 q 241 509 189 448 q 499 655 347 633 l 525 770 l 616 770 l 592 662 m 478 567 q 423 538 456 563 q 355 458 381 504 q 313 349 327 410 q 306 310 309 330 q 300 249 300 277 q 321 151 300 193 q 368 87 348 98 l 478 567 z "},"":{"ha":694,"x_min":1,"x_max":817,"o":"m 83 71 q 80 52 80 60 q 96 33 80 33 q 144 60 125 33 q 176 110 164 87 q 149 123 166 123 q 83 71 94 123 m 166 545 l 270 545 q 286 631 275 587 q 307 704 295 671 q 380 846 335 787 q 659 992 489 992 q 755 965 711 992 q 813 890 800 939 q 817 861 817 876 q 815 837 817 850 l 814 831 q 783 784 807 804 q 729 762 755 762 q 684 781 704 762 q 668 823 668 796 q 669 835 668 829 q 673 884 671 864 l 673 888 q 639 924 673 919 q 619 926 629 926 q 564 909 588 926 q 495 828 516 875 q 462 730 473 781 q 443 629 450 679 q 431 545 436 580 l 589 545 q 614 525 614 545 l 614 520 l 602 472 q 573 450 597 450 l 415 450 q 407 414 413 439 q 395 367 402 391 q 353 259 378 310 q 311 168 329 209 q 363 148 330 160 q 432 126 397 136 q 500 117 468 117 q 551 123 526 117 q 637 177 600 136 q 654 208 648 189 q 693 227 661 227 q 721 203 721 227 q 720 195 721 200 q 702 150 715 171 q 676 109 688 129 q 568 1 635 42 q 448 -35 507 -35 q 431 -34 439 -35 q 317 10 366 -28 q 275 43 307 19 q 244 64 245 64 q 148 -18 204 20 q 90 -35 119 -35 q 56 -29 73 -35 q 2 28 12 -13 q 1 42 1 35 q 3 64 1 52 q 19 102 7 81 q 71 165 41 144 q 148 194 114 194 l 153 194 q 205 190 182 192 q 220 244 214 212 l 225 264 q 241 349 233 307 q 257 450 250 398 l 151 450 q 125 471 125 450 l 125 475 l 137 524 q 166 545 142 545 z "},"":{"ha":694,"x_min":60,"x_max":785,"o":"m 463 483 q 338 435 397 483 q 265 319 280 388 q 260 281 260 299 q 285 206 260 239 q 382 162 319 162 q 505 210 447 162 q 579 324 564 257 q 584 362 584 345 q 559 439 584 406 q 463 483 524 483 m 477 571 q 608 529 563 571 l 716 616 q 736 625 726 625 q 757 614 751 625 l 781 583 q 785 572 785 576 l 785 569 q 775 553 783 560 l 661 462 q 680 376 680 427 q 674 321 680 349 q 597 180 654 237 l 667 90 q 671 77 671 83 l 671 75 q 663 60 669 67 l 623 28 q 603 21 613 21 q 582 32 589 21 l 517 116 q 368 75 454 75 q 237 117 281 75 l 130 29 q 109 21 120 21 q 89 31 96 21 l 65 62 q 60 75 60 68 l 60 77 q 71 93 62 85 l 183 184 q 165 269 165 218 q 172 325 165 296 q 248 465 191 407 l 180 555 q 174 568 174 561 l 174 570 q 184 586 176 579 l 222 617 q 242 625 232 625 q 263 614 254 625 l 328 530 q 477 571 392 571 z "},"":{"ha":926,"x_min":233,"x_max":1057,"o":"m 471 503 l 343 849 q 307 888 335 869 q 276 904 292 897 q 250 918 260 910 q 235 935 239 924 q 233 943 233 939 l 233 947 l 235 951 q 258 966 239 966 l 488 966 q 512 958 502 966 q 526 942 521 951 q 527 933 527 937 l 527 930 q 516 912 524 920 q 502 900 509 906 q 494 888 496 894 l 493 884 q 492 878 492 881 q 496 861 492 870 l 631 523 q 732 635 669 563 q 848 770 794 707 q 881 818 873 799 l 882 824 q 884 837 884 829 q 879 871 884 851 l 864 927 l 982 974 q 999 977 991 977 q 1029 957 1020 977 l 1054 888 q 1057 869 1057 879 q 1056 855 1057 862 q 1019 802 1049 829 q 920 707 975 764 q 819 597 871 656 q 733 503 766 538 l 905 503 l 887 422 l 665 422 q 650 386 659 412 q 640 353 642 361 l 871 353 l 852 272 l 621 272 l 581 96 q 578 79 578 87 q 592 56 578 61 q 630 18 630 41 q 629 12 630 15 q 595 -14 623 -14 l 365 -14 q 336 9 336 -14 q 337 17 336 13 q 380 53 343 41 q 425 101 416 64 q 455 231 452 222 q 465 272 457 239 l 259 272 l 277 353 l 484 353 l 498 422 l 294 422 l 312 503 l 471 503 z "},"":{"ha":694,"x_min":176,"x_max":574,"o":"m 450 1024 l 574 1024 l 462 538 l 338 538 l 450 1024 m 176 -165 l 288 321 l 412 321 l 300 -165 l 176 -165 z "},"":{"ha":694,"x_min":1,"x_max":831,"o":"m 280 -234 q 377 -209 328 -230 q 462 -144 426 -187 q 515 -37 500 -99 l 516 -30 q 519 1 519 -14 q 492 66 519 42 q 446 90 475 81 q 318 116 386 108 q 191 155 250 123 q 119 241 136 185 q 110 300 110 270 q 117 357 110 328 q 231 545 144 476 q 192 654 192 581 q 199 715 192 682 q 330 915 228 837 q 572 997 438 997 q 592 996 582 997 q 831 918 735 990 l 783 779 q 753 756 775 756 q 745 757 748 756 q 721 786 726 759 q 670 874 709 838 q 580 913 631 911 l 570 913 q 471 893 517 913 q 420 863 442 881 q 385 823 401 847 q 359 777 369 800 q 347 740 351 758 q 343 711 343 724 q 344 699 343 705 q 369 642 347 661 q 410 621 385 627 q 445 613 423 616 q 490 606 466 610 q 562 593 523 600 q 638 576 602 587 q 728 516 703 552 q 754 455 746 490 q 757 419 757 437 q 750 360 757 391 q 637 171 724 245 l 646 159 q 672 98 664 131 q 675 62 675 81 q 668 3 675 34 q 501 -228 636 -134 q 356 -299 433 -274 q 229 -321 298 -317 q 201 -321 215 -321 q 23 -292 110 -321 l 1 -117 l 1 -109 q 12 -90 4 -98 q 38 -77 22 -77 l 41 -77 q 68 -105 61 -79 q 136 -213 88 -186 q 248 -235 176 -235 q 280 -234 263 -235 m 555 218 q 597 320 582 256 l 599 327 q 602 357 602 343 q 574 423 602 399 q 529 448 555 439 q 421 470 478 463 q 322 492 364 477 q 302 466 315 486 q 277 420 287 444 q 264 382 268 400 q 260 352 260 366 q 261 342 260 347 q 288 285 264 304 q 326 264 302 270 q 407 248 349 258 q 480 236 441 242 q 555 218 519 229 z "},"":{"ha":463,"x_min":191,"x_max":669,"o":"m 558 777 q 496 805 517 777 q 482 846 482 822 q 484 866 482 856 q 592 951 504 951 q 654 924 633 951 q 669 882 669 905 q 667 862 669 872 q 628 802 659 827 q 558 777 596 777 m 271 777 q 208 805 230 777 q 191 852 191 828 q 192 866 191 859 q 235 926 199 896 q 304 951 267 951 q 366 924 345 951 q 380 882 380 905 q 378 862 380 872 q 340 802 370 827 q 271 777 308 777 z "},"":{"ha":1039,"x_min":93,"x_max":1169,"o":"m 747 998 q 1086 844 966 998 q 1169 600 1169 737 q 1154 478 1169 541 q 918 113 1105 264 q 515 -38 731 -38 q 176 117 296 -38 q 93 361 93 223 q 107 482 93 420 q 344 847 157 696 q 747 998 531 998 m 735 917 q 396 789 555 917 q 196 478 238 661 q 183 374 183 423 q 252 168 183 258 q 527 43 349 43 q 866 171 707 43 q 1066 482 1025 299 q 1079 587 1079 537 q 1010 792 1079 703 q 735 917 913 917 m 739 779 l 749 779 q 933 718 852 779 l 898 614 q 872 595 893 595 l 870 595 q 846 618 851 595 q 808 684 836 663 q 733 702 781 702 l 720 702 q 624 669 662 699 q 566 601 590 642 q 530 509 542 559 q 524 475 526 492 q 519 422 519 447 q 536 339 519 374 q 627 266 571 274 q 646 264 635 264 q 760 296 692 264 q 819 317 802 317 q 838 309 829 317 q 840 299 840 304 l 840 296 q 825 269 838 284 q 796 238 810 248 q 699 193 752 205 q 604 182 648 182 l 599 182 q 418 248 482 182 q 366 382 366 298 q 370 428 366 404 q 379 480 373 455 q 397 541 387 511 q 463 647 417 594 q 739 779 572 773 z "},"":{"ha":465,"x_min":130,"x_max":638,"o":"m 449 588 l 355 556 q 328 550 338 550 q 309 551 315 550 q 208 605 243 553 q 181 692 181 642 q 183 721 181 706 q 189 752 185 737 q 247 869 205 821 q 294 909 264 890 q 322 923 306 918 q 393 947 358 935 q 463 971 429 960 q 486 975 473 975 q 552 960 516 973 q 574 951 560 958 l 575 950 q 613 969 599 969 q 627 965 623 969 q 638 948 638 958 l 638 945 q 626 903 632 920 q 614 861 620 886 q 604 819 611 849 l 560 626 q 559 617 559 621 q 562 610 559 611 q 589 584 589 601 l 589 581 q 562 560 583 560 l 470 561 q 448 578 448 561 l 448 580 l 449 588 m 166 509 l 533 509 q 556 491 556 509 q 555 485 556 487 l 547 450 q 521 431 542 431 l 154 431 q 130 450 130 431 q 132 456 130 454 l 139 491 q 166 509 144 509 m 385 619 q 403 623 393 620 q 462 643 433 633 l 517 883 q 452 915 490 913 q 441 913 447 915 q 408 902 424 907 q 378 891 393 897 q 364 884 370 888 q 319 823 336 859 q 301 771 307 797 q 297 751 299 760 q 294 718 294 734 q 305 663 294 686 q 352 622 321 631 q 376 618 363 618 q 385 619 380 618 z "},"":{"ha":694,"x_min":146,"x_max":795,"o":"m 152 410 q 146 423 146 416 q 148 429 146 427 q 157 443 149 435 q 298 559 210 492 q 450 680 386 627 q 467 686 457 686 q 479 683 471 686 l 507 661 q 509 650 509 653 l 509 646 q 505 640 506 642 l 286 425 l 405 210 q 407 200 407 206 q 395 186 404 191 l 366 169 q 353 165 360 165 q 334 175 338 165 q 242 291 289 231 q 152 410 196 351 m 437 410 q 433 422 433 415 q 434 428 433 426 q 442 442 435 433 q 583 559 495 492 q 734 680 671 627 q 752 686 743 686 q 768 680 762 686 l 790 662 q 795 650 795 655 l 795 646 q 789 638 792 641 l 572 425 l 692 208 l 692 202 q 680 186 690 191 l 653 170 q 638 165 648 165 q 620 174 627 165 q 528 291 575 231 q 437 410 481 351 z "},"":{"ha":694,"x_min":121,"x_max":836,"o":"m 745 218 l 631 218 l 699 512 l 121 512 l 145 615 l 836 615 l 745 218 z "},"":{"ha":454,"x_min":130,"x_max":475,"o":"m 170 264 q 130 291 130 264 q 130 299 130 295 l 143 355 q 193 386 151 386 l 434 386 q 475 358 475 386 q 474 350 475 354 l 461 294 q 412 264 453 264 l 170 264 z "},"":{"ha":1038,"x_min":93,"x_max":1169,"o":"m 705 454 l 821 236 q 836 232 825 233 q 859 211 859 227 l 859 207 q 832 186 852 186 l 726 186 q 654 296 707 186 q 576 453 602 406 l 538 453 l 492 256 q 491 247 491 251 q 495 238 491 239 q 521 211 521 227 l 521 208 q 493 186 516 186 l 358 186 q 334 205 334 186 q 336 212 334 208 q 361 235 339 228 q 387 260 382 242 l 489 703 q 490 712 490 709 q 486 722 490 720 q 460 749 460 732 q 461 755 460 753 q 488 773 466 773 l 723 774 q 814 757 768 774 q 878 692 861 741 q 884 651 884 673 q 879 606 884 631 q 830 519 865 557 q 759 471 802 488 q 705 454 717 455 m 747 998 q 1086 844 966 998 q 1169 600 1169 737 q 1154 478 1169 541 q 918 113 1105 264 q 515 -38 731 -38 q 176 117 296 -38 q 93 361 93 223 q 107 482 93 420 q 344 847 157 696 q 747 998 531 998 m 597 713 l 550 508 l 622 508 q 724 540 682 508 q 768 614 758 568 q 772 640 772 628 q 757 686 772 667 q 684 713 734 713 l 597 713 m 735 917 q 396 789 555 917 q 196 478 238 661 q 183 374 183 423 q 252 168 183 258 q 527 43 349 43 q 866 171 707 43 q 1066 482 1025 299 q 1079 587 1079 537 q 1010 792 1079 703 q 735 917 913 917 z "},"":{"ha":461,"x_min":205,"x_max":675,"o":"m 245 927 l 652 927 q 675 909 675 927 l 675 905 l 661 846 q 635 827 656 827 l 229 827 q 205 846 205 827 q 207 852 205 850 l 220 909 q 245 927 224 927 z "},"":{"ha":555,"x_min":212,"x_max":677,"o":"m 492 954 q 641 886 589 954 q 677 780 677 840 q 671 728 677 755 q 569 573 649 638 q 396 508 490 508 q 248 576 299 508 q 212 681 212 622 q 218 733 212 706 q 318 889 239 824 q 492 954 398 954 m 479 871 q 372 830 422 871 q 308 728 321 788 q 303 694 303 711 q 325 629 303 658 q 409 591 355 591 q 516 633 465 591 q 581 733 567 674 q 585 766 585 751 q 563 833 585 804 q 479 871 533 871 z "},"":{"ha":694,"x_min":118,"x_max":751,"o":"m 262 560 l 437 560 l 478 739 q 519 774 486 774 l 554 774 q 585 747 585 774 q 584 734 585 741 l 543 560 l 712 560 q 751 534 751 560 q 750 526 751 530 l 742 491 q 696 462 735 462 l 521 462 l 479 284 q 439 248 471 248 l 404 248 q 372 276 372 248 q 374 289 372 282 l 414 462 l 245 462 q 207 488 207 462 q 208 496 207 492 l 216 531 q 262 560 222 560 m 173 175 l 623 175 q 662 148 662 175 q 661 140 662 144 l 653 105 q 606 76 645 76 l 156 76 q 118 102 118 76 q 119 111 118 106 l 127 145 q 173 175 134 175 z "},"":{"ha":498,"x_min":123,"x_max":625,"o":"m 123 292 l 135 343 q 176 414 145 384 q 267 496 205 443 q 337 555 302 524 q 406 617 372 587 q 479 705 450 658 q 504 760 498 734 q 507 781 507 771 q 504 802 507 792 q 459 852 492 839 q 416 861 440 861 q 377 856 398 861 q 286 799 327 844 q 256 748 269 782 l 245 838 q 261 863 252 850 q 420 951 323 937 q 458 954 439 954 q 574 922 523 954 q 625 823 625 887 q 621 780 625 803 l 620 777 q 457 555 591 652 q 276 398 327 460 l 406 398 q 541 425 462 398 l 515 317 q 445 293 477 294 q 388 292 414 292 l 123 292 z "},"":{"ha":498,"x_min":138,"x_max":598,"o":"m 407 317 q 270 273 347 280 q 246 271 258 271 q 138 313 181 271 l 169 467 q 252 345 200 359 q 291 340 271 340 q 353 353 323 340 q 424 416 399 375 q 443 463 437 439 q 446 489 446 476 q 446 500 446 494 q 410 570 442 541 q 290 601 377 599 l 296 637 q 378 665 338 648 q 446 715 418 681 q 473 766 467 741 q 476 783 475 774 l 476 789 q 462 838 476 819 q 411 865 445 861 l 403 865 q 328 833 370 865 q 258 716 304 816 l 277 873 q 463 952 369 952 q 596 859 578 951 q 598 837 598 848 q 595 808 598 823 q 504 689 581 747 q 486 675 490 678 q 548 596 530 650 q 557 541 557 569 q 553 500 557 520 q 548 485 551 492 q 407 317 517 386 z "},"":{"ha":463,"x_min":241,"x_max":627,"o":"m 328 751 q 267 730 290 730 q 258 732 262 730 q 241 749 241 734 l 241 751 q 279 793 245 765 l 380 878 q 454 940 399 895 q 530 998 509 986 q 568 1008 549 1008 q 600 1000 585 1008 q 627 959 627 987 q 624 942 627 951 q 599 904 618 920 q 562 878 580 888 l 328 751 z "},"":{"ha":899,"x_min":31,"x_max":898,"o":"m 705 512 q 707 528 707 521 q 692 553 707 547 q 654 591 654 567 q 655 597 654 594 q 688 623 661 623 q 766 633 724 624 q 898 672 814 644 l 765 94 q 762 77 762 85 q 777 55 762 59 q 817 18 817 41 q 815 12 817 15 q 781 -14 810 -14 l 583 -14 l 594 36 l 470 -8 q 379 -25 422 -25 q 355 -24 367 -25 q 265 5 301 -18 l 210 14 l 155 -361 l 155 -363 q 121 -389 149 -389 l 59 -389 q 31 -366 31 -389 q 32 -358 31 -362 l 241 547 q 221 562 235 556 q 196 591 196 573 q 197 598 196 596 q 231 623 203 623 q 309 634 269 625 q 357 647 334 639 q 435 671 380 654 l 347 286 q 335 196 335 236 q 356 106 335 142 q 439 59 384 59 q 513 73 471 59 l 611 106 l 705 512 z "},"":{"ha":859,"x_min":216,"x_max":1052,"o":"m 683 893 l 443 -145 l 585 -145 l 825 893 l 683 893 m 461 519 q 416 516 451 516 q 273 585 322 516 q 239 690 239 631 q 245 743 239 715 q 345 900 267 834 q 513 966 422 965 l 1021 966 q 1052 941 1052 966 q 1051 933 1052 938 q 1000 890 1044 905 q 944 829 955 875 l 734 -85 q 731 -106 731 -97 q 750 -138 731 -131 q 793 -182 793 -156 q 792 -189 793 -186 q 754 -217 786 -217 l 247 -217 q 216 -192 216 -217 q 216 -184 216 -189 q 268 -141 223 -156 q 323 -80 313 -126 l 461 519 z "},"":{"ha":347,"x_min":168,"x_max":372,"o":"m 251 323 q 184 353 207 323 q 168 399 168 373 q 170 422 168 410 q 213 487 179 459 q 289 515 248 515 q 357 484 333 515 q 372 438 372 463 q 370 417 372 427 q 326 351 360 378 q 251 323 292 323 z "},"":{"ha":686,"x_min":138,"x_max":374,"o":"m 252 10 l 325 10 q 304 -34 307 -22 q 303 -43 303 -39 q 309 -60 303 -53 q 349 -104 327 -82 q 374 -169 374 -131 q 371 -198 374 -183 l 370 -205 q 256 -277 351 -271 l 245 -277 q 138 -254 202 -277 l 140 -166 q 214 -209 191 -209 q 252 -197 231 -209 q 272 -172 269 -187 q 273 -165 273 -169 q 254 -123 273 -148 q 224 -71 235 -102 q 220 -53 220 -62 q 222 -39 220 -46 q 252 10 227 -18 z "},"":{"ha":453,"x_min":203,"x_max":509,"o":"m 228 292 q 203 312 203 292 q 205 318 203 316 q 232 343 209 335 q 260 372 256 351 l 368 840 l 279 840 l 288 877 q 399 929 294 903 q 445 941 422 935 q 509 958 468 947 l 374 367 q 372 357 372 361 q 378 346 372 348 q 404 317 404 334 l 404 313 q 376 292 399 292 l 228 292 z "},"":{"ha":463,"x_min":130,"x_max":633,"o":"m 453 983 q 598 914 547 983 q 633 810 633 868 q 627 757 633 784 q 527 600 606 665 q 356 534 448 534 q 210 603 261 534 q 175 709 175 650 q 181 761 175 734 q 282 917 203 852 q 453 983 361 983 m 167 509 l 522 509 q 545 490 545 509 q 544 484 545 486 l 535 445 q 508 425 530 425 l 153 425 q 130 444 130 425 q 131 450 130 447 l 140 490 q 167 509 145 509 m 437 926 q 352 879 393 926 q 299 772 313 833 q 296 757 297 765 q 291 711 291 733 q 309 637 291 669 q 373 592 332 592 q 458 639 416 592 q 511 746 497 684 q 514 760 513 753 q 519 806 519 784 q 502 882 519 848 q 437 926 478 926 z "},"":{"ha":694,"x_min":96,"x_max":745,"o":"m 733 408 q 588 288 662 348 q 443 172 513 229 q 425 165 434 165 q 409 171 415 165 l 389 187 q 382 201 382 193 l 382 201 q 389 214 382 210 l 606 429 l 488 640 q 486 648 486 642 l 486 650 q 496 664 488 658 l 526 683 q 539 686 532 686 q 557 677 549 686 q 653 557 596 624 q 741 439 710 490 q 745 427 745 433 l 745 424 q 733 408 741 414 m 448 408 q 302 288 376 348 q 157 172 228 229 q 140 165 149 165 q 123 171 130 165 l 104 187 q 96 201 96 193 l 96 202 q 102 213 96 208 l 320 429 l 203 640 q 200 648 200 642 l 200 650 q 210 664 203 658 l 239 681 q 254 686 243 686 q 273 677 265 686 q 368 557 311 624 q 456 439 425 490 q 458 427 458 431 l 458 423 q 448 408 455 413 z "},"":{"ha":916,"x_min":-23,"x_max":1128,"o":"m 1008 963 l 1128 963 l 97 -14 l -23 -14 l 1008 963 m 932 463 l 869 191 l 932 191 l 916 119 l 852 119 l 838 56 q 838 52 838 54 q 852 39 838 43 q 890 8 890 25 l 890 6 q 865 -14 886 -14 l 688 -14 q 666 5 666 -14 l 666 8 q 705 35 670 26 q 743 59 740 45 l 758 119 l 574 119 l 587 175 l 842 463 l 932 463 m 775 191 l 810 342 l 682 191 l 775 191 m 507 969 l 410 550 q 410 545 410 548 q 424 532 410 536 q 462 502 462 519 l 462 500 q 436 479 458 479 l 260 479 q 237 498 237 479 l 237 502 q 276 529 241 519 q 313 554 310 539 l 389 878 l 389 880 q 366 885 389 883 q 323 907 323 888 q 345 928 328 924 l 507 969 z "},"":{"ha":890,"x_min":-24,"x_max":1097,"o":"m 507 969 l 410 550 q 410 545 410 548 q 424 532 410 536 q 462 502 462 519 l 462 500 q 436 479 458 479 l 260 479 q 237 498 237 479 l 237 502 q 276 529 241 519 q 313 554 310 539 l 389 878 l 389 880 q 366 885 389 883 q 323 907 323 888 q 345 928 328 924 l 507 969 m 980 937 l 1097 937 l 94 -14 l -24 -14 l 980 937 m 567 -9 l 576 30 q 606 83 584 61 q 673 143 629 104 q 772 230 719 180 q 824 292 802 258 q 844 336 839 316 q 846 351 846 344 q 813 393 846 380 q 777 399 794 399 q 694 356 734 399 q 679 325 682 341 l 654 377 l 667 404 q 785 471 713 459 q 813 473 800 473 q 900 448 861 473 q 938 374 938 422 q 934 342 938 359 l 933 340 q 816 180 913 251 q 692 74 722 112 l 777 74 q 878 97 814 74 l 859 9 q 804 -9 828 -8 q 763 -9 781 -9 l 567 -9 z "},"":{"ha":890,"x_min":-24,"x_max":1097,"o":"m 980 937 l 1097 937 l 94 -14 l -24 -14 l 980 937 m 392 487 q 291 454 347 460 q 273 453 281 453 q 188 488 223 453 l 216 616 q 278 514 243 523 q 304 511 291 511 q 348 520 327 511 q 397 564 380 535 q 410 597 407 581 q 413 615 413 606 q 412 623 413 619 q 388 671 410 651 q 298 694 366 692 l 306 726 q 366 746 337 734 q 414 782 395 758 q 436 823 432 803 q 438 835 438 829 q 427 867 438 852 q 389 885 414 882 q 386 886 387 886 q 335 864 363 886 q 297 805 319 850 l 291 897 q 431 956 359 956 q 532 885 517 955 q 533 869 533 877 q 530 847 533 858 q 463 758 519 802 q 451 749 457 753 l 448 747 q 455 750 449 747 q 505 657 505 722 q 501 626 505 642 q 496 612 499 618 q 392 487 473 538 m 907 450 l 846 186 l 908 186 l 892 115 l 829 115 l 815 54 q 814 50 814 52 q 829 37 814 41 q 866 8 866 24 l 866 6 q 841 -14 862 -14 l 669 -14 q 647 5 647 -14 l 647 8 q 685 34 651 25 q 722 58 719 43 l 736 115 l 557 115 l 570 170 l 819 450 l 907 450 m 753 186 l 787 331 l 659 186 l 753 186 z "},"":{"ha":543,"x_min":-3,"x_max":473,"o":"m 357 266 l 334 153 q 328 109 328 127 q 330 90 328 98 q 366 49 336 71 q 376 41 370 45 q 389 32 381 37 q 470 -110 470 -25 q 465 -155 470 -132 q 370 -298 444 -246 q 189 -351 296 -351 q 31 -294 81 -351 q -3 -199 -3 -256 q 3 -146 -3 -174 q 26 -110 9 -122 q 72 -98 43 -98 q 116 -111 100 -98 q 129 -138 129 -121 q 128 -145 129 -142 q 122 -210 122 -182 q 130 -258 122 -242 q 182 -282 142 -282 q 267 -252 234 -282 q 317 -151 301 -219 q 323 -98 323 -122 q 313 -42 323 -67 q 224 62 295 2 l 272 270 q 293 327 281 305 q 330 353 308 353 q 363 323 358 353 l 363 315 q 357 266 363 296 m 340 410 q 282 456 282 410 q 284 475 282 465 l 294 518 q 373 580 309 580 l 416 580 q 473 533 473 580 q 471 514 473 524 l 461 471 q 382 410 447 410 l 340 410 z "},"":{"ha":1080,"x_min":20,"x_max":1068,"o":"m 806 981 q 847 774 824 890 q 895 535 870 658 q 943 296 920 412 q 983 101 966 180 q 1006 63 986 80 q 1032 47 1019 54 q 1056 33 1046 41 q 1067 18 1065 25 q 1068 12 1068 16 q 1067 5 1068 7 q 1063 -3 1065 1 q 1039 -14 1055 -14 l 810 -14 q 786 -5 797 -14 q 776 13 776 3 q 775 20 775 15 q 792 41 778 32 q 809 53 800 47 q 823 68 818 59 q 826 77 825 72 q 827 88 827 82 q 827 98 827 93 l 783 318 l 412 318 q 341 209 378 267 q 266 94 304 151 q 255 72 258 81 q 252 64 253 67 q 252 57 252 60 l 252 53 q 255 41 252 47 q 259 26 258 36 q 258 18 258 19 q 254 8 258 14 q 220 -14 241 -14 l 45 -14 q 23 -5 27 -14 q 20 5 20 4 q 24 20 20 12 q 58 44 33 33 q 82 54 69 49 q 108 67 95 60 q 150 105 134 83 l 739 981 l 806 981 m 873 1062 l 699 1188 q 673 1215 684 1199 q 662 1245 662 1228 q 663 1258 662 1251 q 711 1312 673 1297 q 742 1318 727 1318 q 779 1306 762 1318 q 829 1248 795 1295 q 875 1185 863 1202 l 937 1101 q 956 1062 956 1075 l 956 1059 q 937 1042 951 1043 q 928 1040 933 1040 q 873 1062 904 1040 m 766 400 l 695 757 q 585 587 652 690 q 465 400 518 484 l 766 400 z "},"":{"ha":1080,"x_min":20,"x_max":1068,"o":"m 806 981 q 847 774 824 890 q 895 535 870 658 q 943 296 920 412 q 983 101 966 180 q 1006 63 986 80 q 1032 47 1019 54 q 1056 33 1046 41 q 1067 18 1065 25 q 1068 12 1068 16 q 1067 5 1068 7 q 1063 -3 1065 1 q 1039 -14 1055 -14 l 810 -14 q 786 -5 797 -14 q 776 13 776 3 q 775 20 775 15 q 792 41 778 32 q 809 53 800 47 q 823 68 818 59 q 826 77 825 72 q 827 88 827 82 q 827 98 827 93 l 783 318 l 412 318 q 341 209 378 267 q 266 94 304 151 q 255 72 258 81 q 252 64 253 67 q 252 57 252 60 l 252 53 q 255 41 252 47 q 259 26 258 36 q 258 18 258 19 q 254 8 258 14 q 220 -14 241 -14 l 45 -14 q 23 -5 27 -14 q 20 5 20 4 q 24 20 20 12 q 58 44 33 33 q 82 54 69 49 q 108 67 95 60 q 150 105 134 83 l 739 981 l 806 981 m 703 1061 q 642 1040 665 1040 q 633 1042 637 1040 q 616 1059 616 1044 l 616 1061 q 653 1103 620 1075 l 754 1187 q 829 1250 774 1204 q 904 1308 884 1296 q 943 1318 924 1318 q 974 1311 959 1318 q 1001 1270 1001 1298 q 999 1253 1001 1261 q 974 1214 994 1230 q 937 1187 954 1198 l 703 1061 m 766 400 l 695 757 q 585 587 652 690 q 465 400 518 484 l 766 400 z "},"":{"ha":1080,"x_min":20,"x_max":1068,"o":"m 806 981 q 847 774 824 890 q 895 535 870 658 q 943 296 920 412 q 983 101 966 180 q 1006 63 986 80 q 1032 47 1019 54 q 1056 33 1046 41 q 1067 18 1065 25 q 1068 12 1068 16 q 1067 5 1068 7 q 1063 -3 1065 1 q 1039 -14 1055 -14 l 810 -14 q 786 -5 797 -14 q 776 13 776 3 q 775 20 775 15 q 792 41 778 32 q 809 53 800 47 q 823 68 818 59 q 826 77 825 72 q 827 88 827 82 q 827 98 827 93 l 783 318 l 412 318 q 341 209 378 267 q 266 94 304 151 q 255 72 258 81 q 252 64 253 67 q 252 57 252 60 l 252 53 q 255 41 252 47 q 259 26 258 36 q 258 18 258 19 q 254 8 258 14 q 220 -14 241 -14 l 45 -14 q 20 6 20 -9 q 24 20 20 12 q 58 44 33 33 q 82 54 69 49 q 108 67 95 60 q 150 105 134 83 l 739 981 l 806 981 m 568 1042 l 801 1304 l 901 1304 l 1014 1042 l 943 1042 l 825 1176 l 646 1042 l 568 1042 m 766 400 l 695 757 q 585 587 652 690 q 465 400 518 484 l 766 400 z "},"":{"ha":1080,"x_min":20,"x_max":1068,"o":"m 806 981 q 847 774 824 890 q 895 535 870 658 q 943 296 920 412 q 983 101 966 180 q 1006 63 986 80 q 1032 47 1019 54 q 1056 33 1046 41 q 1067 18 1065 25 q 1068 12 1068 16 q 1067 5 1068 7 q 1063 -3 1065 1 q 1039 -14 1055 -14 l 810 -14 q 786 -5 797 -14 q 776 13 776 3 q 775 20 775 15 q 792 41 778 32 q 809 53 800 47 q 823 68 818 59 q 826 77 825 72 q 827 88 827 82 q 827 98 827 93 l 783 318 l 412 318 q 341 209 378 267 q 266 94 304 151 q 255 72 258 81 q 252 64 253 67 q 252 57 252 60 l 252 53 q 255 41 252 47 q 259 26 258 36 q 258 18 258 19 q 254 8 258 14 q 220 -14 241 -14 l 45 -14 q 20 4 20 -12 q 24 20 20 11 q 58 44 33 33 q 82 54 69 49 q 108 67 95 60 q 150 105 134 83 l 739 981 l 806 981 m 1054 1223 q 970 1107 1006 1143 q 889 1065 928 1065 q 772 1128 827 1065 q 726 1154 749 1154 q 686 1137 707 1154 q 669 1125 678 1132 q 649 1107 660 1118 q 610 1060 627 1084 q 585 1046 600 1046 q 565 1054 573 1046 q 557 1073 557 1062 l 557 1078 q 567 1098 559 1088 q 637 1202 600 1147 q 734 1257 675 1257 q 854 1192 802 1257 q 898 1166 875 1166 q 948 1187 920 1166 q 1006 1255 977 1206 q 1033 1271 1017 1271 q 1042 1270 1038 1271 q 1060 1244 1060 1264 l 1060 1242 l 1059 1237 q 1054 1223 1057 1230 m 766 400 l 695 757 q 585 587 652 690 q 465 400 518 484 l 766 400 z "},"":{"ha":1080,"x_min":18,"x_max":1068,"o":"m 806 981 q 847 774 824 890 q 895 535 870 658 q 943 296 920 412 q 983 101 966 180 q 1006 63 986 80 q 1032 47 1019 54 q 1056 33 1046 41 q 1067 18 1065 25 q 1068 12 1068 16 q 1067 5 1068 7 q 1063 -3 1065 1 q 1039 -14 1055 -14 l 810 -14 q 786 -5 797 -14 q 776 13 776 3 q 775 20 775 15 q 792 41 778 32 q 809 53 800 47 q 823 68 818 59 q 826 77 825 72 q 827 88 827 82 q 827 98 827 93 l 783 318 l 412 318 q 341 209 378 267 q 266 94 304 151 q 255 72 258 81 q 252 64 253 67 q 252 57 252 60 l 252 53 q 255 41 252 47 q 259 26 258 36 q 258 18 258 19 q 254 8 258 14 q 220 -14 241 -14 l 45 -14 q 18 2 18 -13 q 24 20 18 9 q 58 44 33 33 q 82 54 69 49 q 108 67 95 60 q 150 105 134 83 l 739 981 l 806 981 m 854 1160 q 890 1215 862 1191 q 954 1240 919 1240 q 1024 1186 1013 1240 q 1025 1171 1025 1178 q 1023 1152 1025 1161 q 988 1100 1017 1124 q 931 1076 958 1076 q 922 1076 930 1076 q 865 1103 884 1076 q 852 1141 852 1118 q 854 1160 852 1150 m 614 1160 q 680 1233 627 1213 q 716 1240 699 1240 q 771 1213 751 1240 q 786 1172 786 1194 q 785 1157 786 1164 q 770 1126 781 1142 q 683 1076 739 1076 q 612 1135 612 1076 q 614 1160 612 1147 m 766 400 l 695 757 q 585 587 652 690 q 465 400 518 484 l 766 400 z "},"":{"ha":1080,"x_min":18,"x_max":1068,"o":"m 806 981 q 847 774 824 890 q 895 535 870 658 q 943 296 920 412 q 983 101 966 180 q 1006 63 986 80 q 1032 47 1019 54 q 1056 33 1046 41 q 1067 18 1065 25 q 1068 12 1068 16 q 1067 5 1068 7 q 1063 -3 1065 1 q 1039 -14 1055 -14 l 810 -14 q 786 -5 797 -14 q 776 13 776 3 q 775 20 775 15 q 792 41 778 32 q 809 53 800 47 q 823 68 818 59 q 826 77 825 72 q 827 88 827 82 q 827 98 827 93 l 783 318 l 412 318 q 341 209 378 267 q 266 94 304 151 q 255 72 258 81 q 252 64 253 67 q 252 57 252 60 l 252 53 q 255 41 252 47 q 259 26 258 36 q 258 18 258 19 q 254 8 258 14 q 220 -14 241 -14 l 45 -14 q 18 2 18 -14 q 24 20 18 9 q 58 44 33 33 q 82 54 69 49 q 108 67 95 60 q 150 105 134 83 l 739 981 l 806 981 m 842 1316 q 941 1269 906 1316 q 964 1198 964 1238 q 960 1164 964 1182 q 893 1061 946 1104 q 780 1018 841 1018 q 681 1064 715 1018 q 657 1134 657 1095 q 661 1169 657 1151 q 728 1272 675 1228 q 842 1316 781 1316 m 833 1270 q 783 1242 807 1270 q 750 1175 759 1214 l 747 1164 q 745 1136 745 1149 q 755 1089 745 1109 q 791 1064 768 1064 q 840 1092 815 1064 q 873 1161 865 1121 l 876 1168 q 878 1196 878 1183 q 868 1244 878 1223 q 833 1270 854 1270 m 766 400 l 695 757 q 585 587 652 690 q 465 400 518 484 l 766 400 z "},"":{"ha":1311,"x_min":-80,"x_max":1432,"o":"m 774 77 l 1044 77 q 1151 123 1099 77 q 1232 197 1203 170 q 1267 216 1253 216 q 1295 193 1295 216 q 1295 186 1295 190 q 1289 170 1292 176 l 1195 -14 l 560 -14 q 534 9 534 -14 q 534 16 534 12 q 577 53 541 41 q 622 101 614 64 l 672 318 l 359 318 q 272 208 318 266 q 180 92 226 150 q 165 70 172 83 q 160 58 161 64 q 159 53 159 56 l 159 49 q 160 43 159 44 q 163 26 163 34 l 163 20 q 159 14 161 16 l 158 12 l 158 11 q 121 -14 140 -14 l -54 -14 q -80 4 -74 -14 l -78 9 q -71 22 -78 14 q -36 44 -62 32 q -11 54 -24 49 q 17 67 3 60 q 65 106 45 83 l 714 899 q 690 907 711 899 q 661 935 661 916 l 661 939 q 696 966 667 966 l 1432 966 l 1388 776 q 1354 750 1382 750 q 1319 786 1335 750 q 1280 854 1296 832 q 1234 876 1265 876 l 958 876 l 879 534 l 1014 534 q 1069 569 1047 534 q 1118 604 1090 604 q 1146 582 1146 604 q 1145 574 1146 578 l 1106 402 q 1072 376 1100 376 q 1033 411 1040 376 q 996 446 1025 446 l 859 446 l 774 77 m 693 400 l 800 867 q 613 635 736 788 q 425 400 490 482 l 693 400 z "},"":{"ha":949,"x_min":122,"x_max":1134,"o":"m 342 -23 l 415 -23 q 422 -64 416 -58 q 461 -109 439 -87 q 488 -175 488 -136 q 484 -203 488 -189 l 483 -210 q 369 -282 464 -275 l 358 -282 q 252 -259 315 -282 l 253 -171 q 327 -214 304 -214 q 364 -202 345 -214 q 385 -178 382 -192 q 386 -171 386 -175 q 367 -128 386 -153 q 337 -76 349 -106 q 333 -56 333 -68 q 334 -43 333 -50 q 342 -23 339 -23 m 569 -39 q 218 100 353 -39 q 122 346 122 197 q 138 477 122 408 q 385 852 193 711 q 802 994 578 994 q 968 976 882 994 q 1134 899 1055 958 l 1082 748 q 1049 726 1072 726 l 1046 726 q 1017 756 1025 728 q 943 873 996 845 q 787 902 890 902 q 504 800 642 902 q 315 473 366 699 q 304 387 304 429 q 358 195 304 289 q 586 58 431 65 q 616 57 602 57 q 758 82 699 57 q 888 202 825 111 q 924 228 907 225 l 929 228 q 956 203 956 228 l 956 201 l 953 182 l 852 11 q 702 -29 773 -19 q 569 -39 631 -39 z "},"":{"ha":848,"x_min":91,"x_max":989,"o":"m 331 77 l 600 77 q 708 123 656 77 q 789 197 760 170 q 824 216 810 216 q 852 193 852 216 q 852 186 852 190 q 846 170 849 176 l 752 -14 l 117 -14 q 91 9 91 -14 q 92 16 91 12 q 134 53 98 41 q 179 101 171 64 l 353 855 q 355 872 355 865 q 342 897 355 891 q 304 934 304 910 q 305 941 304 937 q 339 966 311 966 l 989 966 l 945 776 q 911 750 939 750 q 876 786 892 750 q 838 854 853 832 q 791 876 822 876 l 515 876 l 436 534 l 571 534 q 626 569 604 534 q 675 604 648 604 q 703 582 703 604 q 703 574 703 578 l 663 402 q 629 376 657 376 q 590 411 597 376 q 553 446 582 446 l 416 446 l 331 77 m 781 1062 l 606 1188 q 579 1215 591 1199 q 568 1245 568 1228 q 570 1258 568 1251 q 617 1312 579 1297 q 648 1318 633 1318 q 685 1306 669 1318 q 735 1248 702 1295 q 782 1185 769 1202 l 844 1101 q 863 1061 863 1075 l 863 1058 q 842 1042 858 1043 q 834 1040 840 1040 q 781 1062 811 1040 z "},"":{"ha":848,"x_min":91,"x_max":989,"o":"m 331 77 l 600 77 q 708 123 656 77 q 789 197 760 170 q 824 216 810 216 q 852 193 852 216 q 852 186 852 190 q 846 170 849 176 l 752 -14 l 117 -14 q 91 9 91 -14 q 92 16 91 12 q 134 53 98 41 q 179 101 171 64 l 353 855 q 355 872 355 865 q 342 897 355 891 q 304 934 304 910 q 305 941 304 937 q 339 966 311 966 l 989 966 l 945 776 q 911 750 939 750 q 876 786 892 750 q 838 854 853 832 q 791 876 822 876 l 515 876 l 436 534 l 571 534 q 626 569 604 534 q 675 604 648 604 q 703 582 703 604 q 703 574 703 578 l 663 402 q 629 376 657 376 q 590 411 597 376 q 553 446 582 446 l 416 446 l 331 77 m 609 1061 q 549 1040 572 1040 q 539 1042 542 1040 q 524 1058 524 1044 l 524 1061 q 560 1103 527 1075 l 661 1187 q 736 1250 681 1204 q 810 1308 791 1296 q 850 1318 831 1318 q 880 1311 865 1318 q 908 1270 908 1298 q 906 1253 908 1261 q 881 1214 901 1230 q 843 1187 861 1198 l 609 1061 z "},"":{"ha":848,"x_min":91,"x_max":989,"o":"m 331 77 l 600 77 q 708 123 656 77 q 789 197 760 170 q 824 216 810 216 q 852 193 852 216 q 852 186 852 190 q 846 170 849 176 l 752 -14 l 117 -14 q 91 9 91 -14 q 92 16 91 12 q 134 53 98 41 q 179 101 171 64 l 353 855 q 355 872 355 865 q 342 897 355 891 q 304 934 304 910 q 305 941 304 937 q 339 966 311 966 l 989 966 l 945 776 q 911 750 939 750 q 876 786 892 750 q 838 854 853 832 q 791 876 822 876 l 515 876 l 436 534 l 571 534 q 626 569 604 534 q 675 604 648 604 q 703 582 703 604 q 703 574 703 578 l 663 402 q 629 376 657 376 q 590 411 597 376 q 553 446 582 446 l 416 446 l 331 77 m 464 1042 l 698 1304 l 798 1304 l 910 1042 l 839 1042 l 722 1176 l 543 1042 l 464 1042 z "},"":{"ha":848,"x_min":91,"x_max":989,"o":"m 331 77 l 600 77 q 708 123 656 77 q 789 197 760 170 q 824 216 810 216 q 852 193 852 216 q 852 186 852 190 q 846 170 849 176 l 752 -14 l 117 -14 q 91 9 91 -14 q 92 16 91 12 q 134 53 98 41 q 179 101 171 64 l 353 855 q 355 872 355 865 q 342 897 355 891 q 304 934 304 910 q 305 941 304 937 q 339 966 311 966 l 989 966 l 945 776 q 911 750 939 750 q 876 786 892 750 q 838 854 853 832 q 791 876 822 876 l 515 876 l 436 534 l 571 534 q 626 569 604 534 q 675 604 648 604 q 703 582 703 604 q 703 574 703 578 l 663 402 q 629 376 657 376 q 590 411 597 376 q 553 446 582 446 l 416 446 l 331 77 m 751 1160 q 787 1215 758 1191 q 850 1240 815 1240 q 920 1186 909 1240 q 922 1171 922 1178 q 920 1152 922 1161 q 885 1100 913 1124 q 819 1072 850 1072 q 762 1103 785 1072 q 749 1141 749 1118 q 751 1160 749 1150 m 511 1160 q 576 1233 524 1213 q 613 1240 595 1240 q 668 1213 648 1240 q 683 1172 683 1194 q 682 1157 683 1164 q 667 1126 677 1141 q 579 1076 635 1076 q 508 1135 508 1076 q 511 1160 508 1147 z "},"":{"ha":468,"x_min":91,"x_max":648,"o":"m 508 850 l 335 97 q 332 79 332 87 q 346 56 332 61 q 384 18 384 41 q 382 12 384 15 q 349 -14 377 -14 l 119 -14 q 91 9 91 -14 q 92 17 91 13 q 134 53 98 41 q 179 101 171 64 l 353 855 q 355 872 355 865 q 342 897 355 891 q 304 934 304 910 q 305 941 304 937 q 339 966 311 966 l 568 966 q 597 943 597 966 q 596 935 597 939 q 553 899 590 911 q 508 850 517 887 m 566 1062 l 392 1188 q 365 1215 377 1199 q 354 1245 354 1228 q 355 1258 354 1251 q 403 1312 365 1297 q 434 1318 419 1318 q 471 1306 454 1318 q 521 1248 488 1295 q 568 1185 555 1202 l 629 1101 q 648 1061 648 1075 l 648 1058 q 628 1042 644 1043 q 620 1040 625 1040 q 566 1062 597 1040 z "},"":{"ha":468,"x_min":91,"x_max":694,"o":"m 508 850 l 335 97 q 332 79 332 87 q 346 56 332 61 q 384 18 384 41 q 382 12 384 15 q 349 -14 377 -14 l 119 -14 q 91 9 91 -14 q 92 17 91 13 q 134 53 98 41 q 179 101 171 64 l 353 855 q 355 872 355 865 q 342 897 355 891 q 304 934 304 910 q 305 941 304 937 q 339 966 311 966 l 568 966 q 597 943 597 966 q 596 935 597 939 q 553 899 590 911 q 508 850 517 887 m 395 1061 q 334 1040 357 1040 q 325 1042 328 1040 q 309 1059 309 1044 l 309 1061 q 345 1103 313 1075 l 446 1187 q 522 1250 467 1204 q 596 1308 576 1296 q 636 1318 616 1318 q 666 1311 651 1318 q 694 1270 694 1298 q 692 1253 694 1261 q 666 1214 686 1230 q 629 1187 646 1198 l 395 1061 z "},"":{"ha":468,"x_min":91,"x_max":696,"o":"m 508 850 l 335 97 q 332 79 332 87 q 346 56 332 61 q 384 18 384 41 q 382 12 384 15 q 349 -14 377 -14 l 119 -14 q 91 9 91 -14 q 92 17 91 13 q 134 53 98 41 q 179 101 171 64 l 353 855 q 355 872 355 865 q 342 897 355 891 q 304 934 304 910 q 305 941 304 937 q 339 966 311 966 l 568 966 q 597 943 597 966 q 596 935 597 939 q 553 899 590 911 q 508 850 517 887 m 250 1042 l 484 1304 l 583 1304 l 696 1042 l 625 1042 l 507 1176 l 328 1042 l 250 1042 z "},"":{"ha":468,"x_min":91,"x_max":707,"o":"m 508 850 l 335 97 q 332 79 332 87 q 346 56 332 61 q 384 18 384 41 q 382 12 384 15 q 349 -14 377 -14 l 119 -14 q 91 9 91 -14 q 92 17 91 13 q 134 53 98 41 q 179 101 171 64 l 353 855 q 355 872 355 865 q 342 897 355 891 q 304 934 304 910 q 305 941 304 937 q 339 966 311 966 l 568 966 q 597 943 597 966 q 596 935 597 939 q 553 899 590 911 q 508 850 517 887 m 536 1160 q 572 1215 544 1191 q 636 1240 601 1240 q 706 1186 695 1240 q 707 1171 707 1178 q 705 1152 707 1161 q 670 1100 699 1124 q 604 1072 635 1072 q 547 1102 571 1072 q 534 1141 534 1118 q 536 1160 534 1150 m 296 1160 q 362 1233 309 1213 q 399 1240 381 1240 q 454 1213 433 1240 q 469 1172 469 1194 q 467 1157 469 1164 q 452 1126 463 1141 q 365 1076 421 1076 q 294 1135 294 1076 q 296 1160 294 1147 z "},"":{"ha":1075,"x_min":58,"x_max":1168,"o":"m 1158 534 q 1149 491 1154 512 q 1059 284 1123 376 q 875 104 983 175 q 466 -18 691 -16 l 412 -18 q 338 -18 372 -18 l 259 -18 q 173 -16 202 -18 l 157 -16 q 87 -20 131 -16 q 58 3 58 -20 q 58 12 58 7 q 101 47 64 35 q 146 97 138 60 l 228 451 l 138 451 q 110 473 110 451 q 111 480 110 476 l 117 506 q 151 531 122 531 l 246 531 l 321 859 q 324 876 324 868 q 311 899 324 894 q 273 937 273 913 q 274 943 273 940 q 308 968 279 968 q 366 968 336 968 q 423 968 394 968 q 538 972 482 970 l 578 972 q 787 966 683 972 q 1007 914 914 959 q 1140 781 1096 870 q 1168 642 1168 724 q 1158 534 1168 593 m 412 531 l 605 531 q 633 508 633 531 q 632 501 633 505 l 627 475 q 593 451 620 451 l 393 451 l 309 77 q 447 64 374 64 q 690 116 579 64 q 870 264 793 165 q 973 502 940 357 l 979 524 q 991 629 991 582 q 982 703 991 670 q 918 816 964 774 q 734 888 850 877 q 650 891 693 891 q 491 879 568 891 l 412 531 z "},"":{"ha":1115,"x_min":77,"x_max":1296,"o":"m 954 182 l 1108 855 q 1111 872 1111 865 q 1097 896 1111 890 q 1060 934 1060 911 q 1061 941 1060 937 q 1095 966 1067 966 l 1267 966 q 1296 943 1296 966 q 1295 935 1296 939 q 1253 899 1289 911 q 1208 850 1216 886 l 1000 -47 l 861 -11 l 417 762 l 264 96 q 261 79 261 87 q 275 56 261 61 q 313 18 313 41 q 311 12 313 15 q 277 -14 306 -14 l 105 -14 q 77 9 77 -14 q 77 17 77 13 q 120 53 83 41 q 165 101 157 64 l 338 855 q 341 872 341 865 q 327 896 341 890 q 290 934 290 911 q 291 941 290 937 q 325 966 296 966 l 510 966 l 954 182 m 1088 1221 q 1005 1107 1040 1143 q 924 1065 963 1065 q 807 1128 862 1065 q 760 1154 783 1154 q 721 1137 743 1154 q 704 1125 713 1132 q 684 1107 694 1119 q 644 1060 663 1086 q 619 1046 635 1046 q 600 1054 608 1046 q 591 1073 591 1062 l 591 1078 q 602 1098 594 1088 q 672 1202 635 1147 q 768 1257 709 1257 q 890 1192 837 1257 q 932 1166 910 1166 q 983 1187 954 1166 q 1041 1255 1011 1206 q 1068 1271 1051 1271 q 1078 1269 1074 1271 q 1095 1244 1095 1264 l 1095 1242 l 1095 1237 q 1088 1221 1093 1229 z "},"":{"ha":1092,"x_min":106,"x_max":1215,"o":"m 761 907 q 452 780 561 907 q 301 474 342 654 q 286 349 286 408 q 332 168 286 248 q 555 45 400 46 l 559 45 q 844 178 713 45 q 1013 474 976 312 l 1014 478 q 1029 609 1029 547 q 998 779 1029 699 q 761 907 947 907 m 881 1062 l 707 1188 q 680 1215 692 1199 q 669 1245 669 1228 q 670 1258 669 1251 q 718 1312 680 1297 q 749 1318 734 1318 q 785 1306 769 1318 q 836 1248 802 1295 q 882 1185 869 1202 l 944 1101 q 963 1061 963 1075 l 963 1058 q 943 1042 958 1043 q 935 1040 940 1040 q 881 1062 911 1040 m 774 994 l 781 994 q 1133 854 1009 994 q 1215 631 1215 762 q 1200 513 1215 576 q 1190 475 1196 494 q 940 106 1121 238 q 542 -37 758 -25 q 510 -38 526 -38 q 193 98 313 -38 q 106 334 106 195 q 120 456 106 392 q 127 481 124 469 q 366 854 189 716 q 774 994 543 991 z "},"":{"ha":1092,"x_min":106,"x_max":1215,"o":"m 761 907 q 452 780 561 907 q 301 474 342 654 q 286 349 286 408 q 332 168 286 248 q 555 45 400 46 l 559 45 q 844 178 713 45 q 1013 474 976 312 l 1014 478 q 1029 609 1029 547 q 998 779 1029 699 q 761 907 947 907 m 709 1061 q 649 1040 672 1040 q 640 1042 642 1040 q 624 1058 624 1044 l 624 1061 q 661 1103 627 1075 l 761 1187 q 836 1250 781 1204 q 911 1308 891 1296 q 951 1318 932 1318 q 981 1311 966 1318 q 1008 1270 1008 1298 q 1006 1253 1008 1261 q 981 1214 1001 1230 q 943 1187 961 1198 l 709 1061 m 774 994 l 781 994 q 1133 854 1009 994 q 1215 631 1215 762 q 1200 513 1215 576 q 1190 475 1196 494 q 940 106 1121 238 q 542 -37 758 -25 q 510 -38 526 -38 q 193 98 313 -38 q 106 334 106 195 q 120 456 106 392 q 127 481 124 469 q 366 854 189 716 q 774 994 543 991 z "},"":{"ha":1092,"x_min":106,"x_max":1215,"o":"m 761 907 q 452 780 561 907 q 301 474 342 654 q 286 349 286 408 q 332 168 286 248 q 555 45 400 46 l 559 45 q 844 178 713 45 q 1013 474 976 312 l 1014 478 q 1029 609 1029 547 q 998 779 1029 699 q 761 907 947 907 m 565 1042 l 798 1304 l 898 1304 l 1010 1042 l 939 1042 l 822 1176 l 643 1042 l 565 1042 m 774 994 l 781 994 q 1133 854 1009 994 q 1215 631 1215 762 q 1200 513 1215 576 q 1190 475 1196 494 q 940 106 1121 238 q 542 -37 758 -25 q 510 -38 526 -38 q 193 98 313 -38 q 106 334 106 195 q 120 456 106 392 q 127 481 124 469 q 366 854 189 716 q 774 994 543 991 z "},"":{"ha":1092,"x_min":106,"x_max":1215,"o":"m 761 907 q 452 780 561 907 q 301 474 342 654 q 286 349 286 408 q 332 168 286 248 q 555 45 400 46 l 559 45 q 844 178 713 45 q 1013 474 976 312 l 1014 478 q 1029 609 1029 547 q 998 779 1029 699 q 761 907 947 907 m 1060 1221 q 978 1107 1015 1146 q 897 1065 935 1065 q 779 1128 834 1065 q 732 1154 755 1154 q 693 1137 715 1154 q 676 1125 686 1132 q 656 1107 667 1119 q 617 1060 634 1086 q 592 1046 608 1046 q 572 1054 581 1046 q 564 1073 564 1062 l 564 1078 q 574 1098 567 1088 q 645 1202 608 1147 q 741 1257 682 1257 q 862 1192 809 1257 q 905 1166 882 1166 q 956 1187 926 1166 q 1013 1255 983 1206 q 1040 1271 1023 1271 q 1050 1269 1046 1271 q 1067 1244 1067 1264 l 1067 1242 l 1067 1237 q 1060 1221 1065 1229 m 774 994 l 781 994 q 1133 854 1009 994 q 1215 631 1215 762 q 1200 513 1215 576 q 1190 475 1196 494 q 940 106 1121 238 q 542 -37 758 -25 q 510 -38 526 -38 q 193 98 313 -38 q 106 334 106 195 q 120 456 106 392 q 127 481 124 469 q 366 854 189 716 q 774 994 543 991 z "},"":{"ha":1092,"x_min":106,"x_max":1215,"o":"m 761 907 q 452 780 561 907 q 301 474 342 654 q 286 349 286 408 q 332 168 286 248 q 555 45 400 46 l 559 45 q 844 178 713 45 q 1013 474 976 312 l 1014 478 q 1029 609 1029 547 q 998 779 1029 699 q 761 907 947 907 m 851 1160 q 887 1215 859 1191 q 951 1240 916 1240 q 1021 1186 1010 1240 q 1022 1171 1022 1178 q 1020 1152 1022 1161 q 985 1100 1013 1124 q 919 1072 950 1072 q 862 1102 886 1072 q 849 1141 849 1118 q 851 1160 849 1150 m 612 1160 q 677 1233 625 1213 q 713 1240 696 1240 q 768 1213 748 1240 q 783 1172 783 1194 q 782 1157 783 1164 q 767 1126 778 1141 q 680 1076 736 1076 q 609 1135 609 1076 q 612 1160 609 1147 m 774 994 l 781 994 q 1133 854 1009 994 q 1215 631 1215 762 q 1200 513 1215 576 q 1190 475 1196 494 q 940 106 1121 238 q 542 -37 758 -25 q 510 -38 526 -38 q 193 98 313 -38 q 106 334 106 195 q 120 456 106 392 q 127 481 124 469 q 366 854 189 716 q 774 994 543 991 z "},"":{"ha":694,"x_min":213,"x_max":707,"o":"m 383 621 l 475 500 l 625 623 q 657 637 642 637 q 682 625 673 637 l 701 600 q 707 584 707 593 q 706 578 707 580 q 687 553 703 566 l 532 427 l 627 301 q 637 279 637 289 q 635 272 637 274 q 623 255 633 262 l 592 229 q 567 220 580 220 q 536 237 549 220 l 445 356 l 296 235 q 261 220 277 220 q 237 233 245 220 l 218 258 q 213 273 213 265 l 213 277 q 232 304 216 290 l 389 431 l 292 555 q 283 576 283 566 q 283 583 283 580 q 296 602 286 593 l 327 627 q 352 637 339 637 q 383 621 369 637 z "},"":{"ha":1092,"x_min":43,"x_max":1338,"o":"m 761 907 q 452 780 561 907 q 301 474 342 654 q 286 350 286 408 q 303 229 286 273 l 1002 771 q 919 868 978 828 q 761 907 861 907 m 1027 684 l 341 152 q 555 45 408 45 l 559 45 q 844 178 713 45 q 1013 474 976 312 l 1014 478 q 1031 618 1031 554 q 1027 684 1031 667 m 1325 916 l 1173 798 q 1213 626 1213 725 q 1199 508 1213 570 q 1190 475 1194 491 q 940 106 1121 238 q 542 -37 758 -25 q 509 -38 526 -38 q 227 62 329 -38 l 109 -28 q 87 -36 98 -36 q 65 -24 72 -36 l 47 1 q 43 14 43 8 l 43 17 q 54 34 45 27 l 172 125 q 113 277 127 184 q 107 344 107 309 q 121 458 107 398 q 127 481 124 469 q 366 854 189 716 q 774 994 543 991 l 781 994 q 1125 866 1017 994 l 1271 980 q 1291 987 1281 987 q 1314 977 1304 987 l 1331 951 q 1338 937 1338 946 q 1337 931 1338 933 q 1325 916 1336 924 z "},"":{"ha":1054,"x_min":210,"x_max":1224,"o":"m 234 401 l 338 856 q 341 873 341 865 q 328 897 341 891 q 290 934 290 910 q 291 941 290 937 q 325 966 296 966 l 555 966 q 583 943 583 966 q 582 935 583 939 q 540 899 576 910 q 496 852 505 888 l 412 487 q 376 304 388 383 q 372 241 372 271 q 380 173 372 203 q 440 98 393 123 q 583 72 486 72 q 843 205 751 72 q 953 491 910 303 l 1037 855 q 1040 872 1040 865 q 1025 896 1040 890 q 988 934 988 911 q 989 941 988 937 q 1023 966 995 966 l 1196 966 q 1224 943 1224 966 q 1223 935 1224 939 q 1181 899 1217 911 q 1137 850 1145 886 l 1032 396 q 969 209 1007 294 q 868 64 931 123 q 563 -40 753 -40 q 363 -17 444 -40 q 243 68 282 6 q 210 214 210 121 q 234 401 210 293 m 873 1062 l 699 1188 q 671 1215 684 1199 q 661 1245 661 1228 q 662 1258 661 1251 q 709 1312 671 1297 q 741 1318 726 1318 q 777 1306 761 1318 q 828 1248 794 1295 q 874 1185 861 1202 l 937 1101 q 955 1062 955 1075 l 955 1059 q 935 1042 950 1043 q 926 1040 932 1040 q 873 1062 903 1040 z "},"":{"ha":1054,"x_min":210,"x_max":1224,"o":"m 234 401 l 338 856 q 341 873 341 865 q 328 897 341 891 q 290 934 290 910 q 291 941 290 937 q 325 966 296 966 l 555 966 q 583 943 583 966 q 582 935 583 939 q 540 899 576 910 q 496 852 505 888 l 412 487 q 376 304 388 383 q 372 241 372 271 q 380 173 372 203 q 440 98 393 123 q 583 72 486 72 q 843 205 751 72 q 953 491 910 303 l 1037 855 q 1040 872 1040 865 q 1025 896 1040 890 q 988 934 988 911 q 989 941 988 937 q 1023 966 995 966 l 1196 966 q 1224 943 1224 966 q 1223 935 1224 939 q 1181 899 1217 911 q 1137 850 1145 886 l 1032 396 q 969 209 1007 294 q 868 64 931 123 q 563 -40 753 -40 q 363 -17 444 -40 q 243 68 282 6 q 210 214 210 121 q 234 401 210 293 m 701 1061 q 641 1040 664 1040 q 631 1042 634 1040 q 616 1058 616 1044 l 616 1061 q 652 1103 619 1075 l 753 1187 q 828 1250 773 1204 q 903 1308 884 1296 q 943 1318 924 1318 q 973 1311 958 1318 q 1000 1270 1000 1298 q 998 1253 1000 1261 q 973 1214 993 1230 q 935 1187 953 1198 l 701 1061 z "},"":{"ha":1054,"x_min":210,"x_max":1224,"o":"m 234 401 l 338 856 q 341 873 341 865 q 328 897 341 891 q 290 934 290 910 q 291 941 290 937 q 325 966 296 966 l 555 966 q 583 943 583 966 q 582 935 583 939 q 540 899 576 910 q 496 852 505 888 l 412 487 q 376 304 388 383 q 372 241 372 271 q 380 173 372 203 q 440 98 393 123 q 583 72 486 72 q 843 205 751 72 q 953 491 910 303 l 1037 855 q 1040 872 1040 865 q 1025 896 1040 890 q 988 934 988 911 q 989 941 988 937 q 1023 966 995 966 l 1196 966 q 1224 943 1224 966 q 1223 935 1224 939 q 1181 899 1217 911 q 1137 850 1145 886 l 1032 396 q 969 209 1007 294 q 868 64 931 123 q 563 -40 753 -40 q 363 -17 444 -40 q 243 68 282 6 q 210 214 210 121 q 234 401 210 293 m 557 1042 l 790 1304 l 890 1304 l 1003 1042 l 931 1042 l 814 1176 l 635 1042 l 557 1042 z "},"":{"ha":1054,"x_min":210,"x_max":1224,"o":"m 234 401 l 338 856 q 341 873 341 865 q 328 897 341 891 q 290 934 290 910 q 291 941 290 937 q 325 966 296 966 l 555 966 q 583 943 583 966 q 582 935 583 939 q 540 899 576 910 q 496 852 505 888 l 412 487 q 376 304 388 383 q 372 241 372 271 q 380 173 372 203 q 440 98 393 123 q 583 72 486 72 q 843 205 751 72 q 953 491 910 303 l 1037 855 q 1040 872 1040 865 q 1025 896 1040 890 q 988 934 988 911 q 989 941 988 937 q 1023 966 995 966 l 1196 966 q 1224 943 1224 966 q 1223 935 1224 939 q 1181 899 1217 911 q 1137 850 1145 886 l 1032 396 q 969 209 1007 294 q 868 64 931 123 q 563 -40 753 -40 q 363 -17 444 -40 q 243 68 282 6 q 210 214 210 121 q 234 401 210 293 m 843 1160 q 879 1215 850 1191 q 943 1240 907 1240 q 1013 1186 1002 1240 q 1014 1171 1014 1178 q 1012 1152 1014 1161 q 977 1100 1005 1124 q 911 1072 942 1072 q 854 1103 877 1072 q 841 1141 841 1118 q 843 1160 841 1150 m 604 1160 q 669 1233 616 1213 q 705 1240 688 1240 q 760 1213 740 1240 q 775 1172 775 1194 q 774 1157 775 1164 q 760 1126 770 1142 q 672 1076 728 1076 q 601 1135 601 1076 q 604 1160 601 1147 z "},"":{"ha":926,"x_min":233,"x_max":1057,"o":"m 489 455 l 343 849 q 307 888 335 869 q 276 904 292 897 q 250 918 260 910 q 235 935 239 924 q 233 943 233 939 l 233 947 l 235 951 q 258 966 239 966 l 488 966 q 512 958 502 966 q 526 942 521 951 q 527 933 527 937 l 527 930 q 516 912 524 920 q 502 900 509 906 q 494 888 496 894 l 493 884 q 492 878 492 881 q 496 861 492 870 l 631 524 l 848 770 q 881 818 873 798 q 882 823 882 820 q 884 836 884 829 q 879 871 884 851 l 864 927 l 982 974 q 999 977 991 977 q 1029 957 1020 977 l 1054 888 q 1057 869 1057 879 q 1056 856 1057 863 q 1017 802 1049 829 q 920 707 973 765 l 679 444 q 653 396 665 428 q 636 335 642 364 l 581 96 q 578 79 578 87 q 592 56 578 61 q 630 18 630 41 q 629 12 630 15 q 595 -14 623 -14 l 365 -14 q 336 9 336 -14 q 337 17 336 13 q 380 53 343 41 q 425 101 416 64 l 491 391 q 495 421 495 407 q 489 455 495 439 m 701 1061 q 641 1040 664 1040 q 631 1042 634 1040 q 616 1058 616 1044 l 616 1061 q 652 1103 619 1075 l 753 1187 q 828 1250 773 1204 q 903 1308 884 1296 q 943 1318 924 1318 q 973 1311 958 1318 q 1000 1270 1000 1298 q 998 1253 1000 1261 q 973 1214 993 1230 q 935 1187 953 1198 l 701 1061 z "},"":{"ha":781,"x_min":54,"x_max":901,"o":"m 472 850 l 449 751 l 639 751 q 788 725 712 751 q 890 621 863 698 q 901 551 901 589 q 892 476 901 517 q 812 333 871 397 q 684 251 761 278 q 548 224 607 224 l 328 224 l 298 96 q 296 84 296 90 q 321 51 296 60 q 347 21 347 41 q 346 12 347 16 q 312 -14 340 -14 l 82 -14 q 54 7 54 -14 q 55 17 54 12 q 98 53 61 41 q 142 102 134 64 l 317 855 q 318 867 318 861 q 293 901 318 890 q 267 931 267 911 q 269 941 267 936 q 302 966 274 966 l 532 966 q 561 945 561 966 q 559 935 561 940 q 517 899 553 911 q 472 850 480 886 m 345 299 l 467 299 q 559 312 511 299 q 648 357 608 325 q 729 488 710 406 q 734 532 734 511 q 707 616 734 581 q 572 668 665 668 l 430 668 l 345 299 z "},"":{"ha":861,"x_min":75,"x_max":899,"o":"m 368 27 l 350 155 l 355 171 q 386 191 361 191 l 389 191 q 415 164 408 187 q 464 76 429 101 q 559 50 498 52 l 568 50 q 673 71 613 50 q 747 149 732 92 l 748 153 q 751 179 751 167 q 711 231 751 218 q 594 267 644 251 q 475 328 527 286 q 434 416 434 361 q 439 458 434 436 l 440 460 q 511 568 456 532 q 618 643 566 604 q 690 745 667 682 q 698 770 695 758 q 702 805 702 789 q 693 850 702 830 q 619 892 675 887 q 605 893 612 893 q 524 859 557 893 q 481 784 494 829 q 458 694 468 739 l 320 96 q 317 79 317 87 q 331 56 317 61 q 368 27 361 44 m 369 16 q 368 12 368 14 q 334 -14 362 -14 l 104 -14 q 75 9 75 -14 q 76 17 75 13 q 119 53 82 41 q 163 101 155 64 l 301 699 q 345 821 316 761 q 425 925 374 881 q 623 1008 516 1008 q 671 1004 646 1008 q 828 861 795 981 q 835 810 835 835 q 831 771 835 790 q 745 643 814 703 q 650 574 699 603 q 583 505 601 545 q 574 480 576 491 q 572 465 572 471 q 591 432 572 442 q 688 395 631 409 q 841 341 774 375 q 899 234 899 311 q 895 189 899 214 l 892 180 q 827 75 880 127 q 680 -12 770 18 q 559 -31 624 -28 l 541 -31 q 372 -5 456 -31 l 369 16 z "},"":{"ha":783,"x_min":81,"x_max":824,"o":"m 532 37 l 358 -22 q 314 -31 332 -31 l 286 -31 q 123 55 181 -25 q 81 196 81 115 q 84 245 81 220 q 95 301 88 274 q 115 370 103 336 q 189 490 138 431 q 267 555 214 521 q 309 575 286 566 q 427 616 369 596 q 546 657 486 636 q 575 662 562 662 l 579 662 q 685 639 625 660 q 695 635 694 635 q 725 623 705 630 q 734 621 730 621 q 743 624 739 621 q 766 642 759 635 q 789 652 774 652 q 803 650 796 652 q 824 626 824 641 l 824 623 l 703 96 q 701 79 701 87 q 714 56 701 61 q 752 18 752 41 q 751 12 752 15 q 717 -14 745 -14 l 552 -14 q 526 6 526 -14 l 526 10 l 532 37 m 644 519 q 590 558 627 538 q 523 579 553 578 l 521 579 q 499 575 511 579 q 447 557 473 566 q 394 539 420 548 q 368 525 378 533 q 290 420 318 481 q 258 328 268 374 q 252 298 254 313 q 248 240 248 267 q 267 145 248 184 q 353 71 295 88 q 397 64 374 64 q 413 65 404 64 q 446 73 425 66 q 498 91 462 78 q 549 109 534 103 l 644 519 m 574 752 l 399 879 q 373 905 385 889 q 363 934 363 919 q 364 947 363 941 q 410 1001 374 986 q 441 1008 426 1008 q 479 996 463 1008 q 529 938 496 984 q 576 875 562 892 l 638 791 q 656 752 656 765 l 656 749 q 635 731 654 733 q 627 730 633 730 q 574 752 604 730 z "},"":{"ha":783,"x_min":81,"x_max":824,"o":"m 532 37 l 358 -22 q 314 -31 332 -31 l 286 -31 q 123 55 181 -25 q 81 196 81 115 q 84 245 81 220 q 95 301 88 274 q 115 370 103 336 q 189 490 138 431 q 267 555 214 521 q 309 575 286 566 q 427 616 369 596 q 546 657 486 636 q 575 662 562 662 l 579 662 q 685 639 625 660 q 695 635 694 635 q 725 623 705 630 q 734 621 730 621 q 743 624 739 621 q 766 642 759 635 q 789 652 774 652 q 803 650 796 652 q 824 626 824 641 l 824 623 l 703 96 q 701 79 701 87 q 714 56 701 61 q 752 18 752 41 q 751 12 752 15 q 717 -14 745 -14 l 552 -14 q 526 6 526 -14 l 526 10 l 532 37 m 644 519 q 590 558 627 538 q 523 579 553 578 l 521 579 q 499 575 511 579 q 447 557 473 566 q 394 539 420 548 q 368 525 378 533 q 290 420 318 481 q 258 328 268 374 q 252 298 254 313 q 248 240 248 267 q 267 145 248 184 q 353 71 295 88 q 397 64 374 64 q 413 65 404 64 q 446 73 425 66 q 498 91 462 78 q 549 109 534 103 l 644 519 m 416 751 q 355 730 378 730 q 346 732 349 730 q 330 749 330 734 l 330 751 q 368 793 334 765 l 469 878 q 543 940 488 895 q 618 998 598 986 q 657 1008 638 1008 q 688 1000 673 1008 q 715 959 715 987 q 713 942 715 951 q 688 904 707 920 q 651 878 669 888 l 416 751 z "},"":{"ha":783,"x_min":81,"x_max":824,"o":"m 532 37 l 358 -22 q 314 -31 332 -31 l 286 -31 q 123 55 181 -25 q 81 196 81 115 q 84 245 81 220 q 95 301 88 274 q 115 370 103 336 q 189 490 138 431 q 267 555 214 521 q 309 575 286 566 q 427 616 369 596 q 546 657 486 636 q 575 662 562 662 l 579 662 q 685 639 625 660 q 695 635 694 635 q 725 623 705 630 q 734 621 730 621 q 743 624 739 621 q 766 642 759 635 q 789 652 774 652 q 803 650 796 652 q 824 626 824 641 l 824 623 l 703 96 q 701 79 701 87 q 714 56 701 61 q 752 18 752 41 q 751 12 752 15 q 717 -14 745 -14 l 552 -14 q 526 6 526 -14 l 526 10 l 532 37 m 644 519 q 590 558 627 538 q 523 579 553 578 l 521 579 q 499 575 511 579 q 447 557 473 566 q 394 539 420 548 q 368 525 378 533 q 290 420 318 481 q 258 328 268 374 q 252 298 254 313 q 248 240 248 267 q 267 145 248 184 q 353 71 295 88 q 397 64 374 64 q 413 65 404 64 q 446 73 425 66 q 498 91 462 78 q 549 109 534 103 l 644 519 m 305 730 l 538 992 l 639 992 l 751 730 l 680 730 l 563 865 l 383 730 l 305 730 z "},"":{"ha":783,"x_min":81,"x_max":841,"o":"m 532 37 l 358 -22 q 314 -31 332 -31 l 286 -31 q 123 55 181 -25 q 81 196 81 115 q 84 245 81 220 q 95 301 88 274 q 115 370 103 336 q 189 490 138 431 q 267 555 214 521 q 309 575 286 566 q 427 616 369 596 q 546 657 486 636 q 575 662 562 662 l 579 662 q 685 639 625 660 q 695 635 694 635 q 725 623 705 630 q 734 621 730 621 q 743 624 739 621 q 766 642 759 635 q 789 652 774 652 q 803 650 796 652 q 824 626 824 641 l 824 623 l 703 96 q 701 79 701 87 q 714 56 701 61 q 752 18 752 41 q 751 12 752 15 q 717 -14 745 -14 l 552 -14 q 526 6 526 -14 l 526 10 l 532 37 m 644 519 q 590 558 627 538 q 523 579 553 578 l 521 579 q 499 575 511 579 q 447 557 473 566 q 394 539 420 548 q 368 525 378 533 q 290 420 318 481 q 258 328 268 374 q 252 298 254 313 q 248 240 248 267 q 267 145 248 184 q 353 71 295 88 q 397 64 374 64 q 413 65 404 64 q 446 73 425 66 q 498 91 462 78 q 549 109 534 103 l 644 519 m 834 916 q 751 801 786 838 q 669 759 709 759 q 552 821 608 759 q 506 847 528 847 q 465 831 487 847 q 449 819 458 825 q 428 801 440 812 q 389 753 412 783 q 364 739 379 739 q 345 749 352 739 q 336 766 336 755 q 337 772 336 769 q 347 791 339 781 q 417 896 380 840 q 513 951 454 951 q 635 886 583 951 q 678 860 656 860 q 729 881 700 860 q 787 948 754 899 q 813 964 795 964 l 819 964 q 841 937 841 958 l 841 934 l 839 929 q 834 916 838 923 z "},"":{"ha":783,"x_min":81,"x_max":824,"o":"m 532 37 l 358 -22 q 314 -31 332 -31 l 286 -31 q 123 55 181 -25 q 81 196 81 115 q 84 245 81 220 q 95 301 88 274 q 115 370 103 336 q 189 490 138 431 q 267 555 214 521 q 309 575 286 566 q 427 616 369 596 q 546 657 486 636 q 575 662 562 662 l 579 662 q 685 639 625 660 q 695 635 694 635 q 725 623 705 630 q 734 621 730 621 q 743 624 739 621 q 766 642 759 635 q 789 652 774 652 q 803 650 796 652 q 824 626 824 641 l 824 623 l 703 96 q 701 79 701 87 q 714 56 701 61 q 752 18 752 41 q 751 12 752 15 q 717 -14 745 -14 l 552 -14 q 526 6 526 -14 l 526 10 l 532 37 m 644 519 q 590 558 627 538 q 523 579 553 578 l 521 579 q 499 575 511 579 q 447 557 473 566 q 394 539 420 548 q 368 525 378 533 q 290 420 318 481 q 258 328 268 374 q 252 298 254 313 q 248 240 248 267 q 267 145 248 184 q 353 71 295 88 q 397 64 374 64 q 413 65 404 64 q 446 73 425 66 q 498 91 462 78 q 549 109 534 103 l 644 519 m 625 857 q 661 912 633 888 q 725 937 690 937 q 795 883 786 937 q 796 867 796 875 q 794 849 796 858 q 759 797 787 821 q 702 773 729 773 q 692 772 701 772 q 636 800 654 772 q 623 838 623 815 q 625 857 623 847 m 385 857 q 451 930 398 911 q 486 937 470 937 q 542 909 521 937 q 557 869 557 890 q 555 854 557 862 q 541 823 552 839 q 454 773 510 773 q 382 832 382 773 q 385 857 382 844 z "},"":{"ha":783,"x_min":81,"x_max":824,"o":"m 532 37 l 358 -22 q 314 -31 332 -31 l 286 -31 q 123 55 181 -25 q 81 196 81 115 q 84 245 81 220 q 95 301 88 274 q 115 370 103 336 q 189 490 138 431 q 267 555 214 521 q 309 575 286 566 q 427 616 369 596 q 546 657 486 636 q 575 662 562 662 l 579 662 q 685 639 625 660 q 695 635 694 635 q 725 623 705 630 q 734 621 730 621 q 743 624 739 621 q 766 642 759 635 q 789 652 774 652 q 803 650 796 652 q 824 626 824 641 l 824 623 l 703 96 q 701 79 701 87 q 714 56 701 61 q 752 18 752 41 q 751 12 752 15 q 717 -14 745 -14 l 552 -14 q 526 6 526 -14 l 526 10 l 532 37 m 644 519 q 590 558 627 538 q 523 579 553 578 l 521 579 q 499 575 511 579 q 447 557 473 566 q 394 539 420 548 q 368 525 378 533 q 290 420 318 481 q 258 328 268 374 q 252 298 254 313 q 248 240 248 267 q 267 145 248 184 q 353 71 295 88 q 397 64 374 64 q 413 65 404 64 q 446 73 425 66 q 498 91 462 78 q 549 109 534 103 l 644 519 m 634 1042 q 732 996 698 1042 q 756 925 756 964 q 752 891 756 909 q 685 788 738 831 q 572 745 633 745 q 473 791 507 745 q 449 861 449 822 q 453 896 449 878 q 520 999 467 955 q 634 1042 572 1042 m 625 996 q 574 968 599 996 q 542 901 551 941 l 539 892 q 536 863 536 877 q 547 816 536 836 q 583 791 560 791 q 632 819 607 791 q 666 888 656 848 l 667 896 q 670 923 670 909 q 660 971 670 949 q 625 996 646 996 z "},"":{"ha":1195,"x_min":81,"x_max":1252,"o":"m 784 595 q 1012 665 877 663 l 1015 665 q 1215 581 1158 665 q 1252 455 1252 528 q 1242 371 1252 416 q 1229 327 1234 343 q 1183 311 1223 311 l 766 311 q 760 246 760 281 q 781 147 760 190 q 884 66 814 81 q 926 62 905 62 q 1060 97 986 62 q 1126 120 1108 120 q 1146 112 1138 120 q 1149 102 1149 106 q 1132 67 1149 91 q 1112 43 1118 50 q 1098 33 1105 37 q 872 -35 1004 -35 q 629 66 694 -33 l 357 -22 q 314 -31 332 -31 l 286 -31 q 123 55 180 -25 q 81 196 81 115 q 84 245 81 220 q 115 371 93 312 q 188 490 137 430 q 267 555 214 522 q 308 575 285 566 q 426 616 367 595 q 546 656 486 636 q 575 662 561 662 l 579 662 q 685 639 625 660 q 784 595 753 611 m 643 519 q 590 558 627 538 q 522 579 553 578 l 520 579 q 499 575 510 579 q 446 557 472 566 q 393 539 419 548 q 368 524 378 534 q 289 420 318 481 q 252 298 260 358 q 246 239 246 267 q 267 145 246 184 q 351 71 296 88 q 397 64 374 64 q 412 65 404 64 q 446 73 425 66 q 497 91 461 78 q 548 109 533 103 l 643 519 m 783 387 l 1106 387 q 1112 448 1112 414 q 1102 522 1112 488 q 1002 578 1084 578 l 994 578 q 853 513 907 575 q 783 387 800 450 z "},"":{"ha":627,"x_min":94,"x_max":749,"o":"m 256 -28 l 329 -36 q 319 -58 321 -46 q 317 -67 317 -62 q 323 -83 317 -77 q 361 -127 340 -106 q 389 -193 389 -155 q 385 -222 389 -207 l 384 -229 q 270 -301 365 -294 l 259 -301 q 153 -278 216 -301 l 154 -190 q 228 -233 205 -233 q 266 -221 245 -233 q 286 -196 283 -211 q 288 -189 288 -193 q 268 -147 288 -172 q 238 -95 250 -125 q 235 -77 235 -86 q 236 -63 235 -70 q 256 -28 241 -42 m 526 662 l 541 662 q 749 593 658 662 l 708 471 q 681 452 701 452 l 677 452 q 653 477 658 454 q 608 554 641 531 q 519 576 575 576 l 503 576 q 389 538 435 573 q 320 456 348 505 q 279 349 293 409 q 272 309 275 330 q 267 246 267 276 q 287 150 267 191 q 394 62 328 73 q 416 60 404 60 q 552 99 473 60 q 618 122 600 122 q 635 117 629 122 q 640 104 640 111 l 640 100 q 624 69 637 89 q 589 33 608 47 q 477 -17 540 -3 q 362 -31 415 -31 q 154 45 228 -30 q 94 201 94 104 q 98 254 94 226 q 109 313 102 284 q 131 385 118 350 q 207 509 154 448 q 345 616 262 574 q 526 662 428 658 z "},"":{"ha":678,"x_min":77,"x_max":747,"o":"m 347 -31 q 100 98 151 -31 q 77 214 77 153 q 87 302 77 257 q 111 378 96 339 q 262 587 163 511 q 500 662 361 662 q 747 466 747 662 q 735 371 747 423 q 722 327 728 343 q 677 311 716 311 l 262 311 q 254 235 254 275 q 277 130 254 174 q 414 60 315 60 q 471 67 439 60 q 554 97 504 74 q 619 120 601 120 q 639 113 629 120 q 642 102 642 106 l 642 98 q 625 67 640 85 q 605 43 612 50 q 593 33 598 37 q 470 -19 534 -8 q 347 -31 405 -31 m 279 387 l 600 387 q 609 466 609 428 q 594 534 609 509 q 487 576 568 576 q 350 519 404 576 q 279 387 297 461 m 574 752 l 399 879 q 373 905 385 889 q 363 934 363 919 q 364 947 363 941 q 410 1001 374 986 q 441 1008 426 1008 q 479 996 463 1008 q 529 938 496 984 q 576 875 562 892 l 638 791 q 656 752 656 765 l 656 749 q 635 731 654 733 q 627 730 633 730 q 574 752 604 730 z "},"":{"ha":678,"x_min":77,"x_max":747,"o":"m 347 -31 q 100 98 151 -31 q 77 214 77 153 q 87 302 77 257 q 111 378 96 339 q 262 587 163 511 q 500 662 361 662 q 747 466 747 662 q 735 371 747 423 q 722 327 728 343 q 677 311 716 311 l 262 311 q 254 235 254 275 q 277 130 254 174 q 414 60 315 60 q 471 67 439 60 q 554 97 504 74 q 619 120 601 120 q 639 113 629 120 q 642 102 642 106 l 642 98 q 625 67 640 85 q 605 43 612 50 q 593 33 598 37 q 470 -19 534 -8 q 347 -31 405 -31 m 279 387 l 600 387 q 609 466 609 428 q 594 534 609 509 q 487 576 568 576 q 350 519 404 576 q 279 387 297 461 m 420 751 q 359 730 382 730 q 350 732 353 730 q 334 749 334 734 l 334 751 q 371 793 338 765 l 472 878 q 547 940 492 895 q 622 998 602 986 q 661 1008 642 1008 q 692 1000 677 1008 q 719 959 719 987 q 716 942 719 951 q 691 904 711 920 q 654 878 672 888 l 420 751 z "},"":{"ha":678,"x_min":77,"x_max":747,"o":"m 347 -31 q 100 98 151 -31 q 77 214 77 153 q 87 302 77 257 q 111 378 96 339 q 262 587 163 511 q 500 662 361 662 q 747 466 747 662 q 735 371 747 423 q 722 327 728 343 q 677 311 716 311 l 262 311 q 254 235 254 275 q 277 130 254 174 q 414 60 315 60 q 471 67 439 60 q 554 97 504 74 q 619 120 601 120 q 639 113 629 120 q 642 102 642 106 l 642 98 q 625 67 640 85 q 605 43 612 50 q 593 33 598 37 q 470 -19 534 -8 q 347 -31 405 -31 m 279 387 l 600 387 q 609 466 609 428 q 594 534 609 509 q 487 576 568 576 q 350 519 404 576 q 279 387 297 461 m 275 730 l 509 992 l 608 992 l 721 730 l 650 730 l 532 865 l 353 730 l 275 730 z "},"":{"ha":678,"x_min":77,"x_max":747,"o":"m 347 -31 q 100 98 151 -31 q 77 214 77 153 q 87 302 77 257 q 111 378 96 339 q 262 587 163 511 q 500 662 361 662 q 747 466 747 662 q 735 371 747 423 q 722 327 728 343 q 677 311 716 311 l 262 311 q 254 235 254 275 q 277 130 254 174 q 414 60 315 60 q 471 67 439 60 q 554 97 504 74 q 619 120 601 120 q 639 113 629 120 q 642 102 642 106 l 642 98 q 625 67 640 85 q 605 43 612 50 q 593 33 598 37 q 470 -19 534 -8 q 347 -31 405 -31 m 279 387 l 600 387 q 609 466 609 428 q 594 534 609 509 q 487 576 568 576 q 350 519 404 576 q 279 387 297 461 m 564 859 q 600 913 572 889 q 664 938 629 938 q 733 884 724 938 q 734 869 734 876 q 732 850 734 859 q 697 798 726 822 q 640 774 667 774 q 631 774 640 774 q 574 801 593 774 q 562 838 562 817 q 564 859 562 848 m 324 859 q 390 931 336 910 q 425 938 409 938 q 481 911 460 938 q 495 871 495 892 q 494 856 495 864 q 480 824 490 840 q 392 774 448 774 q 321 832 321 774 q 324 859 321 844 z "},"":{"ha":404,"x_min":62,"x_max":548,"o":"m 439 671 l 307 96 q 304 79 304 87 q 317 56 304 61 q 355 18 355 41 q 354 12 355 15 q 321 -14 349 -14 l 91 -14 q 62 9 62 -14 q 63 17 62 13 q 106 53 69 41 q 151 101 142 64 l 245 512 q 248 528 248 521 q 234 553 248 548 q 196 591 196 567 q 197 597 196 594 q 231 623 203 623 q 319 636 274 625 q 439 671 364 648 m 466 752 l 291 879 q 265 905 277 889 q 254 934 254 918 q 256 947 254 941 q 302 1001 265 987 q 334 1008 318 1008 q 371 996 354 1008 q 421 938 387 984 q 468 875 454 892 l 530 791 q 548 751 548 765 l 548 749 q 528 731 545 733 q 519 730 525 730 q 466 752 496 730 z "},"":{"ha":404,"x_min":62,"x_max":594,"o":"m 439 671 l 307 96 q 304 79 304 87 q 317 56 304 61 q 355 18 355 41 q 354 12 355 15 q 321 -14 349 -14 l 91 -14 q 62 9 62 -14 q 63 17 62 13 q 106 53 69 41 q 151 101 142 64 l 245 512 q 248 528 248 521 q 234 553 248 548 q 196 591 196 567 q 197 597 196 594 q 231 623 203 623 q 319 636 274 625 q 439 671 364 648 m 294 751 q 234 730 257 730 q 224 732 227 730 q 209 749 209 734 l 209 751 q 246 793 212 765 l 347 878 q 421 941 366 895 q 497 998 476 987 q 536 1008 517 1008 q 567 1000 552 1008 q 594 959 594 987 q 591 942 594 951 q 566 904 586 920 q 529 878 547 888 l 294 751 z "},"":{"ha":404,"x_min":62,"x_max":595,"o":"m 439 671 l 307 96 q 304 79 304 87 q 317 56 304 61 q 355 18 355 41 q 354 12 355 15 q 321 -14 349 -14 l 91 -14 q 62 9 62 -14 q 63 17 62 13 q 106 53 69 41 q 151 101 142 64 l 245 512 q 248 528 248 521 q 234 553 248 548 q 196 591 196 567 q 197 597 196 594 q 231 623 203 623 q 319 636 274 625 q 439 671 364 648 m 150 730 l 383 992 l 483 992 l 595 730 l 524 730 l 407 865 l 228 730 l 150 730 z "},"":{"ha":404,"x_min":62,"x_max":609,"o":"m 439 671 l 307 96 q 304 79 304 87 q 317 56 304 61 q 355 18 355 41 q 354 12 355 15 q 321 -14 349 -14 l 91 -14 q 62 9 62 -14 q 63 17 62 13 q 106 53 69 41 q 151 101 142 64 l 245 512 q 248 528 248 521 q 234 553 248 548 q 196 591 196 567 q 197 597 196 594 q 231 623 203 623 q 319 636 274 625 q 439 671 364 648 m 439 859 q 475 913 446 889 q 538 938 503 938 q 608 884 598 938 q 609 869 609 876 q 607 850 609 859 q 572 798 600 822 q 515 774 542 774 l 514 774 q 449 801 469 774 q 436 838 436 817 q 439 859 436 848 m 199 859 q 265 931 212 910 q 300 938 284 938 q 356 911 335 938 q 370 871 370 892 q 369 856 370 864 q 355 824 365 840 q 267 774 323 774 q 196 832 196 774 q 199 859 196 844 z "},"":{"ha":749,"x_min":92,"x_max":863,"o":"m 520 592 l 513 592 q 372 519 441 592 q 269 321 296 439 l 268 319 q 257 228 257 271 q 279 117 257 167 q 386 34 313 37 l 394 34 q 534 106 465 34 q 638 304 610 186 q 650 397 650 354 q 628 509 650 458 q 520 592 593 589 m 364 712 q 350 745 355 734 q 338 777 346 755 q 539 861 453 818 q 429 948 502 903 q 412 972 412 960 l 412 975 q 418 985 414 981 q 437 1008 425 994 q 472 1027 451 1027 q 495 1021 483 1027 q 633 911 585 959 q 823 1038 719 962 q 845 1005 840 1014 q 863 980 851 997 q 685 856 767 903 q 804 625 768 760 q 822 485 822 559 q 802 311 822 403 l 801 307 q 646 65 768 164 q 374 -41 522 -37 l 365 -41 q 145 64 223 -41 q 92 231 92 138 q 101 312 92 271 l 101 314 q 278 577 138 471 q 325 601 296 591 q 408 629 354 610 q 481 654 442 641 q 544 667 519 667 l 547 667 q 654 647 629 663 q 627 720 648 669 q 585 802 606 770 q 364 712 497 756 z "},"":{"ha":808,"x_min":41,"x_max":854,"o":"m 401 601 q 444 616 413 605 q 503 636 475 627 q 644 665 573 659 q 663 666 653 666 q 775 623 727 666 q 819 490 819 582 q 799 341 819 428 l 743 96 q 740 79 740 87 q 753 56 740 61 q 791 18 791 41 q 790 12 791 15 q 757 -14 785 -14 l 592 -14 q 566 6 566 -14 l 566 10 l 643 345 q 657 452 657 406 q 632 545 657 513 q 559 577 606 577 q 491 565 530 577 q 450 552 475 560 q 407 536 426 543 q 385 529 390 531 l 286 96 q 283 79 283 87 q 296 56 283 61 q 334 18 334 41 q 333 12 334 15 q 300 -14 328 -14 l 70 -14 q 41 9 41 -14 q 42 17 41 13 q 85 53 48 41 q 130 101 121 64 l 229 536 q 232 552 232 545 q 218 576 232 570 q 180 614 180 591 q 182 621 180 617 q 215 646 187 646 q 303 659 258 648 q 423 694 349 671 l 401 601 m 848 915 q 764 800 800 836 q 683 758 722 758 q 566 820 621 758 q 519 846 543 846 q 479 829 501 846 q 463 817 472 824 q 442 799 454 810 q 404 752 423 781 q 378 738 394 738 q 359 746 367 738 q 351 764 351 754 q 351 770 351 767 q 361 790 353 779 q 432 894 395 839 q 528 949 469 949 q 649 884 596 949 q 692 859 669 859 q 742 879 713 859 q 800 946 770 898 q 827 962 809 962 l 832 962 q 854 937 854 956 l 854 934 l 853 929 q 848 915 851 922 z "},"":{"ha":751,"x_min":88,"x_max":807,"o":"m 542 662 q 756 553 682 656 q 807 391 807 481 q 798 313 807 354 l 798 309 q 644 73 765 169 q 371 -31 519 -26 l 360 -31 q 144 73 220 -31 q 88 237 88 146 q 98 315 88 275 l 98 317 q 273 574 134 471 q 319 598 290 589 q 404 625 349 608 q 475 650 435 636 q 539 662 514 662 l 542 662 m 515 589 l 508 589 q 368 518 437 589 q 264 324 291 439 q 254 234 254 276 q 276 125 254 174 q 383 43 311 46 l 392 43 q 532 114 463 43 q 634 307 608 192 q 645 397 645 355 q 623 507 645 457 q 515 589 587 585 m 640 752 l 466 878 q 439 905 451 889 q 429 934 429 919 q 430 947 429 941 q 477 1001 439 987 q 508 1008 492 1008 q 545 996 528 1008 q 595 938 562 984 q 642 875 629 892 l 704 791 q 722 751 722 765 l 722 749 q 702 731 720 733 q 694 730 699 730 q 640 752 671 730 z "},"":{"ha":751,"x_min":88,"x_max":807,"o":"m 542 662 q 756 553 682 656 q 807 391 807 481 q 798 313 807 354 l 798 309 q 644 73 765 169 q 371 -31 519 -26 l 360 -31 q 144 73 220 -31 q 88 237 88 146 q 98 315 88 275 l 98 317 q 273 574 134 471 q 319 598 290 589 q 404 625 349 608 q 475 650 435 636 q 539 662 514 662 l 542 662 m 515 589 l 508 589 q 368 518 437 589 q 264 324 291 439 q 254 234 254 276 q 276 125 254 174 q 383 43 311 46 l 392 43 q 532 114 463 43 q 634 307 608 192 q 645 397 645 355 q 623 507 645 457 q 515 589 587 585 m 469 751 q 408 730 431 730 q 399 732 401 730 q 383 749 383 734 l 383 751 q 420 793 387 765 l 521 878 q 595 940 541 895 q 671 998 650 986 q 709 1008 690 1008 q 741 1000 726 1008 q 768 959 768 987 q 765 942 768 951 q 740 904 760 920 q 703 878 721 888 l 469 751 z "},"":{"ha":751,"x_min":88,"x_max":807,"o":"m 542 662 q 756 553 682 656 q 807 391 807 481 q 798 313 807 354 l 798 309 q 644 73 765 169 q 371 -31 519 -26 l 360 -31 q 144 73 220 -31 q 88 237 88 146 q 98 315 88 275 l 98 317 q 273 574 134 471 q 319 598 290 589 q 404 625 349 608 q 475 650 435 636 q 539 662 514 662 l 542 662 m 515 589 l 508 589 q 368 518 437 589 q 264 324 291 439 q 254 234 254 276 q 276 125 254 174 q 383 43 311 46 l 392 43 q 532 114 463 43 q 634 307 608 192 q 645 397 645 355 q 623 507 645 457 q 515 589 587 585 m 311 730 l 544 992 l 644 992 l 757 730 l 686 730 l 568 865 l 389 730 l 311 730 z "},"":{"ha":751,"x_min":88,"x_max":827,"o":"m 542 662 q 756 553 682 656 q 807 391 807 481 q 798 313 807 354 l 798 309 q 644 73 765 169 q 371 -31 519 -26 l 360 -31 q 144 73 220 -31 q 88 237 88 146 q 98 315 88 275 l 98 317 q 273 574 134 471 q 319 598 290 589 q 404 625 349 608 q 475 650 435 636 q 539 662 514 662 l 542 662 m 515 589 l 508 589 q 368 518 437 589 q 264 324 291 439 q 254 234 254 276 q 276 125 254 174 q 383 43 311 46 l 392 43 q 532 114 463 43 q 634 307 608 192 q 645 397 645 355 q 623 507 645 457 q 515 589 587 585 m 820 913 q 737 800 773 836 q 656 758 695 758 q 539 820 594 758 q 493 846 515 846 q 453 829 475 846 q 436 818 446 824 q 416 800 427 811 q 376 751 395 779 q 351 738 367 738 q 332 746 340 738 q 323 764 323 754 q 324 770 323 767 q 334 790 326 779 q 405 894 368 839 q 501 949 442 949 q 623 884 570 949 q 665 859 643 859 q 715 879 687 859 q 773 947 743 899 q 800 962 783 962 l 806 962 q 827 937 827 956 l 827 934 l 827 929 q 820 913 825 921 z "},"":{"ha":751,"x_min":88,"x_max":807,"o":"m 542 662 q 756 553 682 656 q 807 391 807 481 q 798 313 807 354 l 798 309 q 644 73 765 169 q 371 -31 519 -26 l 360 -31 q 144 73 220 -31 q 88 237 88 146 q 98 315 88 275 l 98 317 q 273 574 134 471 q 319 598 290 589 q 404 625 349 608 q 475 650 435 636 q 539 662 514 662 l 542 662 m 515 589 l 508 589 q 368 518 437 589 q 264 324 291 439 q 254 234 254 276 q 276 125 254 174 q 383 43 311 46 l 392 43 q 532 114 463 43 q 634 307 608 192 q 645 397 645 355 q 623 507 645 457 q 515 589 587 585 m 613 859 q 649 913 621 889 q 713 938 677 938 q 782 884 772 938 q 783 869 783 876 q 781 850 783 859 q 746 798 774 822 q 689 774 716 774 q 680 774 688 774 q 623 801 642 774 q 610 838 610 817 q 613 859 610 848 m 373 859 q 439 931 385 910 q 474 938 458 938 q 530 911 509 938 q 545 869 545 891 q 543 854 545 862 q 529 824 539 840 q 441 774 497 774 q 370 832 370 774 q 373 859 370 844 z "},"":{"ha":694,"x_min":188,"x_max":732,"o":"m 243 477 l 693 477 q 732 451 732 477 q 731 444 732 448 l 723 408 q 677 379 716 379 l 227 379 q 188 406 188 379 q 189 413 188 409 l 197 448 q 243 477 203 477 m 491 550 q 434 577 452 550 q 420 614 420 593 q 422 633 420 624 q 458 688 430 666 q 522 711 486 711 q 579 685 560 711 q 593 646 593 668 q 591 629 593 637 q 555 574 583 596 q 491 550 526 550 m 397 144 q 340 170 360 144 q 327 208 327 187 q 329 227 327 218 q 364 281 336 260 q 428 305 393 305 q 486 279 465 305 q 500 240 500 262 q 498 222 500 231 q 461 168 490 191 q 397 144 432 144 z "},"":{"ha":751,"x_min":12,"x_max":890,"o":"m 21 20 l 123 102 q 88 237 88 159 q 97 313 88 274 l 98 317 q 273 574 134 471 q 319 598 290 589 q 404 625 349 608 q 475 650 435 636 q 539 662 514 662 l 542 662 q 728 587 665 658 l 829 667 q 846 673 837 673 q 866 665 857 673 l 886 638 q 890 627 890 633 l 890 624 q 880 610 888 615 l 774 525 q 806 391 806 469 q 798 313 806 353 l 798 309 q 644 73 765 169 q 371 -31 519 -26 l 361 -31 q 170 41 237 -31 l 73 -35 q 55 -42 64 -42 q 36 -33 43 -42 l 16 -7 q 12 4 12 -1 l 12 7 q 21 20 14 15 m 254 206 l 625 503 q 515 589 593 585 l 508 589 q 368 518 437 589 q 264 324 291 439 q 254 235 254 277 l 254 206 m 645 422 l 275 126 q 383 43 307 47 l 392 43 q 532 114 463 43 q 634 307 608 192 q 645 395 645 354 l 645 422 z "},"":{"ha":840,"x_min":155,"x_max":883,"o":"m 745 96 q 743 79 743 87 q 756 56 743 61 q 794 18 794 41 q 793 12 794 15 q 759 -14 787 -14 l 594 -14 q 568 6 568 -14 l 568 10 l 572 31 q 529 15 561 26 q 471 -5 498 3 q 331 -33 401 -26 q 311 -34 320 -34 q 199 9 247 -34 q 155 141 155 50 q 175 290 155 203 l 231 536 q 234 552 234 545 q 220 576 234 570 q 182 614 182 591 q 184 621 182 617 q 217 646 189 646 q 306 659 260 648 q 426 694 351 671 l 332 286 q 317 179 317 224 q 342 87 317 118 q 416 54 368 54 q 484 66 445 54 q 524 80 499 71 q 566 94 549 88 q 578 98 570 96 q 589 102 587 101 l 688 536 q 691 552 691 545 q 677 576 691 570 q 640 614 640 591 q 641 621 640 617 q 674 646 646 646 q 763 659 718 648 q 883 694 808 671 l 745 96 m 667 752 l 492 879 q 467 905 479 889 q 456 934 456 919 q 458 947 456 941 q 504 1001 467 986 q 535 1008 519 1008 q 573 996 556 1008 q 623 938 589 984 q 669 875 656 892 l 732 791 q 749 752 749 765 l 749 749 q 730 732 747 733 q 722 730 727 730 q 667 752 698 730 z "},"":{"ha":840,"x_min":155,"x_max":883,"o":"m 745 96 q 743 79 743 87 q 756 56 743 61 q 794 18 794 41 q 793 12 794 15 q 759 -14 787 -14 l 594 -14 q 568 6 568 -14 l 568 10 l 572 31 q 529 15 561 26 q 471 -5 498 3 q 331 -33 401 -26 q 311 -34 320 -34 q 199 9 247 -34 q 155 141 155 50 q 175 290 155 203 l 231 536 q 234 552 234 545 q 220 576 234 570 q 182 614 182 591 q 184 621 182 617 q 217 646 189 646 q 306 659 260 648 q 426 694 351 671 l 332 286 q 317 179 317 224 q 342 87 317 118 q 416 54 368 54 q 484 66 445 54 q 524 80 499 71 q 566 94 549 88 q 578 98 570 96 q 589 102 587 101 l 688 536 q 691 552 691 545 q 677 576 691 570 q 640 614 640 591 q 641 621 640 617 q 674 646 646 646 q 763 659 718 648 q 883 694 808 671 l 745 96 m 496 751 q 436 730 459 730 q 427 732 431 730 q 410 749 410 734 l 410 751 q 448 793 414 765 l 549 878 q 623 940 568 895 q 699 998 678 986 q 737 1008 718 1008 q 768 1000 753 1008 q 795 959 795 987 q 793 942 795 951 q 768 904 787 920 q 731 878 749 888 l 496 751 z "},"":{"ha":840,"x_min":155,"x_max":883,"o":"m 745 96 q 743 79 743 87 q 756 56 743 61 q 794 18 794 41 q 793 12 794 15 q 759 -14 787 -14 l 594 -14 q 568 6 568 -14 l 568 10 l 572 31 q 529 15 561 26 q 471 -5 498 3 q 331 -33 401 -26 q 311 -34 320 -34 q 199 9 247 -34 q 155 141 155 50 q 175 290 155 203 l 231 536 q 234 552 234 545 q 220 576 234 570 q 182 614 182 591 q 184 621 182 617 q 217 646 189 646 q 306 659 260 648 q 426 694 351 671 l 332 286 q 317 179 317 224 q 342 87 317 118 q 416 54 368 54 q 484 66 445 54 q 524 80 499 71 q 566 94 549 88 q 578 98 570 96 q 589 102 587 101 l 688 536 q 691 552 691 545 q 677 576 691 570 q 640 614 640 591 q 641 621 640 617 q 674 646 646 646 q 763 659 718 648 q 883 694 808 671 l 745 96 m 351 730 l 585 992 l 685 992 l 798 730 l 726 730 l 609 865 l 429 730 l 351 730 z "},"":{"ha":840,"x_min":155,"x_max":883,"o":"m 745 96 q 743 79 743 87 q 756 56 743 61 q 794 18 794 41 q 793 12 794 15 q 759 -14 787 -14 l 594 -14 q 568 6 568 -14 l 568 10 l 572 31 q 529 15 561 26 q 471 -5 498 3 q 331 -33 401 -26 q 311 -34 320 -34 q 199 9 247 -34 q 155 141 155 50 q 175 290 155 203 l 231 536 q 234 552 234 545 q 220 576 234 570 q 182 614 182 591 q 184 621 182 617 q 217 646 189 646 q 306 659 260 648 q 426 694 351 671 l 332 286 q 317 179 317 224 q 342 87 317 118 q 416 54 368 54 q 484 66 445 54 q 524 80 499 71 q 566 94 549 88 q 578 98 570 96 q 589 102 587 101 l 688 536 q 691 552 691 545 q 677 576 691 570 q 640 614 640 591 q 641 621 640 617 q 674 646 646 646 q 763 659 718 648 q 883 694 808 671 l 745 96 m 641 859 q 677 913 648 889 q 740 938 705 938 q 810 884 799 938 q 811 869 811 876 q 809 850 811 859 q 774 798 802 822 q 717 774 744 774 q 707 774 716 774 q 651 801 669 774 q 638 838 638 817 q 641 859 638 848 m 401 859 q 467 931 413 910 q 502 938 486 938 q 557 911 536 938 q 572 871 572 892 q 570 856 572 864 q 557 824 566 840 q 469 774 524 774 q 397 832 397 774 q 401 859 397 844 z "},"":{"ha":772,"x_min":46,"x_max":816,"o":"m 222 541 q 203 574 217 562 q 170 592 190 583 q 148 618 151 601 l 148 627 q 175 645 152 645 l 397 645 q 429 623 425 645 q 431 616 431 621 q 429 610 431 612 q 406 589 426 597 q 387 570 395 583 q 384 561 385 566 q 383 555 383 558 q 384 547 383 551 l 454 156 l 672 492 q 682 516 680 505 q 684 528 684 522 q 675 555 684 541 l 654 590 l 735 645 q 755 652 744 652 q 779 641 768 652 l 807 602 q 816 576 816 590 q 814 563 816 569 q 804 537 812 551 q 754 460 785 504 l 245 -287 q 191 -363 215 -332 q 129 -397 163 -397 l 126 -397 l 71 -395 q 46 -372 46 -391 l 46 -368 l 62 -278 l 111 -277 q 171 -244 148 -276 l 326 -26 q 331 -23 331 -26 q 328 -16 331 -21 q 323 -1 325 -11 q 321 14 321 9 l 222 541 m 496 751 q 436 730 459 730 q 427 732 431 730 q 410 749 410 734 l 410 751 q 448 793 414 765 l 549 878 q 623 940 568 895 q 699 998 678 986 q 737 1008 718 1008 q 768 1000 753 1008 q 795 959 795 987 q 793 942 795 951 q 768 904 787 920 q 731 878 749 888 l 496 751 z "},"":{"ha":800,"x_min":-12,"x_max":866,"o":"m 518 1014 l 421 595 l 589 654 q 631 663 613 661 q 646 662 639 663 q 661 662 653 662 q 823 576 766 656 q 866 431 866 513 q 863 386 866 409 q 852 331 859 357 q 831 259 844 294 q 758 141 808 199 q 679 75 729 107 q 638 56 660 64 q 519 15 578 35 q 401 -26 459 -5 q 371 -31 385 -31 l 367 -31 q 281 -9 321 -28 l 197 -376 q 99 -343 138 -355 q 17 -330 59 -332 q -12 -307 -12 -330 q -11 -300 -12 -304 q 32 -263 -5 -275 q 77 -215 69 -251 l 324 855 q 327 872 327 865 q 313 896 327 890 q 275 934 275 910 q 276 941 275 937 q 310 966 281 966 q 398 979 353 968 q 518 1014 444 990 m 309 108 q 359 71 325 89 q 423 52 393 52 l 427 52 q 448 56 435 52 q 500 73 474 64 q 553 92 526 82 q 578 106 568 97 q 656 210 627 149 q 688 306 678 258 q 694 334 692 320 q 699 391 699 363 q 680 486 699 446 q 551 566 638 566 q 534 566 543 566 q 501 558 519 564 q 451 539 484 552 q 404 521 418 526 l 309 108 z "},"":{"ha":772,"x_min":46,"x_max":816,"o":"m 222 541 q 203 574 217 562 q 170 592 190 583 q 148 618 151 601 l 148 627 q 175 645 152 645 l 397 645 q 429 623 425 645 q 431 616 431 621 q 429 610 431 612 q 406 589 426 597 q 387 570 395 583 q 384 561 385 566 q 383 555 383 558 q 384 547 383 551 l 454 156 l 672 492 q 682 516 680 505 q 684 528 684 522 q 675 555 684 541 l 654 590 l 735 645 q 755 652 744 652 q 779 641 768 652 l 807 602 q 816 576 816 590 q 814 563 816 569 q 804 537 812 551 q 754 460 785 504 l 245 -287 q 191 -363 215 -332 q 129 -397 163 -397 l 126 -397 l 71 -395 q 46 -372 46 -391 l 46 -368 l 62 -278 l 111 -277 q 171 -244 148 -276 l 326 -26 q 331 -23 331 -26 q 328 -16 331 -21 q 323 -1 325 -11 q 321 14 321 9 l 222 541 m 602 859 q 638 913 610 889 q 702 938 667 938 q 771 884 762 938 q 772 868 772 876 q 770 850 772 859 q 736 798 764 821 q 669 770 701 770 q 612 800 635 770 q 600 838 600 816 q 602 859 600 848 m 363 859 q 429 931 375 910 q 464 938 448 938 q 519 911 498 938 q 534 871 534 892 q 532 856 534 864 q 519 824 528 840 q 431 774 486 774 q 359 832 359 774 q 363 859 359 844 z "},"":{"ha":1080,"x_min":20,"x_max":1068,"o":"m 806 981 q 847 774 824 890 q 895 535 870 658 q 943 296 920 412 q 983 101 966 180 q 1006 63 986 80 q 1032 47 1019 54 q 1056 33 1046 41 q 1067 18 1065 25 q 1068 12 1068 16 q 1067 5 1068 7 q 1063 -3 1065 1 q 1039 -14 1055 -14 l 810 -14 q 786 -5 797 -14 q 776 13 776 3 q 775 20 775 15 q 792 41 778 32 q 809 53 800 47 q 823 68 818 59 q 826 77 825 72 q 827 88 827 82 q 827 98 827 93 l 783 318 l 412 318 q 341 209 378 267 q 266 94 304 151 q 255 72 258 81 q 252 64 253 67 q 252 57 252 60 l 252 53 q 255 41 252 47 q 259 26 258 36 q 258 18 258 19 q 254 8 258 14 q 220 -14 241 -14 l 45 -14 q 20 5 27 -14 l 20 4 q 20 5 20 4 q 24 20 20 12 q 58 44 33 33 q 82 54 69 49 q 108 67 95 60 q 150 105 134 83 l 739 981 l 806 981 m 605 1169 l 1011 1169 q 1034 1150 1034 1169 l 1034 1147 l 1021 1088 q 995 1069 1017 1069 l 589 1069 q 566 1088 566 1069 l 566 1091 l 579 1150 q 605 1169 583 1169 m 766 400 l 695 757 q 585 587 652 690 q 465 400 518 484 l 766 400 z "},"":{"ha":783,"x_min":81,"x_max":824,"o":"m 532 37 l 358 -22 q 314 -31 332 -31 l 286 -31 q 123 55 181 -25 q 81 196 81 115 q 84 245 81 220 q 95 301 88 274 q 115 370 103 336 q 189 490 138 431 q 267 555 214 521 q 309 575 286 566 q 427 616 369 596 q 546 657 486 636 q 575 662 562 662 l 579 662 q 685 639 625 660 q 695 635 694 635 q 725 623 705 630 q 734 621 730 621 q 743 624 739 621 q 766 642 759 635 q 789 652 774 652 q 803 650 796 652 q 824 626 824 641 l 824 623 l 703 96 q 701 79 701 87 q 714 56 701 61 q 752 18 752 41 q 751 12 752 15 q 717 -14 745 -14 l 552 -14 q 526 6 526 -14 l 526 10 l 532 37 m 644 519 q 590 558 627 538 q 523 579 553 578 l 521 579 q 499 575 511 579 q 447 557 473 566 q 394 539 420 548 q 368 525 378 533 q 290 420 318 481 q 258 328 268 374 q 252 298 254 313 q 248 240 248 267 q 267 145 248 184 q 353 71 295 88 q 397 64 374 64 q 413 65 404 64 q 446 73 425 66 q 498 91 462 78 q 549 109 534 103 l 644 519 m 372 925 l 779 925 q 801 907 801 925 l 801 903 l 787 844 q 762 825 784 825 l 355 825 q 333 844 333 825 l 333 848 l 347 907 q 372 925 351 925 z "},"":{"ha":1080,"x_min":20,"x_max":1068,"o":"m 806 981 q 847 774 824 890 q 895 535 870 658 q 943 296 920 412 q 983 101 966 180 q 1006 63 986 80 q 1032 47 1019 54 q 1056 33 1046 41 q 1067 18 1065 25 q 1068 12 1068 16 q 1067 5 1068 7 q 1063 -3 1065 1 q 1039 -14 1055 -14 l 810 -14 q 786 -5 797 -14 q 776 13 776 3 q 775 20 775 15 q 792 41 778 32 q 809 53 800 47 q 823 68 818 59 q 826 77 825 72 q 827 88 827 82 q 827 98 827 93 l 783 318 l 412 318 q 341 209 378 267 q 266 94 304 151 q 255 72 258 81 q 252 64 253 67 q 252 57 252 60 l 252 53 q 255 41 252 47 q 259 26 258 36 q 258 18 258 19 q 254 8 258 14 q 220 -14 241 -14 l 45 -14 q 20 5 27 -14 l 20 4 q 20 5 20 4 q 24 20 20 12 q 58 44 33 33 q 82 54 69 49 q 108 67 95 60 q 150 105 134 83 l 739 981 l 806 981 m 787 1019 q 625 1104 668 1019 q 606 1188 606 1141 q 610 1237 606 1211 l 612 1239 q 650 1266 617 1266 q 680 1234 680 1266 q 807 1135 683 1137 l 810 1135 q 987 1239 937 1135 q 1025 1266 1000 1266 q 1058 1240 1058 1266 q 1057 1232 1058 1237 l 1056 1230 q 981 1101 1034 1154 q 787 1019 903 1019 m 766 400 l 695 757 q 585 587 652 690 q 465 400 518 484 l 766 400 z "},"":{"ha":783,"x_min":81,"x_max":838,"o":"m 532 37 l 358 -22 q 314 -31 332 -31 l 286 -31 q 123 55 181 -25 q 81 196 81 115 q 84 245 81 220 q 95 301 88 274 q 115 370 103 336 q 189 490 138 431 q 267 555 214 521 q 309 575 286 566 q 427 616 369 596 q 546 657 486 636 q 575 662 562 662 l 579 662 q 685 639 625 660 q 695 635 694 635 q 725 623 705 630 q 734 621 730 621 q 743 624 739 621 q 766 642 759 635 q 789 652 774 652 q 803 650 796 652 q 824 626 824 641 l 824 623 l 703 96 q 701 79 701 87 q 714 56 701 61 q 752 18 752 41 q 751 12 752 15 q 717 -14 745 -14 l 552 -14 q 526 6 526 -14 l 526 10 l 532 37 m 644 519 q 590 558 627 538 q 523 579 553 578 l 521 579 q 499 575 511 579 q 447 557 473 566 q 394 539 420 548 q 368 525 378 533 q 290 420 318 481 q 258 328 268 374 q 252 298 254 313 q 248 240 248 267 q 267 145 248 184 q 353 71 295 88 q 397 64 374 64 q 413 65 404 64 q 446 73 425 66 q 498 91 462 78 q 549 109 534 103 l 644 519 m 567 745 q 406 830 446 745 q 387 914 387 867 q 391 963 387 937 l 392 965 q 429 992 397 992 q 460 961 458 992 q 587 861 463 862 l 590 861 q 768 965 717 861 q 806 992 781 992 q 838 968 838 992 q 837 962 838 965 l 836 958 q 762 827 814 883 q 567 745 682 745 z "},"":{"ha":1080,"x_min":20,"x_max":1068,"o":"m 548 2 q 558 -37 558 -23 q 557 -52 558 -45 q 541 -83 553 -69 q 488 -134 515 -113 q 444 -186 449 -165 q 444 -191 444 -188 q 452 -207 444 -200 q 481 -217 465 -217 q 585 -170 506 -217 l 543 -264 q 431 -286 473 -286 l 420 -286 q 333 -222 333 -279 q 335 -208 333 -215 l 337 -201 q 400 -111 349 -146 q 460 -66 432 -87 q 479 -35 475 -54 q 481 -21 481 -28 q 479 2 481 -17 l 548 2 m 806 981 q 847 774 824 890 q 895 535 870 658 q 943 296 920 412 q 983 101 966 180 q 1006 63 986 80 q 1032 47 1019 54 q 1056 33 1046 41 q 1067 18 1065 25 q 1068 12 1068 16 q 1067 5 1068 7 q 1063 -3 1065 1 q 1039 -14 1055 -14 l 810 -14 q 786 -5 797 -14 q 776 13 776 3 q 775 20 775 15 q 792 41 778 32 q 809 53 800 47 q 823 68 818 59 q 826 77 825 72 q 827 88 827 82 q 827 98 827 93 l 783 318 l 412 318 q 341 209 378 267 q 266 94 304 151 q 255 72 258 81 q 252 64 253 67 q 252 57 252 60 l 252 53 q 255 41 252 47 q 259 26 258 36 q 258 18 258 19 q 254 8 258 14 q 220 -14 241 -14 l 45 -14 q 20 4 27 -14 q 20 5 20 4 q 24 20 20 12 q 58 44 33 33 q 82 54 69 49 q 108 67 95 60 q 150 105 134 83 l 739 981 l 806 981 m 766 400 l 695 757 q 585 587 652 690 q 465 400 518 484 l 766 400 z "},"":{"ha":783,"x_min":81,"x_max":824,"o":"m 433 0 q 444 -39 444 -25 q 442 -54 444 -47 q 426 -85 439 -71 q 374 -136 401 -115 q 330 -188 334 -167 q 330 -193 330 -191 q 338 -209 330 -202 q 367 -219 351 -219 q 471 -172 391 -219 l 429 -266 q 317 -288 359 -288 l 307 -288 q 219 -224 219 -281 q 221 -210 219 -217 l 222 -204 q 286 -113 235 -149 q 347 -68 317 -90 q 365 -37 361 -56 l 370 -22 l 433 0 m 532 37 l 358 -22 q 314 -31 332 -31 l 286 -31 q 123 55 181 -25 q 81 196 81 115 q 84 245 81 220 q 95 301 88 274 q 115 370 103 336 q 189 490 138 431 q 267 555 214 521 q 309 575 286 566 q 427 616 369 596 q 546 657 486 636 q 575 662 562 662 l 579 662 q 685 639 625 660 q 695 635 694 635 q 725 623 705 630 q 734 621 730 621 q 743 624 739 621 q 766 642 759 635 q 789 652 774 652 q 803 650 796 652 q 824 626 824 641 l 824 623 l 703 96 q 701 79 701 87 q 714 56 701 61 q 752 18 752 41 q 751 12 752 15 q 717 -14 745 -14 l 552 -14 q 526 6 526 -14 l 526 10 l 532 37 m 644 519 q 590 558 627 538 q 523 579 553 578 l 521 579 q 499 575 511 579 q 447 557 473 566 q 394 539 420 548 q 368 525 378 533 q 290 420 318 481 q 258 328 268 374 q 252 298 254 313 q 248 240 248 267 q 267 145 248 184 q 353 71 295 88 q 397 64 374 64 q 413 65 404 64 q 446 73 425 66 q 498 91 462 78 q 549 109 534 103 l 644 519 z "},"":{"ha":949,"x_min":122,"x_max":1134,"o":"m 569 -39 q 218 100 353 -39 q 122 346 122 197 q 138 477 122 408 q 385 852 193 711 q 802 994 578 994 q 968 976 882 994 q 1134 899 1055 958 l 1082 748 q 1049 726 1072 726 l 1046 726 q 1017 756 1025 728 q 943 873 996 845 q 787 902 890 902 q 504 800 642 902 q 315 473 366 699 q 304 387 304 429 q 358 195 304 289 q 586 58 431 65 q 616 57 602 57 q 758 82 699 57 q 888 202 825 111 q 924 228 907 225 l 929 228 q 956 203 956 228 l 956 201 l 953 182 l 852 11 q 702 -29 773 -19 q 569 -39 631 -39 m 752 1061 q 692 1040 715 1040 q 682 1042 685 1040 q 667 1058 667 1044 l 667 1061 q 703 1103 670 1075 l 804 1187 q 879 1250 824 1204 q 954 1308 934 1296 q 993 1318 974 1318 q 1023 1311 1008 1318 q 1050 1270 1050 1298 q 1048 1253 1050 1261 q 1023 1214 1043 1230 q 986 1187 1004 1198 l 752 1061 z "},"":{"ha":627,"x_min":94,"x_max":829,"o":"m 526 662 l 541 662 q 749 593 658 662 l 708 471 q 681 452 701 452 l 677 452 q 653 477 658 454 q 608 554 641 531 q 519 576 575 576 l 503 576 q 389 538 435 573 q 320 456 348 505 q 279 349 293 409 q 272 309 275 330 q 267 246 267 276 q 287 150 267 191 q 394 62 328 73 q 416 60 404 60 q 552 99 473 60 q 618 122 600 122 q 635 117 629 122 q 640 104 640 111 l 640 100 q 624 69 637 89 q 589 33 608 47 q 477 -17 540 -3 q 362 -31 415 -31 q 154 45 228 -30 q 94 201 94 104 q 98 254 94 226 q 109 313 102 284 q 131 385 118 350 q 207 509 154 448 q 345 616 262 574 q 526 662 428 658 m 530 751 q 469 730 492 730 q 460 732 463 730 q 444 749 444 734 l 444 751 q 481 793 448 765 l 582 878 q 656 940 602 895 q 732 998 711 986 q 770 1008 751 1008 q 802 1000 787 1008 q 829 959 829 987 q 827 942 829 951 q 802 904 821 920 q 764 878 782 888 l 530 751 z "},"":{"ha":949,"x_min":122,"x_max":1134,"o":"m 569 -39 q 218 100 353 -39 q 122 346 122 197 q 138 477 122 408 q 385 852 193 711 q 802 994 578 994 q 968 976 882 994 q 1134 899 1055 958 l 1082 748 q 1049 726 1072 726 l 1046 726 q 1017 756 1025 728 q 943 873 996 845 q 787 902 890 902 q 504 800 642 902 q 315 473 366 699 q 304 387 304 429 q 358 195 304 289 q 586 58 431 65 q 616 57 602 57 q 758 82 699 57 q 888 202 825 111 q 924 228 907 225 l 929 228 q 956 203 956 228 l 956 201 l 953 182 l 852 11 q 702 -29 773 -19 q 569 -39 631 -39 m 568 1042 l 801 1304 l 901 1304 l 1014 1042 l 943 1042 l 825 1176 l 646 1042 l 568 1042 z "},"":{"ha":627,"x_min":94,"x_max":802,"o":"m 526 662 l 541 662 q 749 593 658 662 l 708 471 q 681 452 701 452 l 677 452 q 653 477 658 454 q 608 554 641 531 q 519 576 575 576 l 503 576 q 389 538 435 573 q 320 456 348 505 q 279 349 293 409 q 272 309 275 330 q 267 246 267 276 q 287 150 267 191 q 394 62 328 73 q 416 60 404 60 q 552 99 473 60 q 618 122 600 122 q 635 117 629 122 q 640 104 640 111 l 640 100 q 624 69 637 89 q 589 33 608 47 q 477 -17 540 -3 q 362 -31 415 -31 q 154 45 228 -30 q 94 201 94 104 q 98 254 94 226 q 109 313 102 284 q 131 385 118 350 q 207 509 154 448 q 345 616 262 574 q 526 662 428 658 m 355 730 l 589 992 l 688 992 l 802 730 l 730 730 l 612 865 l 433 730 l 355 730 z "},"":{"ha":949,"x_min":122,"x_max":1134,"o":"m 569 -39 q 218 100 353 -39 q 122 346 122 197 q 138 477 122 408 q 385 852 193 711 q 802 994 578 994 q 968 976 882 994 q 1134 899 1055 958 l 1082 748 q 1049 726 1072 726 l 1046 726 q 1017 756 1025 728 q 943 873 996 845 q 787 902 890 902 q 504 800 642 902 q 315 473 366 699 q 304 387 304 429 q 358 195 304 289 q 586 58 431 65 q 616 57 602 57 q 758 82 699 57 q 888 202 825 111 q 924 228 907 225 l 929 228 q 956 203 956 228 l 956 201 l 953 182 l 852 11 q 702 -29 773 -19 q 569 -39 631 -39 m 821 1124 q 782 1132 800 1124 q 753 1154 762 1142 q 739 1185 741 1168 q 737 1202 737 1194 q 739 1221 737 1212 q 755 1258 743 1239 q 782 1289 765 1274 q 819 1310 797 1300 q 859 1318 841 1318 q 900 1309 880 1318 q 926 1288 916 1299 q 941 1254 938 1273 q 943 1239 943 1247 q 940 1217 943 1228 q 924 1181 935 1198 q 897 1152 913 1163 q 863 1131 884 1140 q 821 1124 842 1124 z "},"":{"ha":627,"x_min":94,"x_max":749,"o":"m 526 662 l 541 662 q 749 593 658 662 l 708 471 q 681 452 701 452 l 677 452 q 653 477 658 454 q 608 554 641 531 q 519 576 575 576 l 503 576 q 389 538 435 573 q 320 456 348 505 q 279 349 293 409 q 272 309 275 330 q 267 246 267 276 q 287 150 267 191 q 394 62 328 73 q 416 60 404 60 q 552 99 473 60 q 618 122 600 122 q 635 117 629 122 q 640 104 640 111 l 640 100 q 624 69 637 89 q 589 33 608 47 q 477 -17 540 -3 q 362 -31 415 -31 q 154 45 228 -30 q 94 201 94 104 q 98 254 94 226 q 109 313 102 284 q 131 385 118 350 q 207 509 154 448 q 345 616 262 574 q 526 662 428 658 m 562 772 q 525 780 543 772 q 494 802 507 787 q 480 833 483 819 q 479 850 479 842 q 481 870 479 860 q 497 906 486 888 q 524 937 507 923 q 560 958 537 947 q 601 966 583 966 q 642 957 621 966 q 669 934 659 947 q 684 903 680 921 q 684 890 684 896 q 682 865 684 878 q 666 829 677 846 q 639 800 655 812 q 604 780 622 786 q 562 772 582 772 z "},"":{"ha":949,"x_min":122,"x_max":1134,"o":"m 569 -39 q 218 100 353 -39 q 122 346 122 197 q 138 477 122 408 q 385 852 193 711 q 802 994 578 994 q 968 976 882 994 q 1134 899 1055 958 l 1082 748 q 1049 726 1072 726 l 1046 726 q 1017 756 1025 728 q 943 873 996 845 q 787 902 890 902 q 504 800 642 902 q 315 473 366 699 q 304 387 304 429 q 358 195 304 289 q 586 58 431 65 q 616 57 602 57 q 758 82 699 57 q 888 202 825 111 q 924 228 907 225 l 929 228 q 956 203 956 228 l 956 201 l 953 182 l 852 11 q 702 -29 773 -19 q 569 -39 631 -39 m 631 1304 l 702 1304 l 820 1169 l 999 1304 l 1077 1304 l 843 1042 l 743 1042 l 631 1304 z "},"":{"ha":627,"x_min":94,"x_max":850,"o":"m 526 662 l 541 662 q 749 593 658 662 l 708 471 q 681 452 701 452 l 677 452 q 653 477 658 454 q 608 554 641 531 q 519 576 575 576 l 503 576 q 389 538 435 573 q 320 456 348 505 q 279 349 293 409 q 272 309 275 330 q 267 246 267 276 q 287 150 267 191 q 394 62 328 73 q 416 60 404 60 q 552 99 473 60 q 618 122 600 122 q 635 117 629 122 q 640 104 640 111 l 640 100 q 624 69 637 89 q 589 33 608 47 q 477 -17 540 -3 q 362 -31 415 -31 q 154 45 228 -30 q 94 201 94 104 q 98 254 94 226 q 109 313 102 284 q 131 385 118 350 q 207 509 154 448 q 345 616 262 574 q 526 662 428 658 m 404 992 l 475 992 l 593 857 l 772 992 l 850 992 l 616 730 l 517 730 l 404 992 z "},"":{"ha":1075,"x_min":58,"x_max":1168,"o":"m 1158 534 q 1149 491 1154 512 q 1059 284 1123 376 q 875 104 983 175 q 466 -18 691 -16 l 412 -18 q 338 -18 372 -18 l 259 -18 q 173 -16 202 -18 l 157 -16 q 87 -20 131 -16 q 58 3 58 -20 q 58 12 58 7 q 101 47 64 35 q 146 97 138 60 l 321 859 q 324 876 324 868 q 311 899 324 894 q 273 937 273 913 q 274 943 273 940 q 308 968 279 968 q 366 968 336 968 q 423 968 394 968 q 538 972 482 970 l 578 972 q 787 966 683 972 q 1007 914 914 959 q 1140 781 1096 870 q 1168 642 1168 724 q 1158 534 1168 593 m 631 1304 l 702 1304 l 820 1169 l 999 1304 l 1077 1304 l 843 1042 l 743 1042 l 631 1304 m 491 879 l 309 77 q 447 64 374 64 q 690 116 579 64 q 870 264 793 165 q 973 502 940 357 l 979 524 q 991 629 991 582 q 982 703 991 670 q 918 816 964 774 q 734 888 850 877 q 650 891 693 891 q 491 879 568 891 z "},"":{"ha":949,"x_min":94,"x_max":1135,"o":"m 545 37 l 372 -22 q 328 -31 345 -31 l 299 -31 q 137 55 195 -25 q 94 196 94 115 q 98 245 94 220 q 109 301 102 274 q 129 370 117 336 q 202 490 151 431 q 281 555 228 521 q 322 575 300 566 q 441 616 382 596 q 559 657 499 636 q 589 662 575 662 l 593 662 q 699 639 639 660 q 701 638 700 638 q 701 639 701 638 q 688 655 701 642 l 734 855 q 736 872 736 865 q 722 896 736 890 q 685 934 685 911 q 686 941 685 937 q 720 966 692 966 q 808 979 763 968 q 928 1014 853 990 l 717 96 q 714 79 714 87 q 728 56 714 61 q 766 18 766 41 q 764 12 766 15 q 730 -14 759 -14 l 566 -14 q 539 6 539 -14 l 539 10 l 545 37 m 657 519 q 602 559 638 540 q 536 579 566 578 l 534 579 q 513 575 524 579 q 460 557 486 566 q 408 539 434 548 q 382 525 392 533 q 304 420 332 481 q 271 328 281 374 q 266 298 268 313 q 261 240 261 267 q 281 145 261 184 q 366 71 309 88 q 410 64 387 64 q 427 65 418 64 q 460 73 439 66 q 511 91 475 78 q 562 109 547 103 l 657 519 m 936 680 q 884 636 906 644 q 873 633 879 633 q 852 652 852 633 q 852 660 852 655 q 868 696 856 672 l 926 809 q 968 893 937 831 q 1014 972 999 955 q 1077 1006 1038 1002 l 1082 1006 q 1133 970 1120 1006 q 1135 955 1135 963 q 1134 943 1135 949 q 1127 926 1132 935 q 1103 890 1116 905 l 936 680 z "},"":{"ha":1075,"x_min":58,"x_max":1168,"o":"m 1158 534 q 1149 491 1154 512 q 1059 284 1123 376 q 875 104 983 175 q 466 -18 691 -16 l 412 -18 q 338 -18 372 -18 l 259 -18 q 173 -16 202 -18 l 157 -16 q 87 -20 131 -16 q 58 3 58 -20 q 58 12 58 7 q 101 47 64 35 q 146 97 138 60 l 228 451 l 138 451 q 110 473 110 451 q 111 480 110 476 l 117 506 q 151 531 122 531 l 246 531 l 321 859 q 324 876 324 868 q 311 899 324 894 q 273 937 273 913 q 274 943 273 940 q 308 968 279 968 q 366 968 336 968 q 423 968 394 968 q 538 972 482 970 l 578 972 q 787 966 683 972 q 1007 914 914 959 q 1140 781 1096 870 q 1168 642 1168 724 q 1158 534 1168 593 m 412 531 l 605 531 q 633 508 633 531 q 632 501 633 505 l 627 475 q 593 451 620 451 l 393 451 l 309 77 q 447 64 374 64 q 690 116 579 64 q 870 264 793 165 q 973 502 940 357 l 979 524 q 991 629 991 582 q 982 703 991 670 q 918 816 964 774 q 734 888 850 877 q 650 891 693 891 q 491 879 568 891 l 412 531 z "},"":{"ha":785,"x_min":78,"x_max":941,"o":"m 497 783 l 689 783 l 736 985 q 831 952 793 963 q 911 939 870 941 q 939 916 939 939 q 938 909 939 913 q 897 874 932 886 q 852 827 861 862 l 842 783 l 918 783 q 941 764 941 783 q 940 758 941 761 l 930 715 q 903 696 926 696 l 822 696 l 684 94 q 681 77 681 84 q 694 54 681 60 q 731 17 731 39 l 731 12 q 696 -14 724 -14 l 536 -14 q 511 6 511 -14 l 511 9 l 517 35 l 348 -22 q 306 -31 326 -29 q 277 -30 288 -31 q 119 53 176 -26 q 78 189 78 112 q 82 238 78 212 q 92 294 85 267 q 112 360 100 328 q 183 476 133 418 q 258 539 208 506 q 300 559 278 552 q 415 599 357 579 q 530 638 472 618 q 564 644 545 644 q 653 625 609 642 l 669 696 l 483 696 q 458 715 458 696 q 460 722 458 720 l 469 763 q 497 783 474 783 m 625 505 q 573 542 609 522 q 508 563 537 562 q 486 559 498 563 q 433 541 458 550 q 383 524 408 532 q 359 510 368 519 q 282 409 310 468 q 251 319 261 363 q 245 289 248 304 q 241 233 241 259 q 260 141 241 180 q 342 70 288 86 q 386 63 363 63 q 401 64 394 63 q 433 72 414 65 q 484 89 449 77 q 533 106 518 100 l 625 505 z "},"":{"ha":848,"x_min":91,"x_max":989,"o":"m 331 77 l 600 77 q 708 123 656 77 q 789 197 760 170 q 824 216 810 216 q 852 193 852 216 q 852 186 852 190 q 846 170 849 176 l 752 -14 l 117 -14 q 91 9 91 -14 q 92 16 91 12 q 134 53 98 41 q 179 101 171 64 l 353 855 q 355 872 355 865 q 342 897 355 891 q 304 934 304 910 q 305 941 304 937 q 339 966 311 966 l 989 966 l 945 776 q 911 750 939 750 q 876 786 892 750 q 838 854 853 832 q 791 876 822 876 l 515 876 l 436 534 l 571 534 q 626 569 604 534 q 675 604 648 604 q 703 582 703 604 q 703 574 703 578 l 663 402 q 629 376 657 376 q 590 411 597 376 q 553 446 582 446 l 416 446 l 331 77 m 511 1169 l 918 1169 q 941 1150 941 1169 l 941 1147 l 927 1088 q 902 1069 923 1069 l 495 1069 q 473 1088 473 1069 l 473 1091 l 486 1150 q 511 1169 490 1169 z "},"":{"ha":678,"x_min":77,"x_max":768,"o":"m 347 -31 q 100 98 151 -31 q 77 214 77 153 q 87 302 77 257 q 111 378 96 339 q 262 587 163 511 q 500 662 361 662 q 747 466 747 662 q 735 371 747 423 q 722 327 728 343 q 677 311 716 311 l 262 311 q 254 235 254 275 q 277 130 254 174 q 414 60 315 60 q 471 67 439 60 q 554 97 504 74 q 619 120 601 120 q 639 113 629 120 q 642 102 642 106 l 642 98 q 625 67 640 85 q 605 43 612 50 q 593 33 598 37 q 470 -19 534 -8 q 347 -31 405 -31 m 279 387 l 600 387 q 609 466 609 428 q 594 534 609 509 q 487 576 568 576 q 350 519 404 576 q 279 387 297 461 m 338 927 l 745 927 q 768 909 768 927 l 768 905 l 754 846 q 728 827 749 827 l 321 827 q 298 846 298 827 q 300 852 298 850 l 313 909 q 338 927 317 927 z "},"":{"ha":848,"x_min":91,"x_max":989,"o":"m 331 77 l 600 77 q 708 123 656 77 q 789 197 760 170 q 824 216 810 216 q 852 193 852 216 q 852 186 852 190 q 846 170 849 176 l 752 -14 l 117 -14 q 91 9 91 -14 q 92 16 91 12 q 134 53 98 41 q 179 101 171 64 l 353 855 q 355 872 355 865 q 342 897 355 891 q 304 934 304 910 q 305 941 304 937 q 339 966 311 966 l 989 966 l 945 776 q 911 750 939 750 q 876 786 892 750 q 838 854 853 832 q 791 876 822 876 l 515 876 l 436 534 l 571 534 q 626 569 604 534 q 675 604 648 604 q 703 582 703 604 q 703 574 703 578 l 663 402 q 629 376 657 376 q 590 411 597 376 q 553 446 582 446 l 416 446 l 331 77 m 687 1019 q 525 1104 568 1019 q 506 1188 506 1141 q 510 1237 506 1211 l 511 1239 q 549 1266 517 1266 q 581 1235 578 1266 q 707 1135 583 1137 l 710 1135 q 887 1239 836 1135 q 925 1266 900 1266 q 958 1240 958 1266 q 956 1232 958 1237 l 956 1230 q 881 1101 933 1154 q 687 1019 802 1019 z "},"":{"ha":678,"x_min":77,"x_max":776,"o":"m 347 -31 q 100 98 151 -31 q 77 214 77 153 q 87 302 77 257 q 111 378 96 339 q 262 587 163 511 q 500 662 361 662 q 747 466 747 662 q 735 371 747 423 q 722 327 728 343 q 677 311 716 311 l 262 311 q 254 235 254 275 q 277 130 254 174 q 414 60 315 60 q 471 67 439 60 q 554 97 504 74 q 619 120 601 120 q 639 113 629 120 q 642 102 642 106 l 642 98 q 625 67 640 85 q 605 43 612 50 q 593 33 598 37 q 470 -19 534 -8 q 347 -31 405 -31 m 279 387 l 600 387 q 609 466 609 428 q 594 534 609 509 q 487 576 568 576 q 350 519 404 576 q 279 387 297 461 m 505 743 q 344 826 385 743 q 324 911 324 865 q 329 960 324 934 l 330 962 q 368 989 336 989 q 399 958 399 989 q 525 859 401 859 l 528 859 q 706 962 655 859 q 744 989 719 989 q 776 964 776 989 q 775 955 776 960 q 700 824 752 879 q 505 743 621 743 z "},"":{"ha":848,"x_min":91,"x_max":989,"o":"m 331 77 l 600 77 q 708 123 656 77 q 789 197 760 170 q 824 216 810 216 q 852 193 852 216 q 852 186 852 190 q 846 170 849 176 l 752 -14 l 117 -14 q 91 9 91 -14 q 92 16 91 12 q 134 53 98 41 q 179 101 171 64 l 353 855 q 355 872 355 865 q 342 897 355 891 q 304 934 304 910 q 305 941 304 937 q 339 966 311 966 l 989 966 l 945 776 q 911 750 939 750 q 876 786 892 750 q 838 854 853 832 q 791 876 822 876 l 515 876 l 436 534 l 571 534 q 626 569 604 534 q 675 604 648 604 q 703 582 703 604 q 703 574 703 578 l 663 402 q 629 376 657 376 q 590 411 597 376 q 553 446 582 446 l 416 446 l 331 77 m 693 1046 q 655 1053 671 1046 q 625 1076 636 1061 q 610 1107 614 1087 q 609 1122 609 1114 q 612 1144 609 1132 q 627 1181 616 1163 q 655 1211 640 1199 q 689 1232 670 1223 q 731 1240 709 1240 q 772 1231 754 1240 q 800 1208 789 1221 q 814 1177 810 1193 q 815 1162 815 1170 q 812 1139 815 1151 q 797 1103 808 1120 q 770 1074 786 1086 q 734 1053 753 1060 q 693 1046 714 1046 z "},"":{"ha":678,"x_min":77,"x_max":747,"o":"m 347 -31 q 100 98 151 -31 q 77 214 77 153 q 87 302 77 257 q 111 378 96 339 q 262 587 163 511 q 500 662 361 662 q 747 466 747 662 q 735 371 747 423 q 722 327 728 343 q 677 311 716 311 l 262 311 q 254 235 254 275 q 277 130 254 174 q 414 60 315 60 q 471 67 439 60 q 554 97 504 74 q 619 120 601 120 q 639 113 629 120 q 642 102 642 106 l 642 98 q 625 67 640 85 q 605 43 612 50 q 593 33 598 37 q 470 -19 534 -8 q 347 -31 405 -31 m 279 387 l 600 387 q 609 466 609 428 q 594 534 609 509 q 487 576 568 576 q 350 519 404 576 q 279 387 297 461 m 549 958 q 626 895 626 958 q 623 866 626 882 q 514 780 602 780 q 437 843 437 780 q 440 871 437 856 q 549 958 460 958 z "},"":{"ha":848,"x_min":91,"x_max":989,"o":"m 463 -17 q 469 -41 469 -26 q 468 -55 469 -48 q 452 -86 464 -73 q 399 -137 427 -116 q 355 -189 360 -169 q 355 -195 355 -191 q 363 -210 355 -203 q 392 -220 376 -220 q 495 -174 416 -220 l 454 -267 q 342 -289 384 -289 l 332 -289 q 244 -225 244 -282 q 246 -211 244 -218 l 247 -205 q 311 -114 260 -150 q 372 -69 343 -91 q 391 -39 387 -58 q 393 -24 393 -32 q 393 -17 393 -20 l 463 -17 m 331 77 l 600 77 q 708 123 656 77 q 789 197 760 170 q 824 216 810 216 q 852 193 852 216 q 852 186 852 190 q 846 170 849 176 l 752 -14 l 117 -14 q 91 9 91 -14 q 92 16 91 12 q 134 53 98 41 q 179 101 171 64 l 353 855 q 355 872 355 865 q 342 897 355 891 q 304 934 304 910 q 305 941 304 937 q 339 966 311 966 l 989 966 l 945 776 q 911 750 939 750 q 876 786 892 750 q 838 854 853 832 q 791 876 822 876 l 515 876 l 436 534 l 571 534 q 626 569 604 534 q 675 604 648 604 q 703 582 703 604 q 703 574 703 578 l 663 402 q 629 376 657 376 q 590 411 597 376 q 553 446 582 446 l 416 446 l 331 77 z "},"":{"ha":678,"x_min":77,"x_max":747,"o":"m 353 -35 l 356 -50 q 355 -64 356 -57 q 338 -95 351 -81 q 286 -146 313 -125 q 242 -198 247 -178 q 241 -203 241 -200 q 250 -219 241 -212 q 279 -229 262 -229 q 383 -182 303 -229 l 340 -276 q 229 -298 271 -298 l 218 -298 q 131 -234 131 -291 q 133 -220 131 -227 l 134 -214 q 198 -123 147 -159 q 258 -78 230 -100 q 277 -47 273 -66 q 283 -35 279 -41 l 353 -35 m 347 -31 q 100 98 151 -31 q 77 214 77 153 q 87 302 77 257 q 111 378 96 339 q 262 587 163 511 q 500 662 361 662 q 747 466 747 662 q 735 371 747 423 q 722 327 728 343 q 677 311 716 311 l 262 311 q 254 235 254 275 q 277 130 254 174 q 414 60 315 60 q 471 67 439 60 q 554 97 504 74 q 619 120 601 120 q 639 113 629 120 q 642 102 642 106 l 642 98 q 625 67 640 85 q 605 43 612 50 q 593 33 598 37 q 470 -19 534 -8 q 347 -31 405 -31 m 279 387 l 600 387 q 609 466 609 428 q 594 534 609 509 q 487 576 568 576 q 350 519 404 576 q 279 387 297 461 z "},"":{"ha":848,"x_min":91,"x_max":989,"o":"m 331 77 l 600 77 q 708 123 656 77 q 789 197 760 170 q 824 216 810 216 q 852 193 852 216 q 852 186 852 190 q 846 170 849 176 l 752 -14 l 117 -14 q 91 9 91 -14 q 92 16 91 12 q 134 53 98 41 q 179 101 171 64 l 353 855 q 355 872 355 865 q 342 897 355 891 q 304 934 304 910 q 305 941 304 937 q 339 966 311 966 l 989 966 l 945 776 q 911 750 939 750 q 876 786 892 750 q 838 854 853 832 q 791 876 822 876 l 515 876 l 436 534 l 571 534 q 626 569 604 534 q 675 604 648 604 q 703 582 703 604 q 703 574 703 578 l 663 402 q 629 376 657 376 q 590 411 597 376 q 553 446 582 446 l 416 446 l 331 77 m 527 1304 l 599 1304 l 716 1169 l 895 1304 l 973 1304 l 740 1042 l 640 1042 l 527 1304 z "},"":{"ha":678,"x_min":77,"x_max":784,"o":"m 347 -31 q 100 98 151 -31 q 77 214 77 153 q 87 302 77 257 q 111 378 96 339 q 262 587 163 511 q 500 662 361 662 q 747 466 747 662 q 735 371 747 423 q 722 327 728 343 q 677 311 716 311 l 262 311 q 254 235 254 275 q 277 130 254 174 q 414 60 315 60 q 471 67 439 60 q 554 97 504 74 q 619 120 601 120 q 639 113 629 120 q 642 102 642 106 l 642 98 q 625 67 640 85 q 605 43 612 50 q 593 33 598 37 q 470 -19 534 -8 q 347 -31 405 -31 m 279 387 l 600 387 q 609 466 609 428 q 594 534 609 509 q 487 576 568 576 q 350 519 404 576 q 279 387 297 461 m 338 992 l 409 992 l 527 857 l 706 992 l 784 992 l 551 730 l 451 730 l 338 992 z "},"":{"ha":1060,"x_min":122,"x_max":1137,"o":"m 569 -39 q 218 100 353 -39 q 122 346 122 197 q 138 477 122 408 q 385 852 193 711 q 802 994 578 994 q 968 976 882 994 q 1134 899 1055 958 l 1082 748 q 1049 726 1072 726 l 1046 726 q 1017 756 1025 728 q 943 873 996 845 q 787 902 890 902 q 504 800 642 902 q 315 473 366 699 q 304 387 304 429 q 358 195 304 289 q 586 58 431 65 q 616 57 602 57 q 745 76 690 57 q 863 168 808 99 l 892 292 q 893 297 893 294 q 885 312 893 307 q 839 336 870 321 q 802 373 802 352 l 802 377 q 836 404 808 404 l 1108 404 q 1137 380 1137 404 q 1136 373 1137 377 q 1093 336 1130 349 q 1048 288 1057 324 l 985 14 q 767 -16 867 8 q 664 -34 714 -29 q 569 -39 614 -39 m 555 1042 l 789 1304 l 888 1304 l 1001 1042 l 930 1042 l 812 1176 l 633 1042 l 555 1042 z "},"":{"ha":748,"x_min":-2,"x_max":824,"o":"m 557 149 l 644 519 q 590 558 627 538 q 523 579 553 578 l 521 579 q 499 575 511 579 q 447 557 473 566 q 394 539 420 548 q 368 525 378 533 q 290 420 318 481 q 258 328 268 374 q 252 298 254 313 q 248 240 248 267 q 267 145 248 184 q 353 71 295 88 q 397 64 374 64 q 413 65 404 64 q 446 73 425 66 q 497 90 462 78 q 547 108 533 102 l 557 149 l 557 149 m 531 37 l 358 -22 q 314 -31 332 -31 l 286 -31 q 123 55 181 -25 q 81 196 81 115 q 84 245 81 220 q 95 301 88 274 q 115 370 103 336 q 189 490 138 431 q 267 555 214 521 q 309 575 286 566 q 427 616 369 596 q 546 657 486 636 q 575 662 562 662 l 579 662 q 685 639 625 660 q 695 635 694 635 q 725 623 705 630 q 734 621 730 621 q 743 624 739 621 q 766 642 759 635 q 789 652 774 652 q 803 650 796 652 q 824 626 824 641 l 824 623 l 652 -124 q 583 -271 625 -241 q 475 -323 541 -301 l 272 -393 q 229 -402 246 -402 q 199 -401 210 -402 q 38 -316 96 -397 q -2 -205 9 -273 q 163 -149 74 -178 q 182 -226 169 -199 q 267 -300 210 -283 q 310 -306 288 -306 q 327 -305 319 -306 q 359 -298 340 -304 q 382 -290 368 -295 q 411 -280 396 -286 q 463 -220 441 -267 q 486 -159 484 -174 l 531 37 m 296 730 l 530 992 l 629 992 l 743 730 l 671 730 l 553 865 l 374 730 l 296 730 z "},"":{"ha":1060,"x_min":122,"x_max":1137,"o":"m 569 -39 q 218 100 353 -39 q 122 346 122 197 q 138 477 122 408 q 385 852 193 711 q 802 994 578 994 q 968 976 882 994 q 1134 899 1055 958 l 1082 748 q 1049 726 1072 726 l 1046 726 q 1017 756 1025 728 q 943 873 996 845 q 787 902 890 902 q 504 800 642 902 q 315 473 366 699 q 304 387 304 429 q 358 195 304 289 q 586 58 431 65 q 616 57 602 57 q 745 76 690 57 q 863 168 808 99 l 892 292 q 893 297 893 294 q 885 312 893 307 q 839 336 870 321 q 802 373 802 352 l 802 377 q 836 404 808 404 l 1108 404 q 1137 380 1137 404 q 1136 373 1137 377 q 1093 336 1130 349 q 1048 288 1057 324 l 985 14 q 767 -16 867 8 q 664 -34 714 -29 q 569 -39 614 -39 m 778 1019 q 616 1104 659 1019 q 597 1188 597 1141 q 601 1237 597 1211 l 602 1239 q 640 1266 608 1266 q 671 1234 671 1266 q 798 1135 673 1137 l 801 1135 q 978 1239 927 1135 q 1016 1266 991 1266 q 1048 1240 1048 1266 q 1047 1232 1048 1237 l 1046 1230 q 972 1101 1024 1156 q 778 1019 893 1019 z "},"":{"ha":748,"x_min":-2,"x_max":824,"o":"m 557 149 l 644 519 q 590 558 627 538 q 523 579 553 578 l 521 579 q 499 575 511 579 q 447 557 473 566 q 394 539 420 548 q 368 525 378 533 q 290 420 318 481 q 258 328 268 374 q 252 298 254 313 q 248 240 248 267 q 267 145 248 184 q 353 71 295 88 q 397 64 374 64 q 413 65 404 64 q 446 73 425 66 q 497 90 462 78 q 547 108 533 102 l 557 149 l 557 149 m 531 37 l 358 -22 q 314 -31 332 -31 l 286 -31 q 123 55 181 -25 q 81 196 81 115 q 84 245 81 220 q 95 301 88 274 q 115 370 103 336 q 189 490 138 431 q 267 555 214 521 q 309 575 286 566 q 427 616 369 596 q 546 657 486 636 q 575 662 562 662 l 579 662 q 685 639 625 660 q 695 635 694 635 q 725 623 705 630 q 734 621 730 621 q 743 624 739 621 q 766 642 759 635 q 789 652 774 652 q 803 650 796 652 q 824 626 824 641 l 824 623 l 652 -124 q 583 -271 625 -241 q 475 -323 541 -301 l 272 -393 q 229 -402 246 -402 q 199 -401 210 -402 q 38 -316 96 -397 q -2 -205 9 -273 q 163 -149 74 -178 q 182 -226 169 -199 q 267 -300 210 -283 q 310 -306 288 -306 q 327 -305 319 -306 q 359 -298 340 -304 q 382 -290 368 -295 q 411 -280 396 -286 q 463 -220 441 -267 q 486 -159 484 -174 l 531 37 m 526 743 q 365 827 407 743 q 346 911 346 864 q 350 960 346 934 l 351 962 q 389 989 357 989 q 420 958 418 989 q 547 859 423 859 l 550 859 q 727 962 675 859 q 765 989 739 989 q 797 964 797 989 q 796 958 797 962 l 796 956 q 721 824 773 878 q 526 743 642 743 z "},"":{"ha":1060,"x_min":122,"x_max":1137,"o":"m 569 -39 q 218 100 353 -39 q 122 346 122 197 q 138 477 122 408 q 385 852 193 711 q 802 994 578 994 q 968 976 882 994 q 1134 899 1055 958 l 1082 748 q 1049 726 1072 726 l 1046 726 q 1017 756 1025 728 q 943 873 996 845 q 787 902 890 902 q 504 800 642 902 q 315 473 366 699 q 304 387 304 429 q 358 195 304 289 q 586 58 431 65 q 616 57 602 57 q 745 76 690 57 q 863 168 808 99 l 892 292 q 893 297 893 294 q 885 312 893 307 q 839 336 870 321 q 802 373 802 352 l 802 377 q 836 404 808 404 l 1108 404 q 1137 380 1137 404 q 1136 373 1137 377 q 1093 336 1130 349 q 1048 288 1057 324 l 985 14 q 767 -16 867 8 q 664 -34 714 -29 q 569 -39 614 -39 m 796 1124 q 758 1132 775 1124 q 728 1154 737 1142 q 714 1185 717 1168 q 713 1202 713 1194 q 715 1221 713 1212 q 731 1258 719 1239 q 758 1289 741 1274 q 794 1310 772 1300 q 835 1318 817 1318 q 876 1309 855 1318 q 901 1288 892 1299 q 917 1254 913 1273 q 918 1239 918 1247 q 916 1217 918 1228 q 900 1181 911 1198 q 873 1152 888 1163 q 838 1131 859 1140 q 796 1124 817 1124 z "},"":{"ha":748,"x_min":-2,"x_max":824,"o":"m 557 149 l 644 519 q 590 558 627 538 q 523 579 553 578 l 521 579 q 499 575 511 579 q 447 557 473 566 q 394 539 420 548 q 368 525 378 533 q 290 420 318 481 q 258 328 268 374 q 252 298 254 313 q 248 240 248 267 q 267 145 248 184 q 353 71 295 88 q 397 64 374 64 q 413 65 404 64 q 446 73 425 66 q 497 90 462 78 q 547 108 533 102 l 557 149 l 557 149 m 531 37 l 358 -22 q 314 -31 332 -31 l 286 -31 q 123 55 181 -25 q 81 196 81 115 q 84 245 81 220 q 95 301 88 274 q 115 370 103 336 q 189 490 138 431 q 267 555 214 521 q 309 575 286 566 q 427 616 369 596 q 546 657 486 636 q 575 662 562 662 l 579 662 q 685 639 625 660 q 695 635 694 635 q 725 623 705 630 q 734 621 730 621 q 743 624 739 621 q 766 642 759 635 q 789 652 774 652 q 803 650 796 652 q 824 626 824 641 l 824 623 l 652 -124 q 583 -271 625 -241 q 475 -323 541 -301 l 272 -393 q 229 -402 246 -402 q 199 -401 210 -402 q 38 -316 96 -397 q -2 -205 9 -273 q 163 -149 74 -178 q 182 -226 169 -199 q 267 -300 210 -283 q 310 -306 288 -306 q 327 -305 319 -306 q 359 -298 340 -304 q 382 -290 368 -295 q 411 -280 396 -286 q 463 -220 441 -267 q 486 -159 484 -174 l 531 37 m 533 772 q 496 780 514 772 q 465 802 477 786 q 451 833 454 819 q 450 850 450 842 q 452 870 450 860 q 468 906 456 888 q 495 937 477 923 q 531 958 509 948 q 572 966 553 966 q 612 957 592 966 q 640 934 630 947 q 654 903 650 921 q 655 890 655 896 q 652 865 655 878 q 637 829 648 846 q 610 800 626 812 q 575 780 593 786 q 533 772 553 772 z "},"":{"ha":1060,"x_min":122,"x_max":1137,"o":"m 454 -43 l 527 -43 q 519 -64 521 -53 q 517 -75 517 -70 q 523 -91 517 -84 q 562 -136 541 -113 q 589 -201 589 -163 q 585 -230 589 -215 l 584 -236 q 470 -309 565 -302 l 459 -309 q 353 -286 416 -309 l 354 -197 q 428 -240 405 -240 q 465 -229 446 -240 q 486 -204 483 -218 q 487 -197 487 -201 q 468 -155 487 -179 q 438 -102 450 -132 q 434 -83 434 -94 q 435 -70 434 -77 q 454 -43 440 -50 m 569 -39 q 218 100 353 -39 q 122 346 122 197 q 138 477 122 408 q 385 852 193 711 q 802 994 578 994 q 968 976 882 994 q 1134 899 1055 958 l 1082 748 q 1049 726 1072 726 l 1046 726 q 1017 756 1025 728 q 943 873 996 845 q 787 902 890 902 q 504 800 642 902 q 315 473 366 699 q 304 387 304 429 q 358 195 304 289 q 586 58 431 65 q 616 57 602 57 q 745 76 690 57 q 863 168 808 99 l 892 292 q 893 297 893 294 q 885 312 893 307 q 839 336 870 321 q 802 373 802 352 l 802 377 q 836 404 808 404 l 1108 404 q 1137 380 1137 404 q 1136 373 1137 377 q 1093 336 1130 349 q 1048 288 1057 324 l 985 14 q 767 -16 867 8 q 664 -34 714 -29 q 569 -39 614 -39 z "},"":{"ha":748,"x_min":-2,"x_max":824,"o":"m 557 149 l 644 519 q 590 558 627 538 q 523 579 553 578 l 521 579 q 499 575 511 579 q 447 557 473 566 q 394 539 420 548 q 368 525 378 533 q 290 420 318 481 q 258 328 268 374 q 252 298 254 313 q 248 240 248 267 q 267 145 248 184 q 353 71 295 88 q 397 64 374 64 q 413 65 404 64 q 446 73 425 66 q 497 90 462 78 q 547 108 533 102 l 557 149 l 557 149 m 531 37 l 358 -22 q 314 -31 332 -31 l 286 -31 q 123 55 181 -25 q 81 196 81 115 q 84 245 81 220 q 95 301 88 274 q 115 370 103 336 q 189 490 138 431 q 267 555 214 521 q 309 575 286 566 q 427 616 369 596 q 546 657 486 636 q 575 662 562 662 l 579 662 q 685 639 625 660 q 695 635 694 635 q 725 623 705 630 q 734 621 730 621 q 743 624 739 621 q 766 642 759 635 q 789 652 774 652 q 803 650 796 652 q 824 626 824 641 l 824 623 l 652 -124 q 583 -271 625 -241 q 475 -323 541 -301 l 272 -393 q 229 -402 246 -402 q 199 -401 210 -402 q 38 -316 96 -397 q -2 -205 9 -273 q 163 -149 74 -178 q 182 -226 169 -199 q 267 -300 210 -283 q 310 -306 288 -306 q 327 -305 319 -306 q 359 -298 340 -304 q 382 -290 368 -295 q 411 -280 396 -286 q 463 -220 441 -267 q 486 -159 484 -174 l 531 37 m 511 776 q 451 833 451 791 q 452 847 451 840 q 460 869 455 857 l 486 922 q 509 955 494 937 q 536 985 525 972 q 696 1088 599 1055 q 739 1097 722 1097 q 777 1076 769 1097 q 778 1067 778 1071 q 777 1061 778 1064 q 758 1039 773 1048 q 719 1023 740 1028 q 626 970 648 1004 l 601 970 q 663 909 663 952 q 661 895 663 903 q 654 876 659 886 l 627 823 q 578 779 613 793 q 539 772 559 772 q 511 776 525 772 z "},"":{"ha":1111,"x_min":91,"x_max":1293,"o":"m 509 850 l 439 549 l 977 549 l 1048 855 q 1050 872 1050 865 q 1036 896 1050 890 q 999 934 999 911 q 1000 941 999 937 q 1034 966 1006 966 l 1264 966 q 1293 943 1293 966 q 1292 935 1293 939 q 1249 899 1286 911 q 1204 850 1212 886 l 1030 96 q 1027 79 1027 87 q 1042 56 1027 61 q 1080 18 1080 41 q 1078 12 1080 15 q 1044 -14 1073 -14 l 814 -14 q 786 9 786 -14 q 787 17 786 13 q 829 53 793 41 q 874 101 866 64 l 957 459 l 418 459 l 335 96 q 332 79 332 87 q 346 56 332 61 q 384 18 384 41 q 382 12 384 15 q 349 -14 377 -14 l 119 -14 q 91 9 91 -14 q 92 17 91 13 q 134 53 98 41 q 179 101 171 64 l 353 855 q 355 872 355 865 q 341 896 355 890 q 304 934 304 911 q 305 941 304 937 q 339 966 311 966 l 569 966 q 597 943 597 966 q 596 935 597 939 q 553 899 590 911 q 509 850 517 886 m 597 1042 l 831 1304 l 931 1304 l 1044 1042 l 972 1042 l 855 1176 l 676 1042 l 597 1042 z "},"":{"ha":819,"x_min":41,"x_max":857,"o":"m 286 96 q 283 79 283 87 q 296 56 283 61 q 334 18 334 41 q 333 12 334 15 q 300 -14 328 -14 l 70 -14 q 41 9 41 -14 q 42 17 41 13 q 85 53 48 41 q 130 101 121 64 l 303 855 q 306 872 306 865 q 292 896 306 890 q 254 934 254 911 q 256 941 254 937 q 289 966 261 966 q 377 979 332 968 q 497 1014 422 990 l 401 601 q 444 616 413 605 q 503 636 475 627 q 644 665 573 659 q 663 666 653 666 q 775 623 727 666 q 819 490 819 582 q 799 341 819 428 l 743 96 q 740 79 740 87 q 753 56 740 61 q 791 18 791 41 q 790 12 791 15 q 757 -14 785 -14 l 592 -14 q 566 6 566 -14 l 566 10 l 643 345 q 657 452 657 406 q 632 545 657 513 q 559 577 606 577 q 491 565 530 577 q 450 552 475 560 q 407 536 426 543 q 385 529 390 531 l 286 96 m 444 767 l 644 992 l 744 992 l 857 730 l 785 730 l 668 865 l 489 730 l 444 767 z "},"":{"ha":1111,"x_min":91,"x_max":1293,"o":"m 509 850 l 498 805 l 1036 805 l 1048 855 q 1050 872 1050 865 q 1036 896 1050 890 q 999 934 999 911 q 1000 941 999 937 q 1034 966 1006 966 l 1264 966 q 1293 943 1293 966 q 1292 935 1293 939 q 1249 899 1286 911 q 1204 850 1212 886 l 1193 805 l 1217 805 q 1250 784 1250 805 l 1250 781 l 1240 736 q 1202 715 1235 715 l 1173 715 l 1030 96 q 1027 79 1027 87 q 1042 56 1027 61 q 1080 18 1080 41 q 1078 12 1080 15 q 1044 -14 1073 -14 l 814 -14 q 786 9 786 -14 q 787 17 786 13 q 829 53 793 41 q 874 101 866 64 l 957 459 l 418 459 l 335 96 q 332 79 332 87 q 346 56 332 61 q 384 18 384 41 q 382 12 384 15 q 349 -14 377 -14 l 119 -14 q 91 9 91 -14 q 92 17 91 13 q 134 53 98 41 q 179 101 171 64 l 321 715 l 297 715 q 264 736 264 715 l 264 740 l 275 784 q 311 805 279 805 l 341 805 l 353 855 q 355 872 355 865 q 341 896 355 890 q 304 934 304 911 q 305 941 304 937 q 339 966 311 966 l 569 966 q 597 943 597 966 q 596 935 597 939 q 553 899 590 911 q 509 850 517 886 m 1016 715 l 477 715 l 439 549 l 977 549 l 1016 715 z "},"":{"ha":808,"x_min":34,"x_max":807,"o":"m 490 1014 l 441 805 l 624 805 q 648 785 648 805 q 646 779 648 783 l 637 736 q 610 715 632 715 l 420 715 l 395 605 l 519 648 q 610 665 566 665 q 633 664 622 665 q 724 635 688 658 q 804 523 791 591 q 807 486 807 507 q 777 288 807 417 l 732 96 q 730 80 730 87 q 746 54 730 60 q 785 16 785 40 q 784 10 785 14 q 751 -14 779 -14 l 587 -14 q 564 7 564 -14 q 564 15 564 10 l 643 355 q 654 443 654 404 q 625 544 654 507 q 547 581 596 581 q 477 568 517 581 l 378 534 l 278 96 q 275 79 275 87 q 289 56 275 61 q 327 18 327 41 q 326 12 327 15 q 292 -14 320 -14 l 62 -14 q 34 9 34 -14 q 35 17 34 13 q 77 53 41 41 q 122 101 114 64 l 264 715 l 177 715 q 153 735 153 715 q 154 741 153 738 l 163 784 q 191 805 168 805 l 284 805 l 296 855 q 298 872 298 865 q 284 896 298 890 q 247 934 247 911 q 248 941 247 937 q 281 966 254 966 q 370 979 325 968 q 490 1014 415 990 z "},"":{"ha":468,"x_min":91,"x_max":753,"o":"m 508 850 l 335 97 q 332 79 332 87 q 346 56 332 61 q 384 18 384 41 q 382 12 384 15 q 349 -14 377 -14 l 119 -14 q 91 9 91 -14 q 92 17 91 13 q 134 53 98 41 q 179 101 171 64 l 353 855 q 355 872 355 865 q 342 897 355 891 q 304 934 304 910 q 305 941 304 937 q 339 966 311 966 l 568 966 q 597 943 597 966 q 596 935 597 939 q 553 899 590 911 q 508 850 517 887 m 745 1221 q 663 1107 698 1143 q 582 1065 621 1065 q 465 1128 519 1065 q 418 1154 441 1154 q 378 1137 400 1154 q 361 1125 371 1132 q 342 1107 352 1119 q 302 1060 320 1086 q 277 1046 292 1046 q 258 1054 266 1046 q 249 1073 249 1063 l 249 1078 q 259 1098 252 1088 q 330 1202 292 1147 q 426 1257 367 1257 q 547 1192 494 1257 q 590 1166 568 1166 q 641 1187 612 1166 q 699 1255 669 1206 q 726 1271 708 1271 q 736 1269 732 1271 q 753 1244 753 1264 l 753 1242 l 752 1237 q 745 1221 750 1229 z "},"":{"ha":402,"x_min":62,"x_max":653,"o":"m 306 96 q 303 79 303 87 q 317 56 303 61 q 355 18 355 41 q 353 12 355 15 q 320 -14 348 -14 l 90 -14 q 62 9 62 -14 q 62 17 62 13 q 105 53 68 41 q 150 101 142 64 l 250 536 q 252 552 252 545 q 238 576 252 570 q 201 614 201 591 q 202 621 201 617 q 235 646 208 646 q 324 659 279 648 q 444 694 369 671 l 306 96 m 646 913 q 564 800 602 840 q 482 758 521 758 q 365 820 420 758 q 319 846 341 846 q 279 829 300 846 q 262 818 271 824 q 242 800 252 811 q 203 752 220 778 q 178 738 193 738 q 157 747 165 738 q 151 764 151 754 q 151 770 151 767 q 161 790 153 779 q 231 894 194 839 q 327 949 268 949 q 448 884 395 949 q 491 859 469 859 q 541 879 513 859 q 600 947 568 898 q 626 962 608 962 l 631 962 q 653 937 653 956 l 653 934 l 652 929 q 646 913 650 921 z "},"":{"ha":468,"x_min":91,"x_max":726,"o":"m 508 850 l 335 97 q 332 79 332 87 q 346 56 332 61 q 384 18 384 41 q 382 12 384 15 q 349 -14 377 -14 l 119 -14 q 91 9 91 -14 q 92 17 91 13 q 134 53 98 41 q 179 101 171 64 l 353 855 q 355 872 355 865 q 342 897 355 891 q 304 934 304 910 q 305 941 304 937 q 339 966 311 966 l 568 966 q 597 943 597 966 q 596 935 597 939 q 553 899 590 911 q 508 850 517 887 m 297 1169 l 704 1169 q 726 1150 726 1169 l 726 1147 l 713 1088 q 688 1069 709 1069 l 281 1069 q 258 1088 258 1069 l 258 1091 l 272 1150 q 297 1169 275 1169 z "},"":{"ha":402,"x_min":62,"x_max":642,"o":"m 306 96 q 303 79 303 87 q 317 56 303 61 q 355 18 355 41 q 353 12 355 15 q 320 -14 348 -14 l 90 -14 q 62 9 62 -14 q 62 17 62 13 q 105 53 68 41 q 150 101 142 64 l 250 536 q 252 552 252 545 q 238 576 252 570 q 201 614 201 591 q 202 621 201 617 q 235 646 208 646 q 324 659 279 648 q 444 694 369 671 l 306 96 m 213 927 l 620 927 q 642 909 642 927 l 642 905 l 629 846 q 603 827 623 827 l 196 827 q 174 845 174 827 q 176 851 174 848 l 189 909 q 213 927 193 927 z "},"":{"ha":468,"x_min":91,"x_max":743,"o":"m 508 850 l 335 97 q 332 79 332 87 q 346 56 332 61 q 384 18 384 41 q 382 12 384 15 q 349 -14 377 -14 l 119 -14 q 91 9 91 -14 q 92 17 91 13 q 134 53 98 41 q 179 101 171 64 l 353 855 q 355 872 355 865 q 342 897 355 891 q 304 934 304 910 q 305 941 304 937 q 339 966 311 966 l 568 966 q 597 943 597 966 q 596 935 597 939 q 553 899 590 911 q 508 850 517 887 m 473 1019 q 311 1104 353 1019 q 292 1188 292 1141 q 296 1237 292 1211 l 297 1239 q 335 1266 302 1266 q 366 1235 364 1266 q 492 1135 369 1137 l 496 1135 q 673 1239 622 1135 q 711 1266 686 1266 q 743 1240 743 1266 q 742 1232 743 1237 l 741 1230 q 667 1101 719 1154 q 473 1019 588 1019 z "},"":{"ha":402,"x_min":62,"x_max":650,"o":"m 306 96 q 303 79 303 87 q 317 56 303 61 q 355 18 355 41 q 353 12 355 15 q 320 -14 348 -14 l 90 -14 q 62 9 62 -14 q 62 17 62 13 q 105 53 68 41 q 150 101 142 64 l 250 536 q 252 552 252 545 q 238 576 252 570 q 201 614 201 591 q 202 621 201 617 q 235 646 208 646 q 324 659 279 648 q 444 694 369 671 l 306 96 m 380 743 q 218 827 260 743 q 199 909 199 863 q 204 958 199 933 l 204 960 q 243 989 211 989 q 274 958 272 989 q 400 859 277 859 l 404 859 q 581 962 530 859 q 618 989 593 989 q 650 964 650 989 q 650 958 650 962 l 650 956 q 574 824 627 878 q 380 743 495 743 z "},"":{"ha":468,"x_min":45,"x_max":597,"o":"m 260 -20 q 270 -40 270 -26 q 269 -54 270 -47 q 252 -85 264 -72 q 200 -136 227 -115 q 156 -189 161 -168 q 155 -195 155 -192 q 163 -210 155 -203 q 193 -220 177 -220 q 296 -173 218 -220 l 255 -267 q 143 -288 184 -288 l 132 -288 q 45 -225 45 -281 q 47 -210 45 -218 l 48 -205 q 112 -113 61 -149 q 172 -68 144 -90 q 191 -38 187 -57 l 191 -20 l 260 -20 m 508 850 l 335 97 q 332 79 332 87 q 346 56 332 61 q 384 18 384 41 q 382 12 384 15 q 349 -14 377 -14 l 119 -14 q 91 9 91 -14 q 92 17 91 13 q 134 53 98 41 q 179 101 171 64 l 353 855 q 355 872 355 865 q 342 897 355 891 q 304 934 304 910 q 305 941 304 937 q 339 966 311 966 l 568 966 q 597 943 597 966 q 596 935 597 939 q 553 899 590 911 q 508 850 517 887 z "},"":{"ha":402,"x_min":16,"x_max":444,"o":"m 235 -17 q 240 -34 240 -20 q 239 -48 240 -41 q 223 -79 235 -65 q 170 -130 197 -109 q 127 -182 131 -161 q 126 -188 126 -185 q 135 -203 126 -197 q 163 -214 147 -214 q 268 -167 188 -214 l 225 -260 q 114 -282 156 -282 l 103 -282 q 16 -218 16 -275 q 18 -204 16 -212 l 18 -199 q 82 -107 31 -143 q 143 -62 114 -84 q 161 -32 157 -51 q 163 -18 163 -25 l 165 -17 l 235 -17 m 306 96 q 303 79 303 87 q 317 56 303 61 q 355 18 355 41 q 353 12 355 15 q 320 -14 348 -14 l 90 -14 q 62 9 62 -14 q 62 17 62 13 q 105 53 68 41 q 150 101 142 64 l 250 536 q 252 552 252 545 q 238 576 252 570 q 201 614 201 591 q 202 621 201 617 q 235 646 208 646 q 324 659 279 648 q 444 694 369 671 l 306 96 z "},"":{"ha":468,"x_min":91,"x_max":618,"o":"m 508 850 l 335 97 q 332 79 332 87 q 346 56 332 61 q 384 18 384 41 q 382 12 384 15 q 349 -14 377 -14 l 119 -14 q 91 9 91 -14 q 92 17 91 13 q 134 53 98 41 q 179 101 171 64 l 353 855 q 355 872 355 865 q 342 897 355 891 q 304 934 304 910 q 305 941 304 937 q 339 966 311 966 l 568 966 q 597 943 597 966 q 596 935 597 939 q 553 899 590 911 q 508 850 517 887 m 496 1124 q 457 1133 473 1124 q 429 1154 441 1139 q 414 1185 418 1165 q 412 1200 412 1192 q 415 1222 412 1210 q 431 1259 420 1241 q 458 1289 444 1277 q 493 1310 473 1301 q 535 1318 513 1318 q 576 1309 558 1318 q 603 1286 592 1299 q 617 1255 614 1271 q 618 1240 618 1248 q 616 1217 618 1229 q 600 1181 611 1198 q 573 1152 589 1164 q 538 1132 555 1138 q 496 1124 519 1124 z "},"":{"ha":402,"x_min":62,"x_max":444,"o":"m 306 96 q 303 79 303 87 q 317 56 303 61 q 355 18 355 41 q 353 12 355 15 q 320 -14 348 -14 l 90 -14 q 62 9 62 -14 q 62 17 62 13 q 105 53 68 41 q 150 101 142 64 l 250 536 q 252 552 252 545 q 238 576 252 570 q 201 614 201 591 q 202 621 201 617 q 235 646 208 646 q 324 659 279 648 q 444 694 369 671 l 306 96 z "},"":{"ha":930,"x_min":91,"x_max":1054,"o":"m 508 850 l 335 97 q 332 79 332 87 q 346 56 332 61 q 384 18 384 41 q 382 12 384 15 q 349 -14 377 -14 l 119 -14 q 91 9 91 -14 q 92 17 91 13 q 134 53 98 41 q 179 101 171 64 l 353 855 q 355 872 355 865 q 342 897 355 891 q 304 934 304 910 q 305 941 304 937 q 339 966 311 966 l 568 966 q 597 943 597 966 q 596 935 597 939 q 553 899 590 911 q 508 850 517 887 m 966 850 l 745 -103 q 695 -207 726 -165 q 596 -273 658 -252 q 500 -286 554 -285 q 465 -287 484 -287 q 385 -285 427 -287 q 357 -262 357 -285 q 357 -255 357 -258 q 401 -221 363 -224 q 474 -208 438 -218 q 546 -168 511 -197 q 599 -62 581 -138 l 810 855 q 812 872 812 865 q 798 896 812 890 q 761 934 761 911 q 762 941 761 937 q 796 966 768 966 l 1026 966 q 1054 943 1054 966 q 1053 935 1054 939 q 1010 899 1047 911 q 966 850 974 886 z "},"":{"ha":703,"x_min":62,"x_max":895,"o":"m 306 96 q 303 79 303 87 q 317 56 303 61 q 355 18 355 41 q 353 12 355 15 q 320 -14 348 -14 l 90 -14 q 62 9 62 -14 q 62 17 62 13 q 105 53 68 41 q 150 101 142 64 l 250 536 q 252 552 252 545 q 238 576 252 570 q 201 614 201 591 q 202 621 201 617 q 235 646 208 646 q 324 659 279 648 q 444 694 369 671 l 306 96 m 817 963 q 895 900 895 963 q 891 872 895 888 q 783 786 871 786 q 705 849 705 786 q 709 877 705 862 q 817 963 728 963 m 417 963 q 494 900 494 963 q 491 872 494 888 q 382 786 471 786 q 306 848 306 786 q 309 877 306 862 q 417 963 329 963 m 688 5 q 624 -191 657 -125 q 536 -303 591 -256 q 351 -394 457 -368 l 364 -333 q 425 -292 398 -315 q 472 -230 451 -269 q 497 -157 486 -205 q 535 7 508 -109 l 653 521 q 656 537 656 530 q 642 560 656 555 q 606 597 606 574 q 606 604 606 600 q 640 628 612 628 q 725 641 682 630 q 843 675 769 652 l 688 5 z "},"":{"ha":463,"x_min":-9,"x_max":696,"o":"m 250 1042 l 484 1304 l 583 1304 l 696 1042 l 625 1042 l 507 1176 l 328 1042 l 250 1042 m 337 120 q 271 -82 305 -15 q 180 -197 237 -149 q -9 -290 102 -262 l 4 -229 q 66 -186 39 -210 q 115 -123 94 -162 q 140 -47 129 -96 q 179 120 152 2 l 349 856 q 351 873 351 865 q 338 897 351 891 q 300 935 300 911 q 301 941 300 938 q 335 966 307 966 l 565 966 q 594 943 594 966 q 593 936 594 939 q 550 899 587 911 q 505 851 513 887 l 337 120 z "},"":{"ha":325,"x_min":-63,"x_max":543,"o":"m 97 730 l 330 992 l 430 992 l 543 730 l 471 730 l 354 865 l 176 730 l 97 730 m 275 5 q 211 -191 243 -125 q 123 -303 178 -256 q -63 -394 43 -368 l -50 -333 q 11 -292 -16 -315 q 58 -230 37 -269 q 83 -157 72 -205 q 121 7 94 -109 l 239 521 q 242 537 242 530 q 229 560 242 555 q 192 597 192 574 q 193 604 192 600 q 226 628 198 628 q 312 641 268 630 q 429 675 355 652 l 275 5 z "},"":{"ha":1008,"x_min":91,"x_max":1120,"o":"m 436 3 l 509 3 q 490 -41 492 -29 q 488 -52 488 -46 q 494 -67 488 -60 q 533 -112 511 -90 q 559 -178 559 -139 q 556 -206 559 -191 l 555 -212 q 441 -285 536 -278 l 430 -285 q 323 -262 387 -285 l 325 -174 q 399 -216 376 -216 q 436 -205 416 -216 q 457 -180 454 -195 q 458 -174 458 -178 q 439 -131 458 -155 q 409 -78 420 -109 q 406 -59 406 -69 q 406 -47 406 -54 q 436 3 411 -26 m 438 545 l 833 851 q 941 937 897 901 q 1008 965 977 965 q 1040 956 1025 965 l 1105 921 q 1120 898 1120 911 q 1119 891 1120 895 q 1113 879 1118 886 l 1048 767 l 989 794 q 951 803 970 803 q 896 781 923 803 l 570 522 l 964 60 q 984 43 973 49 q 1004 17 1004 32 l 1004 13 q 970 -14 998 -14 l 741 -14 q 712 9 712 -14 q 713 18 712 13 q 728 37 715 26 q 741 47 739 44 l 741 47 q 727 68 741 52 l 413 435 l 335 96 q 332 79 332 87 q 346 56 332 61 q 384 18 384 41 q 382 12 384 15 q 349 -14 377 -14 l 119 -14 q 91 9 91 -14 q 92 17 91 13 q 134 53 98 41 q 179 101 171 64 l 353 855 q 355 872 355 865 q 341 896 355 890 q 304 934 304 911 q 305 941 304 937 q 339 966 311 966 l 569 966 q 597 943 597 966 q 596 935 597 939 q 553 899 590 911 q 509 850 517 886 l 438 545 z "},"":{"ha":789,"x_min":55,"x_max":840,"o":"m 372 8 l 446 8 q 426 -36 428 -24 q 424 -46 424 -41 q 429 -62 424 -56 q 469 -106 448 -84 q 496 -172 496 -134 q 492 -201 496 -186 l 491 -207 q 376 -279 472 -273 l 366 -279 q 260 -256 323 -279 l 260 -168 q 335 -211 312 -211 q 372 -199 353 -211 q 393 -175 390 -189 q 394 -168 394 -172 q 375 -125 394 -150 q 345 -73 357 -104 q 341 -55 341 -64 q 342 -41 341 -48 q 372 8 347 -20 m 344 293 l 299 96 q 296 79 296 87 q 310 56 296 61 q 348 18 348 41 q 347 12 348 15 q 313 -14 341 -14 l 83 -14 q 55 9 55 -14 q 56 17 55 13 q 98 53 62 41 q 143 101 135 64 l 317 855 q 319 872 319 865 q 305 896 319 890 q 268 934 268 911 q 269 941 268 937 q 302 966 275 966 q 391 979 346 968 q 511 1014 436 990 l 370 408 l 619 576 q 706 631 669 610 q 752 644 731 644 q 785 634 770 644 l 829 602 q 840 583 840 593 l 840 578 q 834 567 838 572 l 777 482 l 732 509 q 705 517 718 517 q 667 505 687 517 q 475 380 553 431 l 650 160 q 721 83 705 92 q 743 78 731 78 q 753 79 747 78 q 768 81 761 81 q 800 60 795 81 q 801 54 801 56 q 800 47 801 49 q 782 28 798 34 l 734 7 q 656 -9 691 -9 q 613 0 632 -9 q 538 58 569 19 l 350 295 q 352 298 352 297 q 344 293 351 298 z "},"":{"ha":780,"x_min":62,"x_max":844,"o":"m 447 708 l 378 411 l 623 576 q 709 631 677 613 q 755 644 733 644 q 789 635 773 644 l 833 602 q 844 583 844 593 q 844 577 844 578 q 838 567 844 575 l 780 482 l 735 509 q 709 517 724 517 q 671 505 691 517 q 479 380 564 437 l 654 159 q 725 83 709 91 q 747 78 735 78 q 758 79 750 78 q 771 80 765 80 q 804 60 801 80 q 805 54 805 58 q 804 47 805 50 q 786 28 802 35 l 738 7 q 661 -9 694 -9 q 616 0 635 -9 q 543 58 574 18 l 353 296 l 358 300 q 352 296 357 300 l 307 96 q 304 79 304 87 q 317 56 304 61 q 355 18 355 41 q 354 12 355 15 q 321 -14 349 -14 l 91 -14 q 62 9 62 -14 q 63 17 62 13 q 115 56 69 41 q 151 101 142 64 l 252 545 q 255 562 255 554 q 241 588 255 581 q 205 627 205 604 q 206 633 205 630 q 239 659 212 659 q 327 672 282 661 q 447 708 372 683 z "},"":{"ha":848,"x_min":91,"x_max":852,"o":"m 331 77 l 600 77 q 708 123 656 77 q 789 197 760 170 q 824 216 810 216 q 852 193 852 216 q 852 186 852 190 q 846 170 849 176 l 752 -14 l 119 -14 q 91 9 91 -14 q 92 17 91 13 q 134 53 98 41 q 179 101 171 64 l 353 855 q 355 872 355 865 q 341 896 355 890 q 304 934 304 911 q 305 941 304 937 q 339 966 311 966 l 569 966 q 597 943 597 966 q 596 935 597 939 q 553 899 590 911 q 509 850 517 886 l 331 77 m 414 1046 q 353 1026 376 1026 q 344 1027 347 1026 q 328 1044 328 1029 l 328 1047 q 365 1089 332 1061 l 465 1173 q 541 1236 486 1190 q 615 1293 595 1282 q 654 1303 635 1303 q 685 1297 670 1303 q 712 1256 712 1284 q 710 1239 712 1248 q 685 1200 705 1216 q 648 1173 665 1183 l 414 1046 z "},"":{"ha":404,"x_min":62,"x_max":712,"o":"m 518 1014 l 307 96 q 304 79 304 87 q 317 56 304 61 q 355 18 355 41 q 354 12 355 15 q 321 -14 349 -14 l 91 -14 q 62 9 62 -14 q 63 17 62 13 q 106 53 69 41 q 151 101 142 64 l 324 855 q 327 872 327 865 q 313 896 327 890 q 275 934 275 911 q 277 941 275 937 q 310 966 282 966 q 398 979 353 968 q 518 1014 444 990 m 414 1046 q 353 1026 376 1026 q 344 1027 347 1026 q 328 1044 328 1029 l 328 1047 q 365 1089 332 1061 l 465 1173 q 541 1236 486 1190 q 615 1293 595 1282 q 654 1303 635 1303 q 685 1297 670 1303 q 712 1256 712 1284 q 710 1239 712 1248 q 685 1200 705 1216 q 648 1173 665 1183 l 414 1046 z "},"":{"ha":848,"x_min":91,"x_max":852,"o":"m 359 -22 l 432 -22 q 424 -43 426 -32 q 422 -54 422 -49 q 428 -70 422 -63 q 467 -115 446 -92 q 494 -180 494 -142 q 490 -209 494 -194 l 489 -215 q 375 -288 470 -281 l 364 -288 q 258 -264 321 -288 l 259 -176 q 333 -219 310 -219 q 370 -208 351 -219 q 392 -182 388 -197 q 393 -176 393 -179 q 373 -134 393 -158 q 343 -81 355 -111 q 340 -62 340 -72 q 340 -50 340 -56 q 359 -22 345 -28 m 331 77 l 600 77 q 708 123 656 77 q 789 197 760 170 q 824 216 810 216 q 852 193 852 216 q 852 186 852 190 q 846 170 849 176 l 752 -14 l 119 -14 q 91 9 91 -14 q 92 17 91 13 q 134 53 98 41 q 179 101 171 64 l 353 855 q 355 872 355 865 q 341 896 355 890 q 304 934 304 911 q 305 941 304 937 q 339 966 311 966 l 569 966 q 597 943 597 966 q 596 935 597 939 q 553 899 590 911 q 509 850 517 886 l 331 77 z "},"":{"ha":404,"x_min":54,"x_max":518,"o":"m 157 -20 l 230 -20 q 220 -45 222 -33 q 218 -55 218 -50 q 224 -71 218 -64 q 264 -115 242 -93 q 290 -181 290 -142 q 287 -210 290 -195 l 286 -216 q 171 -288 267 -281 l 160 -288 q 54 -265 117 -288 l 54 -177 q 130 -220 106 -220 q 166 -208 147 -220 q 188 -184 184 -197 q 189 -177 189 -181 q 170 -134 189 -159 q 139 -82 151 -113 q 136 -64 136 -73 q 137 -50 136 -57 q 157 -20 142 -29 m 518 1014 l 307 96 q 304 79 304 87 q 317 56 304 61 q 355 18 355 41 q 354 12 355 15 q 321 -14 349 -14 l 91 -14 q 62 9 62 -14 q 63 17 62 13 q 106 53 69 41 q 151 101 142 64 l 324 855 q 327 872 327 865 q 313 896 327 890 q 275 934 275 911 q 277 941 275 937 q 310 966 282 966 q 398 979 353 968 q 518 1014 444 990 z "},"":{"ha":848,"x_min":91,"x_max":852,"o":"m 331 77 l 600 77 q 708 123 656 77 q 789 197 760 170 q 824 216 810 216 q 852 193 852 216 q 852 186 852 190 q 846 170 849 176 l 752 -14 l 119 -14 q 91 9 91 -14 q 92 17 91 13 q 134 53 98 41 q 179 101 171 64 l 353 855 q 355 872 355 865 q 341 896 355 890 q 304 934 304 911 q 305 941 304 937 q 339 966 311 966 l 569 966 q 593 935 590 966 q 553 899 590 911 q 509 850 517 886 l 331 77 m 712 1105 l 717 1105 q 793 1049 793 1105 q 791 1033 793 1042 l 779 977 q 765 941 776 962 q 747 907 754 920 q 611 771 703 827 q 557 751 578 751 q 528 763 538 751 q 522 779 522 770 q 524 785 522 783 q 535 802 526 792 q 570 827 549 816 q 653 905 637 863 q 594 960 594 905 q 596 978 594 968 l 608 1034 l 609 1036 q 712 1105 624 1104 z "},"":{"ha":451,"x_min":110,"x_max":840,"o":"m 566 1014 l 506 758 q 655 859 614 824 q 701 905 696 895 q 642 960 642 905 q 644 978 642 968 l 656 1034 l 656 1036 q 760 1105 671 1104 l 764 1105 q 840 1049 840 1105 q 839 1033 840 1042 l 827 977 q 812 941 823 962 q 795 907 802 920 q 717 815 771 865 q 491 663 663 765 q 484 660 486 661 l 354 96 q 351 79 351 87 q 365 56 351 61 q 403 18 403 41 q 401 12 403 15 q 368 -14 396 -14 l 138 -14 q 110 9 110 -14 q 111 17 110 13 q 153 53 117 41 q 199 102 190 64 l 300 543 l 259 512 q 267 493 259 503 q 275 464 275 484 q 274 454 275 460 l 264 410 q 196 343 246 346 l 192 343 q 127 390 127 343 q 129 405 127 397 l 138 449 l 139 452 q 150 479 142 465 q 164 506 158 495 q 211 562 180 532 q 323 644 243 591 l 372 855 q 374 872 374 865 q 360 896 374 890 q 323 934 323 911 q 324 941 323 937 q 357 966 330 966 q 446 979 401 968 q 566 1014 491 990 z "},"":{"ha":848,"x_min":91,"x_max":852,"o":"m 331 77 l 600 77 q 708 123 656 77 q 789 197 760 170 q 824 216 810 216 q 852 193 852 216 q 852 186 852 190 q 846 170 849 176 l 752 -14 l 119 -14 q 91 9 91 -14 q 92 17 91 13 q 134 53 98 41 q 179 101 171 64 l 353 855 q 355 872 355 865 q 341 896 355 890 q 304 934 304 911 q 305 941 304 937 q 339 966 311 966 l 569 966 q 597 943 597 966 q 596 935 597 939 q 553 899 590 911 q 509 850 517 886 l 331 77 m 543 379 q 504 387 522 379 q 475 409 484 397 q 460 440 465 420 q 459 454 459 447 q 462 477 459 465 q 477 513 466 496 q 505 544 491 533 q 540 565 520 556 q 581 573 562 573 q 621 564 601 573 q 650 541 639 555 q 664 509 660 528 q 665 495 665 502 q 663 473 665 485 q 647 436 658 453 q 621 407 636 420 q 584 387 604 394 q 543 379 564 379 z "},"":{"ha":510,"x_min":62,"x_max":665,"o":"m 518 1014 l 307 96 q 304 79 304 87 q 317 56 304 61 q 355 18 355 41 q 354 12 355 15 q 321 -14 349 -14 l 91 -14 q 62 9 62 -14 q 63 17 62 13 q 106 53 69 41 q 151 101 142 64 l 324 855 q 327 872 327 865 q 313 896 327 890 q 275 934 275 911 q 277 941 275 937 q 310 966 282 966 q 398 979 353 968 q 518 1014 444 990 m 543 379 q 504 387 522 379 q 475 409 484 397 q 460 440 465 420 q 459 454 459 447 q 462 477 459 465 q 477 513 466 496 q 505 544 491 533 q 540 565 520 556 q 581 573 562 573 q 621 564 601 573 q 650 541 639 555 q 664 509 660 528 q 665 495 665 502 q 663 473 665 485 q 647 436 658 453 q 621 407 636 420 q 584 387 604 394 q 543 379 564 379 z "},"":{"ha":848,"x_min":91,"x_max":852,"o":"m 331 77 l 600 77 q 708 123 656 77 q 789 197 760 170 q 824 216 810 216 q 852 193 852 216 q 852 186 852 190 q 846 170 849 176 l 752 -14 l 119 -14 q 91 9 91 -14 q 92 17 91 13 q 134 53 98 41 q 179 101 171 64 l 282 549 l 158 517 q 147 516 151 516 q 122 539 122 516 l 121 565 q 122 572 121 569 q 146 594 125 588 l 302 633 l 353 855 q 355 872 355 865 q 341 896 355 890 q 304 934 304 911 q 305 941 304 937 q 339 966 311 966 l 569 966 q 597 943 597 966 q 596 935 597 939 q 553 899 590 911 q 509 850 517 886 l 468 675 l 615 713 l 621 713 q 650 690 646 713 l 650 664 q 649 656 650 660 q 624 635 646 640 l 449 591 l 331 77 z "},"":{"ha":510,"x_min":62,"x_max":650,"o":"m 518 1014 l 437 667 l 615 713 l 621 713 q 650 690 646 713 l 650 664 q 649 656 650 660 q 624 635 646 640 l 418 583 l 307 96 q 304 79 304 87 q 317 56 304 61 q 355 18 355 41 q 354 12 355 15 q 321 -14 349 -14 l 91 -14 q 62 9 62 -14 q 63 17 62 13 q 106 53 69 41 q 151 102 142 64 l 252 541 l 158 517 q 147 516 151 516 q 122 539 122 516 l 121 565 q 122 572 121 569 q 146 594 125 588 l 271 625 l 324 855 q 327 872 327 865 q 313 896 327 890 q 275 934 275 911 q 277 941 275 937 q 310 966 282 966 q 398 979 353 968 q 518 1014 444 990 z "},"":{"ha":1115,"x_min":77,"x_max":1296,"o":"m 954 182 l 1108 855 q 1111 872 1111 865 q 1097 896 1111 890 q 1060 934 1060 911 q 1061 941 1060 937 q 1095 966 1067 966 l 1267 966 q 1296 943 1296 966 q 1295 935 1296 939 q 1253 899 1289 911 q 1208 850 1216 886 l 1000 -47 l 861 -11 l 417 762 l 264 96 q 261 79 261 87 q 275 56 261 61 q 313 18 313 41 q 311 12 313 15 q 277 -14 306 -14 l 105 -14 q 77 9 77 -14 q 77 17 77 13 q 120 53 83 41 q 165 101 157 64 l 338 855 q 341 872 341 865 q 327 896 341 890 q 290 934 290 911 q 291 941 290 937 q 325 966 296 966 l 510 966 l 954 182 m 734 1046 q 673 1026 696 1026 q 664 1027 667 1026 q 648 1044 648 1029 l 648 1047 q 685 1089 652 1061 l 785 1173 q 861 1236 806 1190 q 935 1293 916 1282 q 975 1303 956 1303 q 1005 1297 990 1303 q 1032 1256 1032 1284 q 1030 1239 1032 1248 q 1005 1200 1025 1216 q 968 1173 985 1183 l 734 1046 z "},"":{"ha":808,"x_min":34,"x_max":807,"o":"m 410 671 l 395 605 l 519 648 q 610 665 566 665 q 633 664 622 665 q 724 635 688 658 q 804 523 791 591 q 807 486 807 507 q 777 288 807 417 l 732 96 q 730 80 730 87 q 746 54 730 60 q 785 16 785 40 q 784 10 785 14 q 751 -14 779 -14 l 587 -14 q 564 7 564 -14 q 564 15 564 10 l 643 355 q 654 443 654 404 q 625 544 654 507 q 547 581 596 581 q 477 568 517 581 l 378 534 l 278 96 q 275 79 275 87 q 289 56 275 61 q 327 18 327 41 q 326 12 327 15 q 292 -14 320 -14 l 62 -14 q 34 9 34 -14 q 35 17 34 13 q 77 53 41 41 q 122 101 114 64 l 217 512 q 219 528 219 521 q 205 553 219 548 q 168 591 168 567 q 169 597 168 594 q 202 623 174 623 q 291 636 245 625 q 410 671 336 648 m 495 751 q 435 730 458 730 q 425 732 428 730 q 410 749 410 734 l 410 751 q 447 793 413 765 l 548 878 q 623 940 568 895 q 698 998 677 986 q 736 1008 718 1008 q 768 1000 753 1008 q 795 959 795 987 q 792 942 795 951 q 767 904 787 920 q 730 878 748 888 l 495 751 z "},"":{"ha":1115,"x_min":77,"x_max":1296,"o":"m 478 9 l 551 9 q 532 -35 534 -23 q 530 -45 530 -40 q 536 -61 530 -54 q 575 -106 553 -83 q 602 -172 602 -133 q 598 -200 602 -185 l 597 -206 q 483 -279 578 -272 l 472 -279 q 366 -256 429 -279 l 367 -168 q 441 -210 418 -210 q 478 -199 458 -210 q 500 -174 496 -189 q 500 -167 500 -170 q 481 -125 500 -149 q 451 -72 463 -102 q 448 -53 448 -63 q 448 -41 448 -47 q 478 9 453 -20 m 954 182 l 1108 855 q 1111 872 1111 865 q 1097 896 1111 890 q 1060 934 1060 911 q 1061 941 1060 937 q 1095 966 1067 966 l 1267 966 q 1296 943 1296 966 q 1295 935 1296 939 q 1253 899 1289 911 q 1208 850 1216 886 l 1000 -47 l 861 -11 l 417 762 l 264 96 q 261 79 261 87 q 275 56 261 61 q 313 18 313 41 q 311 12 313 15 q 277 -14 306 -14 l 105 -14 q 77 9 77 -14 q 77 17 77 13 q 120 53 83 41 q 165 101 157 64 l 338 855 q 341 872 341 865 q 327 896 341 890 q 290 934 290 911 q 291 941 290 937 q 325 966 296 966 l 510 966 l 954 182 z "}}}
